<?xml version="1.0" encoding="utf-8"?>
<!-- Generator: Adobe Illustrator 16.0.0, SVG Export Plug-In . SVG Version: 6.00 Build 0)  -->
<!DOCTYPE svg PUBLIC "-//W3C//DTD SVG 1.1//EN" "http://www.w3.org/Graphics/SVG/1.1/DTD/svg11.dtd">
<svg version="1.1" id="Calque_1" xmlns="http://www.w3.org/2000/svg" xmlns:xlink="http://www.w3.org/1999/xlink" x="0px" y="0px"
	 width="268px" height="200px" viewBox="0 0 268 200" enable-background="new 0 0 268 200" xml:space="preserve">
<g>
	<g>
	</g>
	<g>
	</g>
	<g>
	</g>
</g>
<g>
	<g>
	</g>
	<g>
	</g>
	<g>
	</g>
	<g>
	</g>
</g>
<g>
	<g>
	</g>
	<g>
	</g>
	<g>
	</g>
	<g>
	</g>
	<g>
	</g>
</g>
<g>
	<g>
	</g>
	<g>
	</g>
	<g>
	</g>
</g>
<rect x="124.245" y="82.508" fill="#FFCC33" width="10" height="66.76"/>
<g>
	<rect x="32.39" y="6.211" fill="#FFCC33" width="10" height="143.056"/>
	<rect x="78.167" y="63.434" fill="#FFCC33" width="10" height="85.833"/>
	<rect x="123.945" y="111.119" fill="#FFCC33" width="10" height="38.148"/>
</g>
<rect x="162.826" y="27.67" fill="#FFCC33" width="17.881" height="14.307"/>
<rect x="162.826" y="6.211" fill="#7FDF00" width="17.881" height="14.305"/>
<g>
	<line fill="#202000" x1="16.939" y1="149.268" x2="159.995" y2="149.268"/>
	<g>
		<g>
			<line fill="#202000" x1="16.939" y1="149.268" x2="16.939" y2="145.689"/>
			<line fill="#202000" x1="150.995" y1="149.268" x2="150.995" y2="145.689"/>
		</g>
		<g>
		</g>
	</g>
</g>
<g>
	<g>
		<g>
			<g>
				<path fill="#202000" d="M11.147,148.693c0,1-0.263,1.785-0.788,2.355s-1.222,0.855-2.089,0.855
					c-0.875,0-1.576-0.285-2.104-0.855s-0.791-1.355-0.791-2.355v-2.35c0-0.996,0.263-1.781,0.788-2.355s1.224-0.861,2.095-0.861
					c0.867,0,1.565,0.287,2.095,0.861s0.794,1.359,0.794,2.355V148.693z M9.442,146.168c0-0.547-0.104-0.971-0.313-1.271
					s-0.499-0.451-0.87-0.451c-0.375,0-0.665,0.15-0.87,0.451s-0.308,0.725-0.308,1.271v2.689c0,0.559,0.104,0.987,0.311,1.286
					s0.5,0.448,0.879,0.448c0.371,0,0.659-0.149,0.864-0.448s0.308-0.728,0.308-1.286V146.168z"/>
			</g>
		</g>
		<g>
			<g>
				<path fill="#202000" d="M8.212,118.154c0.406,0,0.708-0.105,0.905-0.316s0.296-0.508,0.296-0.891
					c0-0.32-0.104-0.586-0.311-0.797s-0.496-0.316-0.867-0.316c-0.312,0-0.575,0.096-0.788,0.287s-0.319,0.436-0.319,0.732H5.476
					l-0.012-0.035c-0.023-0.668,0.234-1.219,0.773-1.652s1.205-0.65,1.998-0.65c0.883,0,1.584,0.208,2.104,0.624
					s0.779,1.013,0.779,1.79c0,0.391-0.112,0.749-0.337,1.075s-0.532,0.583-0.923,0.771c0.445,0.168,0.789,0.423,1.031,0.765
					s0.363,0.755,0.363,1.239c0,0.781-0.282,1.396-0.847,1.843s-1.288,0.671-2.171,0.671c-0.777,0-1.457-0.211-2.039-0.633
					s-0.863-1.014-0.844-1.775l0.012-0.035h1.664c0,0.32,0.112,0.589,0.337,0.806s0.515,0.325,0.87,0.325
					c0.391,0,0.707-0.115,0.949-0.346s0.363-0.521,0.363-0.873c0-0.449-0.113-0.782-0.34-0.999s-0.559-0.325-0.996-0.325H7.269
					v-1.283H8.212z"/>
			</g>
		</g>
		<g>
			<g>
				<path fill="#202000" d="M8.739,85.904c0.332,0,0.64,0.03,0.923,0.091s0.563,0.149,0.841,0.267l-0.305,1.254
					c-0.266-0.09-0.504-0.157-0.715-0.202s-0.455-0.067-0.732-0.067c-0.5,0-0.903,0.191-1.21,0.574s-0.46,0.916-0.46,1.6v0.275
					c0.227-0.223,0.497-0.396,0.812-0.519s0.665-0.185,1.052-0.185c0.73,0,1.301,0.259,1.711,0.776s0.615,1.192,0.615,2.024
					c0,0.855-0.266,1.551-0.797,2.086s-1.225,0.803-2.08,0.803c-0.891,0-1.616-0.305-2.177-0.914s-0.841-1.443-0.841-2.502v-1.787
					c0-1.082,0.317-1.948,0.952-2.599S7.767,85.904,8.739,85.904z M8.376,90.287c-0.309,0-0.571,0.05-0.788,0.149
					s-0.386,0.237-0.507,0.413v0.457c0,0.656,0.12,1.164,0.36,1.523s0.558,0.539,0.952,0.539c0.355,0,0.639-0.149,0.85-0.448
					s0.316-0.675,0.316-1.128c0-0.469-0.106-0.837-0.319-1.104S8.739,90.287,8.376,90.287z"/>
			</g>
		</g>
		<g>
			<g>
				<path fill="#202000" d="M7.937,64.759c0.422,0,0.768-0.159,1.037-0.478s0.404-0.763,0.404-1.333v-0.551
					c-0.191,0.246-0.418,0.432-0.68,0.557s-0.543,0.188-0.844,0.188c-0.793,0-1.415-0.258-1.866-0.773s-0.677-1.217-0.677-2.104
					c0-0.855,0.268-1.564,0.803-2.127s1.219-0.844,2.051-0.844c0.859,0,1.561,0.289,2.104,0.867s0.814,1.379,0.814,2.402v2.297
					c0,0.984-0.296,1.766-0.888,2.344s-1.345,0.867-2.259,0.867c-0.297,0-0.603-0.032-0.917-0.097s-0.61-0.155-0.888-0.272
					l0.287-1.236c0.246,0.102,0.486,0.176,0.721,0.223S7.64,64.759,7.937,64.759z M8.142,61.888c0.277,0,0.521-0.057,0.732-0.17
					s0.379-0.266,0.504-0.457v-0.996c0-0.535-0.109-0.944-0.328-1.228s-0.512-0.425-0.879-0.425c-0.344,0-0.621,0.159-0.832,0.478
					s-0.316,0.71-0.316,1.175c0,0.488,0.096,0.881,0.287,1.178S7.778,61.888,8.142,61.888z"/>
			</g>
		</g>
		<g>
			<g>
				<path fill="#202000" d="M2.599,37.337H0.894v-7.043H-0.87v-1.307l3.469-0.305V37.337z"/>
				<path fill="#202000" d="M11.229,37.337H5.505v-1.119l2.643-2.988c0.395-0.465,0.675-0.858,0.841-1.181s0.249-0.618,0.249-0.888
					c0-0.352-0.088-0.633-0.264-0.844s-0.439-0.316-0.791-0.316c-0.371,0-0.658,0.135-0.861,0.404s-0.305,0.611-0.305,1.025H5.353
					l-0.012-0.035c-0.02-0.758,0.23-1.399,0.75-1.925s1.217-0.788,2.092-0.788s1.555,0.224,2.039,0.671s0.727,1.048,0.727,1.802
					c0,0.512-0.136,0.979-0.407,1.4s-0.739,1.006-1.403,1.752l-1.406,1.688l0.012,0.029h3.486V37.337z"/>
			</g>
		</g>
		<g>
			<g>
				<path fill="#202000" d="M2.599,8.726H0.894V1.683H-0.87V0.376l3.469-0.305V8.726z"/>
				<path fill="#202000" d="M5.634,4.964l0.492-4.77h4.758v1.371H7.526L7.292,3.558c0.16-0.117,0.361-0.214,0.604-0.29
					s0.506-0.118,0.791-0.126c0.793-0.012,1.407,0.233,1.843,0.735s0.653,1.206,0.653,2.112c0,0.836-0.236,1.521-0.709,2.057
					S9.278,8.849,8.306,8.849c-0.785,0-1.457-0.208-2.016-0.624S5.462,7.237,5.481,6.511l0.012-0.029L7.14,6.405
					c0,0.355,0.107,0.633,0.322,0.832s0.496,0.299,0.844,0.299c0.406,0,0.702-0.133,0.888-0.398s0.278-0.645,0.278-1.137
					S9.37,5.117,9.167,4.826S8.663,4.39,8.265,4.39c-0.328,0-0.579,0.061-0.753,0.182S7.214,4.856,7.14,5.063L5.634,4.964z"/>
			</g>
		</g>
	</g>
	<line fill="#202000" x1="16.939" y1="149.268" x2="16.939" y2="6.211"/>
	<g>
		<g>
			<line fill="#202000" x1="16.939" y1="149.268" x2="20.517" y2="149.268"/>
			<line fill="#202000" x1="16.939" y1="120.656" x2="20.517" y2="120.656"/>
			<line fill="#202000" x1="16.939" y1="92.045" x2="20.517" y2="92.045"/>
			<line fill="#202000" x1="16.939" y1="63.434" x2="20.517" y2="63.434"/>
			<line fill="#202000" x1="16.939" y1="34.823" x2="20.517" y2="34.823"/>
			<line fill="#202000" x1="16.939" y1="6.211" x2="20.517" y2="6.211"/>
		</g>
		<g>
		</g>
	</g>
</g>
<g>
	<g>
		<rect x="32.39" y="6.211" fill="#585840" width="10" height="143.056"/>
	</g>
	<g>
		<rect x="124.245" y="82.508" fill="#585840" width="10" height="66.76"/>
	</g>
	<g>
		<rect x="78.167" y="63.434" fill="#585840" width="10" height="85.833"/>
	</g>
	<g>
		<rect x="162.826" y="27.67" fill="#585840" width="17.882" height="14.305"/>
	</g>
</g>
<rect x="134.245" y="94.559" fill="#7FDF00" width="10" height="54.709"/>
<g>
	<rect x="42.39" y="24.32" fill="#7FDF00" width="10" height="124.948"/>
	<rect x="88.167" y="45.958" fill="#7FDF00" width="10" height="103.31"/>
</g>
<g>
	<path fill="#202000" d="M196.423,14.665h-2.648l-0.434,1.213h-1.811l2.643-6.826h1.857l2.637,6.826h-1.805L196.423,14.665z
		 M194.243,13.353h1.711l-0.844-2.338h-0.035L194.243,13.353z"/>
	<path fill="#202000" d="M204.913,13.552l0.012,0.035c0.02,0.785-0.216,1.38-0.706,1.784s-1.188,0.606-2.095,0.606
		c-0.879,0-1.59-0.259-2.133-0.776s-0.814-1.192-0.814-2.024v-1.424c0-0.828,0.271-1.501,0.814-2.019s1.254-0.776,2.133-0.776
		c0.914,0,1.615,0.202,2.104,0.606s0.723,0.995,0.703,1.772l-0.012,0.035h-1.652c0-0.395-0.087-0.678-0.261-0.85
		s-0.468-0.258-0.882-0.258c-0.395,0-0.699,0.137-0.914,0.41s-0.322,0.631-0.322,1.072v1.43c0,0.449,0.107,0.812,0.322,1.087
		s0.52,0.413,0.914,0.413c0.406,0,0.696-0.088,0.87-0.264s0.261-0.463,0.261-0.861H204.913z"/>
	<path fill="#202000" d="M211.522,10.358h-2.027v5.52h-1.717v-5.52h-1.998V9.052h5.742V10.358z"/>
	<path fill="#202000" d="M218.577,9.052v4.406c0,0.797-0.278,1.418-0.835,1.863s-1.296,0.668-2.218,0.668
		c-0.926,0-1.667-0.224-2.224-0.671s-0.835-1.067-0.835-1.86V9.052h1.711v4.406c0,0.402,0.115,0.707,0.346,0.914
		s0.564,0.311,1.002,0.311s0.77-0.103,0.996-0.308s0.34-0.511,0.34-0.917V9.052H218.577z"/>
	<path fill="#202000" d="M224.161,14.665h-2.648l-0.434,1.213h-1.811l2.643-6.826h1.857l2.637,6.826h-1.805L224.161,14.665z
		 M221.981,13.353h1.711l-0.844-2.338h-0.035L221.981,13.353z"/>
	<path fill="#202000" d="M228.907,14.577h2.83v1.301h-4.541V9.052h1.711V14.577z"/>
</g>
<g>
	<path fill="#202000" d="M40.436,161.016c0.195-0.338,0.465-0.553,0.81-0.643c0.345-0.089,0.699-0.029,1.061,0.18
		c0.372,0.215,0.606,0.493,0.702,0.835c0.096,0.342,0.045,0.684-0.152,1.025l-0.264,0.456c-0.197,0.342-0.465,0.555-0.805,0.639
		s-0.693,0.02-1.062-0.193c-0.369-0.213-0.602-0.488-0.7-0.827c-0.098-0.339-0.049-0.677,0.146-1.015L40.436,161.016z"/>
	<path fill="#202000" d="M52.997,165.838l-2.203,3.816c-0.398,0.689-0.95,1.089-1.655,1.196c-0.705,0.106-1.457-0.069-2.255-0.53
		c-0.802-0.463-1.332-1.027-1.59-1.693c-0.258-0.666-0.189-1.342,0.207-2.028l2.203-3.815l1.482,0.855l-2.203,3.815
		c-0.201,0.349-0.254,0.67-0.158,0.964c0.096,0.295,0.333,0.552,0.712,0.771s0.718,0.296,1.017,0.231s0.55-0.272,0.753-0.624
		l2.203-3.815L52.997,165.838z"/>
	<path fill="#202000" d="M53.398,171.482l-1.069,1.853l-1.482-0.855l3.413-5.911l2.553,1.473c0.751,0.434,1.244,0.973,1.479,1.615
		c0.235,0.644,0.182,1.262-0.16,1.854c-0.344,0.596-0.853,0.951-1.526,1.067c-0.673,0.116-1.386-0.042-2.137-0.476L53.398,171.482z
		 M54.054,170.346l1.071,0.619c0.314,0.182,0.612,0.238,0.893,0.17s0.491-0.225,0.632-0.468c0.143-0.247,0.175-0.513,0.098-0.796
		s-0.273-0.517-0.588-0.698l-1.071-0.618L54.054,170.346z"/>
	<path fill="#202000" d="M62.823,176.708l-0.007,0.036c-0.375,0.689-0.877,1.088-1.503,1.192c-0.627,0.104-1.333-0.069-2.117-0.522
		c-0.761-0.439-1.248-1.02-1.459-1.738c-0.211-0.72-0.109-1.439,0.307-2.16l0.712-1.233c0.414-0.718,0.986-1.165,1.715-1.341
		c0.729-0.177,1.474-0.045,2.235,0.395c0.792,0.457,1.297,0.982,1.518,1.576s0.128,1.223-0.277,1.887l-0.027,0.024l-1.431-0.826
		c0.197-0.342,0.264-0.63,0.199-0.866c-0.065-0.236-0.276-0.457-0.635-0.664c-0.342-0.197-0.674-0.231-0.997-0.102
		c-0.323,0.129-0.594,0.385-0.815,0.768l-0.715,1.238c-0.225,0.389-0.313,0.756-0.265,1.102s0.244,0.617,0.585,0.814
		c0.352,0.203,0.647,0.273,0.885,0.207c0.238-0.064,0.457-0.27,0.656-0.615L62.823,176.708z"/>
	<path fill="#202000" d="M69.263,179.992c-0.416,0.721-1,1.166-1.751,1.334c-0.751,0.168-1.516,0.027-2.294-0.422
		c-0.778-0.449-1.283-1.041-1.515-1.777c-0.231-0.735-0.139-1.463,0.277-2.184l0.712-1.233c0.414-0.718,0.995-1.159,1.743-1.325
		s1.512-0.023,2.293,0.428c0.778,0.449,1.283,1.041,1.516,1.775c0.232,0.734,0.143,1.458-0.27,2.172L69.263,179.992z M68.5,177.902
		c0.213-0.369,0.284-0.736,0.213-1.102c-0.071-0.366-0.284-0.651-0.639-0.856c-0.365-0.211-0.719-0.254-1.062-0.13
		c-0.342,0.125-0.621,0.373-0.836,0.746l-0.715,1.238c-0.219,0.379-0.297,0.75-0.233,1.113c0.063,0.363,0.277,0.65,0.643,0.861
		c0.358,0.207,0.712,0.248,1.062,0.123s0.634-0.377,0.853-0.756L68.5,177.902z"/>
	<path fill="#202000" d="M73.27,183.118l0.03,0.018l3.83-3.364l1.853,1.07l-3.413,5.911l-1.477-0.853l2.039-3.531l-0.027-0.023
		l-3.315,2.802l-0.995-0.574l0.755-4.179l-0.034-0.012l-1.995,3.455l-1.481-0.855l3.413-5.912l1.837,1.061L73.27,183.118z"/>
	<path fill="#202000" d="M78.421,188.399l-1.481-0.855l3.413-5.911l1.481,0.855L78.421,188.399z"/>
	<path fill="#202000" d="M85.033,192.217l-1.481-0.855l-0.203-4.969l-0.037-0.008l-2.095,3.629l-1.481-0.855l3.413-5.912
		l1.481,0.855l0.206,4.964l0.037,0.007l2.092-3.623l1.481,0.855L85.033,192.217z"/>
	<path fill="#202000" d="M92.025,195.164c-0.373,0.123-0.817,0.152-1.332,0.087s-1.103-0.288-1.762-0.669
		c-0.808-0.467-1.336-1.07-1.583-1.811s-0.163-1.471,0.253-2.191l0.712-1.232c0.412-0.714,0.997-1.152,1.754-1.314
		c0.757-0.164,1.524-0.02,2.303,0.43c0.792,0.457,1.314,0.98,1.569,1.571c0.254,0.591,0.199,1.183-0.166,1.775l-0.027,0.024
		l-1.431-0.826c0.162-0.281,0.197-0.532,0.104-0.755c-0.093-0.223-0.327-0.442-0.702-0.659c-0.362-0.209-0.718-0.256-1.067-0.139
		c-0.349,0.116-0.633,0.363-0.852,0.742l-0.715,1.238c-0.223,0.387-0.292,0.764-0.209,1.131c0.083,0.368,0.319,0.664,0.708,0.889
		c0.294,0.17,0.536,0.283,0.726,0.338c0.189,0.056,0.356,0.078,0.502,0.067l0.53-0.919l-1.111-0.641l0.565-0.98l2.588,1.494
		L92.025,195.164z"/>
</g>
<g>
	<path fill="#202000" d="M86.311,161.016c0.195-0.338,0.465-0.553,0.81-0.643c0.345-0.089,0.699-0.029,1.061,0.18
		c0.372,0.215,0.606,0.493,0.702,0.835c0.096,0.342,0.045,0.684-0.152,1.025l-0.264,0.456c-0.197,0.342-0.465,0.555-0.805,0.639
		s-0.693,0.02-1.062-0.193c-0.369-0.213-0.602-0.488-0.7-0.827c-0.098-0.339-0.049-0.677,0.146-1.015L86.311,161.016z"/>
	<path fill="#202000" d="M92.953,167.476l-1.225,2.121l-1.481-0.855l3.413-5.911l2.344,1.354c0.728,0.42,1.214,0.914,1.459,1.484
		c0.246,0.57,0.209,1.132-0.109,1.684c-0.186,0.32-0.434,0.55-0.745,0.686c-0.311,0.137-0.676,0.181-1.095,0.133
		c0.327,0.324,0.506,0.658,0.536,1s-0.058,0.69-0.263,1.046l-0.243,0.421c-0.07,0.122-0.146,0.275-0.226,0.462
		c-0.081,0.186-0.114,0.325-0.1,0.419l-0.041,0.071l-1.527-0.882c0-0.086,0.045-0.22,0.137-0.401
		c0.092-0.182,0.186-0.357,0.284-0.526l0.237-0.411c0.156-0.271,0.197-0.522,0.122-0.755c-0.075-0.233-0.265-0.438-0.57-0.613
		L92.953,167.476z M93.609,166.339l0.863,0.498c0.288,0.166,0.548,0.226,0.782,0.181c0.234-0.045,0.418-0.185,0.553-0.418
		c0.127-0.221,0.153-0.449,0.078-0.686c-0.075-0.238-0.253-0.438-0.534-0.6l-0.863-0.498L93.609,166.339z"/>
	<path fill="#202000" d="M101.593,171.963l-2.405-1.389l-0.791,1.371l2.841,1.641l-0.65,1.126l-4.323-2.496l3.413-5.911l4.323,2.496
		l-0.653,1.131l-2.841-1.641l-0.662,1.146l2.405,1.389L101.593,171.963z"/>
	<path fill="#202000" d="M106.082,176.482l-2.293-1.324l-0.982,0.834l-1.568-0.905l5.702-4.591l1.609,0.93l-1.13,7.229l-1.563-0.902
		L106.082,176.482z M104.85,174.256l1.482,0.855l0.438-2.446l-0.03-0.018L104.85,174.256z"/>
	<path fill="#202000" d="M108.104,179.051l3.413-5.912l2.329,1.346c0.761,0.439,1.26,1.029,1.495,1.77
		c0.236,0.74,0.148,1.465-0.262,2.176l-0.615,1.066c-0.412,0.713-0.997,1.151-1.754,1.314c-0.757,0.162-1.516,0.024-2.277-0.415
		L108.104,179.051z M112.345,175.126l-2.109,3.653l0.847,0.49c0.342,0.197,0.689,0.236,1.042,0.117
		c0.353-0.119,0.638-0.367,0.857-0.746l0.618-1.071c0.217-0.376,0.289-0.745,0.215-1.11c-0.074-0.365-0.281-0.646-0.623-0.844
		L112.345,175.126z"/>
	<path fill="#202000" d="M118.283,180.428l0.03,0.018l2.596-1.883l1.609,0.928l-4.239,2.654l-1.204,2.086l-1.482-0.855l1.23-2.131
		l0.184-4.936l1.604,0.926L118.283,180.428z"/>
</g>
<g>
	<path fill="#202000" d="M132.292,161.016c0.195-0.338,0.465-0.553,0.81-0.643c0.345-0.089,0.699-0.029,1.061,0.18
		c0.372,0.215,0.605,0.493,0.701,0.835c0.097,0.342,0.046,0.684-0.151,1.025l-0.264,0.456c-0.197,0.342-0.465,0.555-0.805,0.639
		s-0.693,0.02-1.062-0.193c-0.369-0.213-0.602-0.488-0.7-0.827c-0.098-0.339-0.049-0.677,0.146-1.015L132.292,161.016z"/>
	<path fill="#202000" d="M140.492,169.803l-2.293-1.324l-0.982,0.834l-1.568-0.905l5.702-4.591l1.608,0.93l-1.129,7.229
		l-1.563-0.902L140.492,169.803z M139.262,167.576l1.48,0.855l0.439-2.446l-0.031-0.018L139.262,167.576z"/>
	<path fill="#202000" d="M145.065,171.375l-1.069,1.852l-1.481-0.855l3.413-5.912l2.553,1.475c0.75,0.434,1.244,0.971,1.479,1.615
		c0.236,0.643,0.183,1.26-0.159,1.853c-0.344,0.595-0.853,0.951-1.526,1.067s-1.387-0.043-2.137-0.477L145.065,171.375z
		 M145.722,170.238l1.071,0.617c0.314,0.182,0.611,0.238,0.893,0.171c0.28-0.068,0.491-0.224,0.632-0.468
		c0.143-0.246,0.175-0.512,0.098-0.796s-0.274-0.517-0.589-0.698l-1.07-0.618L145.722,170.238z"/>
	<path fill="#202000" d="M151.084,174.85l-1.069,1.852l-1.481-0.855l3.412-5.912l2.553,1.475c0.751,0.434,1.244,0.971,1.479,1.615
		c0.235,0.643,0.183,1.26-0.159,1.853c-0.344,0.595-0.854,0.951-1.527,1.067s-1.386-0.043-2.137-0.477L151.084,174.85z
		 M151.74,173.713l1.07,0.617c0.314,0.182,0.612,0.238,0.893,0.171c0.281-0.068,0.492-0.224,0.633-0.468
		c0.143-0.246,0.175-0.512,0.098-0.796c-0.078-0.284-0.273-0.517-0.589-0.698l-1.07-0.618L151.74,173.713z"/>
	<path fill="#202000" d="M157.258,178.055l-1.225,2.121l-1.482-0.855l3.413-5.912l2.345,1.354c0.727,0.42,1.214,0.916,1.459,1.486
		c0.246,0.57,0.21,1.131-0.108,1.682c-0.186,0.322-0.434,0.551-0.745,0.688c-0.311,0.136-0.676,0.18-1.094,0.132
		c0.326,0.324,0.505,0.657,0.535,0.999c0.03,0.343-0.057,0.691-0.262,1.047l-0.244,0.421c-0.07,0.122-0.145,0.276-0.226,0.462
		c-0.08,0.186-0.113,0.326-0.1,0.419l-0.041,0.071l-1.527-0.882c-0.001-0.086,0.046-0.22,0.137-0.401s0.187-0.357,0.284-0.526
		l0.236-0.411c0.156-0.271,0.197-0.522,0.122-0.756c-0.075-0.232-0.265-0.437-0.569-0.612L157.258,178.055z M157.914,176.918
		l0.862,0.498c0.287,0.166,0.548,0.227,0.782,0.181c0.233-0.046,0.418-0.185,0.553-0.418c0.127-0.22,0.152-0.448,0.078-0.687
		c-0.076-0.236-0.254-0.437-0.534-0.599l-0.862-0.498L157.914,176.918z"/>
	<path fill="#202000" d="M167.01,183.395c-0.416,0.721-1,1.164-1.752,1.333c-0.75,0.169-1.516,0.028-2.293-0.421
		c-0.778-0.449-1.283-1.042-1.515-1.777c-0.231-0.736-0.14-1.465,0.276-2.186l0.713-1.232c0.414-0.717,0.994-1.159,1.742-1.325
		c0.748-0.165,1.512-0.022,2.293,0.429c0.778,0.449,1.283,1.04,1.516,1.774c0.232,0.733,0.143,1.458-0.27,2.172L167.01,183.395z
		 M166.248,181.303c0.213-0.368,0.283-0.735,0.213-1.102c-0.071-0.365-0.284-0.65-0.639-0.855c-0.366-0.211-0.721-0.254-1.062-0.129
		c-0.343,0.124-0.621,0.373-0.836,0.744l-0.715,1.238c-0.219,0.379-0.297,0.75-0.234,1.113c0.063,0.364,0.277,0.651,0.643,0.862
		c0.359,0.207,0.713,0.248,1.062,0.122c0.35-0.125,0.635-0.377,0.854-0.756L166.248,181.303z"/>
	<path fill="#202000" d="M169.917,186.08l-0.071,0.217l0.031,0.018l0.132-0.146l3.849-3.584l1.547,0.895l-5.539,4.684l-1.604-0.926
		l1.282-7.143l1.558,0.9L169.917,186.08z"/>
	<path fill="#202000" d="M178.076,189.574l-2.405-1.389l-0.791,1.369l2.841,1.641l-0.65,1.127l-4.322-2.496l3.412-5.912l4.324,2.496
		l-0.654,1.132l-2.841-1.641l-0.662,1.147l2.405,1.389L178.076,189.574z"/>
	<path fill="#202000" d="M178.299,193.031l3.413-5.912l2.329,1.346c0.762,0.439,1.26,1.029,1.495,1.77s0.148,1.465-0.262,2.176
		l-0.615,1.066c-0.412,0.713-0.997,1.151-1.754,1.314c-0.757,0.162-1.517,0.024-2.277-0.415L178.299,193.031z M182.541,189.106
		l-2.109,3.653l0.847,0.49c0.342,0.197,0.688,0.236,1.042,0.117c0.353-0.119,0.639-0.367,0.857-0.746l0.617-1.071
		c0.217-0.376,0.289-0.745,0.216-1.11s-0.281-0.646-0.623-0.844L182.541,189.106z"/>
</g>
<g>
	<path fill="#202000" d="M193.909,35.198v2.139h-1.711v-6.826h2.947c0.867,0,1.563,0.22,2.089,0.659s0.788,1.001,0.788,1.685
		c0,0.688-0.263,1.25-0.788,1.688s-1.222,0.656-2.089,0.656H193.909z M193.909,33.886h1.236c0.363,0,0.649-0.1,0.858-0.299
		s0.313-0.439,0.313-0.721c0-0.285-0.104-0.531-0.313-0.738s-0.495-0.311-0.858-0.311h-1.236V33.886z"/>
	<path fill="#202000" d="M200.858,36.036h2.83v1.301h-4.541v-6.826h1.711V36.036z"/>
	<path fill="#202000" d="M209.073,36.124h-2.648l-0.434,1.213h-1.811l2.643-6.826h1.857l2.637,6.826h-1.805L209.073,36.124z
		 M206.894,34.812h1.711l-0.844-2.338h-0.035L206.894,34.812z"/>
	<path fill="#202000" d="M218.226,37.337h-1.711l-2.66-4.201l-0.035,0.012v4.189h-1.711v-6.826h1.711l2.66,4.195l0.035-0.012v-4.184
		h1.711V37.337z"/>
	<path fill="#202000" d="M225.948,37.337h-1.711l-2.66-4.201l-0.035,0.012v4.189h-1.711v-6.826h1.711l2.66,4.195l0.035-0.012v-4.184
		h1.711V37.337z"/>
	<path fill="#202000" d="M232.042,34.454h-2.777v1.582h3.281v1.301h-4.992v-6.826h4.992v1.307h-3.281v1.324h2.777V34.454z"/>
	<path fill="#202000" d="M233.964,37.337v-6.826h2.689c0.879,0,1.605,0.262,2.18,0.785s0.861,1.195,0.861,2.016v1.23
		c0,0.824-0.287,1.496-0.861,2.016s-1.301,0.779-2.18,0.779H233.964z M235.675,31.817v4.219h0.979c0.395,0,0.715-0.14,0.961-0.419
		s0.369-0.638,0.369-1.075v-1.236c0-0.434-0.123-0.79-0.369-1.069s-0.566-0.419-0.961-0.419H235.675z"/>
</g>
</svg>
