<?xml version="1.0" encoding="utf-8"?>
<!-- Generator: Adobe Illustrator 16.0.0, SVG Export Plug-In . SVG Version: 6.00 Build 0)  -->
<!DOCTYPE svg PUBLIC "-//W3C//DTD SVG 1.1//EN" "http://www.w3.org/Graphics/SVG/1.1/DTD/svg11.dtd">
<svg version="1.1" id="Calque_1" xmlns="http://www.w3.org/2000/svg" xmlns:xlink="http://www.w3.org/1999/xlink" x="0px" y="0px"
	 width="268px" height="145px" viewBox="0 0 268 145" enable-background="new 0 0 268 145" xml:space="preserve">
<g>
	<g>
	</g>
	<g>
	</g>
	<g>
	</g>
</g>
<g>
	<g>
	</g>
	<g>
	</g>
	<g>
	</g>
	<g>
	</g>
</g>
<rect x="155.608" y="65.098" fill="#FF7F00" width="17.882" height="14.305"/>
<rect x="155.608" y="43.639" fill="#FF7F00" width="17.882" height="14.307"/>
<rect x="155.608" y="86.557" fill="#FF7F00" width="17.882" height="14.305"/>
<rect x="155.608" y="22.182" fill="#FF7F00" width="17.882" height="14.305"/>
<rect x="155.608" y="0.723" fill="#FF7F00" width="17.882" height="14.305"/>
<circle fill="#FFFFFF" cx="72.25" cy="72.25" r="72.25"/>
<circle fill="#FF7F00" cx="72.25" cy="72.25" r="62.497"/>
<g>
	<g>
	</g>
	<g>
	</g>
	<g>
	</g>
	<g>
	</g>
	<g>
	</g>
</g>
<g>
	<g>
		<rect x="155.608" y="86.557" opacity="0" fill="#202000" width="17.882" height="14.305"/>
		<g>
			<path opacity="0" fill="#202000" d="M72.25,72.25V9.664c28.379,0,51.555,17.15,59.853,44.289L72.25,72.25z"/>
		</g>
	</g>
	<g>
		<rect x="155.608" y="65.098" opacity="0.75" fill="#202000" width="17.882" height="14.305"/>
		<g>
			<path opacity="0.75" fill="#202000" d="M72.25,72.25l59.853-18.297c3.87,12.66,3.762,25.047-0.329,37.639L72.25,72.25z"/>
		</g>
	</g>
	<g>
		<rect x="155.608" y="43.639" opacity="0.5" fill="#202000" width="17.882" height="14.307"/>
		<g>
			<path opacity="0.5" fill="#202000" d="M72.25,72.25l59.523,19.342c-5.266,16.205-15.094,27.92-30.141,35.92L72.25,72.25z"/>
		</g>
	</g>
	<g>
		<rect x="155.608" y="22.182" fill="#9F9F8F" width="17.882" height="14.305"/>
		<g>
			<path fill="#9F9F8F" d="M72.25,72.25l29.383,55.262c-16.693,8.877-35.297,9.852-52.827,2.77L72.25,72.25z"/>
		</g>
	</g>
	<g>
		<rect x="155.608" y="0.723" fill="#585840" width="17.882" height="14.305"/>
		<g>
			<path fill="#585840" d="M72.25,72.25l-23.444,58.031c-32.05-12.949-47.534-49.428-34.585-81.475
				C23.971,24.674,46.223,9.664,72.25,9.664V72.25z"/>
		</g>
	</g>
</g>
<g>
	<g>
		<path fill="#202000" d="M185.67,8.064l0.012,0.035c0.02,0.785-0.216,1.38-0.706,1.784s-1.188,0.606-2.095,0.606
			c-0.879,0-1.59-0.259-2.133-0.776s-0.814-1.192-0.814-2.024V6.265c0-0.828,0.271-1.501,0.814-2.019s1.254-0.776,2.133-0.776
			c0.914,0,1.615,0.202,2.104,0.606s0.723,0.995,0.703,1.772l-0.012,0.035h-1.652c0-0.395-0.087-0.678-0.261-0.85
			s-0.468-0.258-0.882-0.258c-0.395,0-0.699,0.137-0.914,0.41s-0.322,0.631-0.322,1.072v1.43c0,0.449,0.107,0.812,0.322,1.087
			s0.52,0.413,0.914,0.413c0.406,0,0.696-0.088,0.87-0.264s0.261-0.463,0.261-0.861H185.67z"/>
		<path fill="#202000" d="M188.723,9.089h2.83v1.301h-4.541V3.564h1.711V9.089z"/>
		<path fill="#202000" d="M198.391,7.689c0,0.832-0.283,1.509-0.85,2.03s-1.299,0.782-2.197,0.782s-1.632-0.261-2.2-0.782
			s-0.853-1.198-0.853-2.03V6.265c0-0.828,0.282-1.501,0.847-2.019s1.298-0.776,2.2-0.776c0.898,0,1.632,0.26,2.2,0.779
			s0.853,1.191,0.853,2.016V7.689z M196.686,6.259c0-0.426-0.122-0.779-0.366-1.061s-0.571-0.422-0.981-0.422
			c-0.422,0-0.75,0.14-0.984,0.419s-0.352,0.634-0.352,1.063v1.43c0,0.438,0.118,0.798,0.354,1.081s0.565,0.425,0.987,0.425
			c0.414,0,0.741-0.142,0.981-0.425s0.36-0.644,0.36-1.081V6.259z"/>
		<path fill="#202000" d="M203.424,8.503c0-0.211-0.093-0.387-0.278-0.527s-0.522-0.266-1.011-0.375
			c-0.895-0.172-1.543-0.413-1.945-0.724s-0.604-0.78-0.604-1.409c0-0.574,0.243-1.051,0.729-1.43s1.142-0.568,1.966-0.568
			c0.859,0,1.529,0.193,2.01,0.58s0.711,0.908,0.691,1.564l-0.012,0.035h-1.652c0-0.281-0.081-0.498-0.243-0.65
			s-0.427-0.229-0.794-0.229c-0.348,0-0.601,0.064-0.759,0.193s-0.237,0.293-0.237,0.492c0,0.227,0.088,0.406,0.264,0.539
			s0.539,0.256,1.09,0.369c0.84,0.172,1.465,0.416,1.875,0.732s0.615,0.777,0.615,1.383c0,0.609-0.26,1.099-0.779,1.468
			s-1.209,0.554-2.068,0.554c-0.914,0-1.635-0.193-2.162-0.58s-0.779-0.916-0.756-1.588l0.012-0.035h1.652
			c0.008,0.328,0.122,0.561,0.343,0.697s0.524,0.205,0.911,0.205c0.391,0,0.679-0.063,0.864-0.19S203.424,8.714,203.424,8.503z"/>
		<path fill="#202000" d="M210.83,7.507h-2.777v1.582h3.281v1.301h-4.992V3.564h4.992v1.307h-3.281v1.324h2.777V7.507z"/>
		<path fill="#202000" d="M212.752,10.39V3.564h2.689c0.879,0,1.605,0.262,2.18,0.785s0.861,1.195,0.861,2.016v1.23
			c0,0.824-0.287,1.496-0.861,2.016s-1.301,0.779-2.18,0.779H212.752z M214.463,4.871v4.219h0.979c0.395,0,0.715-0.14,0.961-0.419
			s0.369-0.638,0.369-1.075V6.359c0-0.434-0.123-0.79-0.369-1.069s-0.566-0.419-0.961-0.419H214.463z"/>
	</g>
	<g>
		<path fill="#202000" d="M180.133,31.849v-6.826h2.689c0.879,0,1.605,0.262,2.18,0.785s0.861,1.195,0.861,2.016v1.23
			c0,0.824-0.287,1.496-0.861,2.016s-1.301,0.779-2.18,0.779H180.133z M181.844,26.33v4.219h0.979c0.395,0,0.715-0.14,0.961-0.419
			s0.369-0.638,0.369-1.075v-1.236c0-0.434-0.123-0.79-0.369-1.069s-0.566-0.419-0.961-0.419H181.844z"/>
		<path fill="#202000" d="M191.676,28.966h-2.777v1.582h3.281v1.301h-4.992v-6.826h4.992v1.307h-3.281v1.324h2.777V28.966z"/>
		<path fill="#202000" d="M195.309,30.548h2.83v1.301h-4.541v-6.826h1.711V30.548z"/>
		<path fill="#202000" d="M200.91,31.849h-1.711v-6.826h1.711V31.849z"/>
		<path fill="#202000" d="M205.076,30.021l0.047,0.223h0.035l0.041-0.193l1.541-5.027h1.787l-2.455,6.826h-1.852l-2.461-6.826h1.799
			L205.076,30.021z"/>
		<path fill="#202000" d="M213.889,28.966h-2.777v1.582h3.281v1.301H209.4v-6.826h4.992v1.307h-3.281v1.324h2.777V28.966z"/>
		<path fill="#202000" d="M217.521,29.4v2.449h-1.711v-6.826h2.707c0.84,0,1.509,0.186,2.007,0.557s0.747,0.875,0.747,1.512
			c0,0.371-0.101,0.693-0.302,0.967s-0.495,0.494-0.882,0.662c0.445,0.117,0.767,0.316,0.964,0.598s0.296,0.627,0.296,1.037v0.486
			c0,0.141,0.012,0.312,0.035,0.513s0.064,0.339,0.123,0.413v0.082h-1.764c-0.043-0.074-0.07-0.213-0.082-0.416
			s-0.018-0.402-0.018-0.598v-0.475c0-0.312-0.091-0.551-0.272-0.715s-0.448-0.246-0.8-0.246H217.521z M217.521,28.087h0.996
			c0.332,0,0.588-0.078,0.768-0.234s0.27-0.369,0.27-0.639c0-0.254-0.092-0.465-0.275-0.633s-0.438-0.252-0.762-0.252h-0.996V28.087
			z"/>
		<path fill="#202000" d="M227.248,28.966h-2.777v1.582h3.281v1.301h-4.992v-6.826h4.992v1.307h-3.281v1.324h2.777V28.966z"/>
		<path fill="#202000" d="M229.17,31.849v-6.826h2.689c0.879,0,1.605,0.262,2.18,0.785s0.861,1.195,0.861,2.016v1.23
			c0,0.824-0.287,1.496-0.861,2.016s-1.301,0.779-2.18,0.779H229.17z M230.881,26.33v4.219h0.979c0.395,0,0.715-0.14,0.961-0.419
			s0.369-0.638,0.369-1.075v-1.236c0-0.434-0.123-0.79-0.369-1.069s-0.566-0.419-0.961-0.419H230.881z"/>
	</g>
	<g>
		<path fill="#202000" d="M185.67,50.981l0.012,0.035c0.02,0.785-0.216,1.38-0.706,1.784s-1.188,0.606-2.095,0.606
			c-0.879,0-1.59-0.259-2.133-0.776s-0.814-1.192-0.814-2.024v-1.424c0-0.828,0.271-1.501,0.814-2.019s1.254-0.776,2.133-0.776
			c0.914,0,1.615,0.202,2.104,0.606s0.723,0.995,0.703,1.772l-0.012,0.035h-1.652c0-0.395-0.087-0.678-0.261-0.85
			s-0.468-0.258-0.882-0.258c-0.395,0-0.699,0.137-0.914,0.41s-0.322,0.631-0.322,1.072v1.43c0,0.449,0.107,0.812,0.322,1.087
			s0.52,0.413,0.914,0.413c0.406,0,0.696-0.088,0.87-0.264s0.261-0.463,0.261-0.861H185.67z"/>
		<path fill="#202000" d="M192.889,50.606c0,0.832-0.283,1.509-0.85,2.03s-1.299,0.782-2.197,0.782s-1.632-0.261-2.2-0.782
			s-0.853-1.198-0.853-2.03v-1.424c0-0.828,0.282-1.501,0.847-2.019s1.298-0.776,2.2-0.776c0.898,0,1.632,0.26,2.2,0.779
			s0.853,1.191,0.853,2.016V50.606z M191.184,49.176c0-0.426-0.122-0.779-0.366-1.061s-0.571-0.422-0.981-0.422
			c-0.422,0-0.75,0.14-0.984,0.419s-0.352,0.634-0.352,1.063v1.43c0,0.438,0.118,0.798,0.354,1.081s0.565,0.425,0.987,0.425
			c0.414,0,0.741-0.142,0.981-0.425s0.36-0.644,0.36-1.081V49.176z"/>
		<path fill="#202000" d="M197.922,51.309h0.035l1.635-4.828h2.139v6.826h-1.705v-4.078l-0.035-0.006l-1.471,4.084h-1.148
			l-1.436-3.996l-0.035,0.006v3.99h-1.711v-6.826h2.121L197.922,51.309z"/>
		<path fill="#202000" d="M205.023,51.168v2.139h-1.711v-6.826h2.947c0.867,0,1.563,0.22,2.089,0.659s0.788,1.001,0.788,1.685
			c0,0.688-0.263,1.25-0.788,1.688s-1.222,0.656-2.089,0.656H205.023z M205.023,49.856h1.236c0.363,0,0.649-0.1,0.858-0.299
			s0.313-0.439,0.313-0.721c0-0.285-0.104-0.531-0.313-0.738s-0.495-0.311-0.858-0.311h-1.236V49.856z"/>
		<path fill="#202000" d="M211.973,52.006h2.83v1.301h-4.541v-6.826h1.711V52.006z"/>
		<path fill="#202000" d="M220.352,50.424h-2.777v1.582h3.281v1.301h-4.992v-6.826h4.992v1.307h-3.281v1.324h2.777V50.424z"/>
		<path fill="#202000" d="M227.541,47.788h-2.027v5.52h-1.717v-5.52h-1.998v-1.307h5.742V47.788z"/>
		<path fill="#202000" d="M233.066,50.424h-2.777v1.582h3.281v1.301h-4.992v-6.826h4.992v1.307h-3.281v1.324h2.777V50.424z"/>
		<path fill="#202000" d="M234.988,53.307v-6.826h2.689c0.879,0,1.605,0.262,2.18,0.785s0.861,1.195,0.861,2.016v1.23
			c0,0.824-0.287,1.496-0.861,2.016s-1.301,0.779-2.18,0.779H234.988z M236.699,47.788v4.219h0.979c0.395,0,0.715-0.14,0.961-0.419
			s0.369-0.638,0.369-1.075v-1.236c0-0.434-0.123-0.79-0.369-1.069s-0.566-0.419-0.961-0.419H236.699z"/>
	</g>
	<g>
		<path fill="#202000" d="M181.844,74.766h-1.711V67.94h1.711V74.766z"/>
		<path fill="#202000" d="M189.479,74.766h-1.711l-2.66-4.201l-0.035,0.012v4.189h-1.711V67.94h1.711l2.66,4.195l0.035-0.012V67.94
			h1.711V74.766z"/>
		<path fill="#202000" d="M195.783,72.627v2.138h-1.711V67.94h2.947c0.867,0,1.563,0.22,2.089,0.659s0.788,1.001,0.788,1.685
			c0,0.688-0.263,1.25-0.788,1.688s-1.222,0.656-2.089,0.656H195.783z M195.783,71.315h1.236c0.363,0,0.649-0.1,0.858-0.299
			s0.313-0.439,0.313-0.721c0-0.285-0.104-0.531-0.313-0.738s-0.495-0.311-0.858-0.311h-1.236V71.315z"/>
		<path fill="#202000" d="M202.732,72.317v2.449h-1.711V67.94h2.707c0.84,0,1.509,0.186,2.007,0.557s0.747,0.875,0.747,1.512
			c0,0.371-0.101,0.693-0.302,0.967s-0.495,0.494-0.882,0.662c0.445,0.117,0.767,0.316,0.964,0.598s0.296,0.627,0.296,1.037v0.486
			c0,0.141,0.012,0.312,0.035,0.514s0.064,0.338,0.123,0.412v0.082h-1.764c-0.043-0.074-0.07-0.213-0.082-0.416
			s-0.018-0.402-0.018-0.598v-0.475c0-0.312-0.091-0.55-0.272-0.714s-0.448-0.246-0.8-0.246H202.732z M202.732,71.004h0.996
			c0.332,0,0.588-0.078,0.768-0.234s0.27-0.369,0.27-0.639c0-0.254-0.092-0.465-0.275-0.633s-0.438-0.252-0.762-0.252h-0.996V71.004
			z"/>
		<path fill="#202000" d="M212.459,71.883h-2.777v1.582h3.281v1.301h-4.992V67.94h4.992v1.307h-3.281v1.324h2.777V71.883z"/>
		<path fill="#202000" d="M216.092,72.627v2.138h-1.711V67.94h2.947c0.867,0,1.563,0.22,2.089,0.659s0.788,1.001,0.788,1.685
			c0,0.688-0.263,1.25-0.788,1.688s-1.222,0.656-2.089,0.656H216.092z M216.092,71.315h1.236c0.363,0,0.649-0.1,0.858-0.299
			s0.313-0.439,0.313-0.721c0-0.285-0.104-0.531-0.313-0.738s-0.495-0.311-0.858-0.311h-1.236V71.315z"/>
		<path fill="#202000" d="M225.303,73.553h-2.648l-0.434,1.213h-1.811l2.643-6.826h1.857l2.637,6.826h-1.805L225.303,73.553z
			 M223.123,72.241h1.711l-0.844-2.338h-0.035L223.123,72.241z"/>
		<path fill="#202000" d="M230.049,72.317v2.449h-1.711V67.94h2.707c0.84,0,1.509,0.186,2.007,0.557s0.747,0.875,0.747,1.512
			c0,0.371-0.101,0.693-0.302,0.967s-0.495,0.494-0.882,0.662c0.445,0.117,0.767,0.316,0.964,0.598s0.296,0.627,0.296,1.037v0.486
			c0,0.141,0.012,0.312,0.035,0.514s0.064,0.338,0.123,0.412v0.082h-1.764c-0.043-0.074-0.07-0.213-0.082-0.416
			s-0.018-0.402-0.018-0.598v-0.475c0-0.312-0.091-0.55-0.272-0.714s-0.448-0.246-0.8-0.246H230.049z M230.049,71.004h0.996
			c0.332,0,0.588-0.078,0.768-0.234s0.27-0.369,0.27-0.639c0-0.254-0.092-0.465-0.275-0.633s-0.438-0.252-0.762-0.252h-0.996V71.004
			z"/>
		<path fill="#202000" d="M239.512,73.553h-2.648l-0.434,1.213h-1.811l2.643-6.826h1.857l2.637,6.826h-1.805L239.512,73.553z
			 M237.332,72.241h1.711l-0.844-2.338h-0.035L237.332,72.241z"/>
		<path fill="#202000" d="M247.439,69.247h-2.027v5.519h-1.717v-5.519h-1.998V67.94h5.742V69.247z"/>
		<path fill="#202000" d="M250.188,74.766h-1.711V67.94h1.711V74.766z"/>
		<path fill="#202000" d="M257.582,72.065c0,0.832-0.283,1.509-0.85,2.031s-1.299,0.781-2.197,0.781s-1.632-0.26-2.2-0.781
			s-0.853-1.199-0.853-2.031v-1.424c0-0.828,0.282-1.501,0.847-2.019s1.298-0.776,2.2-0.776c0.898,0,1.632,0.26,2.2,0.779
			s0.853,1.191,0.853,2.016V72.065z M255.877,70.635c0-0.426-0.122-0.779-0.366-1.061s-0.571-0.422-0.981-0.422
			c-0.422,0-0.75,0.14-0.984,0.419s-0.352,0.634-0.352,1.063v1.43c0,0.438,0.118,0.798,0.354,1.082
			c0.236,0.283,0.565,0.424,0.987,0.424c0.414,0,0.741-0.141,0.981-0.424c0.24-0.284,0.36-0.644,0.36-1.082V70.635z"/>
		<path fill="#202000" d="M265,74.766h-1.711l-2.66-4.201l-0.035,0.012v4.189h-1.711V67.94h1.711l2.66,4.195l0.035-0.012V67.94H265
			V74.766z"/>
	</g>
	<g>
		<path fill="#202000" d="M181.844,94.084v2.139h-1.711v-6.826h2.947c0.867,0,1.563,0.221,2.089,0.66s0.788,1,0.788,1.684
			c0,0.688-0.263,1.25-0.788,1.688s-1.222,0.656-2.089,0.656H181.844z M181.844,92.771h1.236c0.363,0,0.649-0.1,0.858-0.299
			s0.313-0.439,0.313-0.721c0-0.285-0.104-0.531-0.313-0.738s-0.495-0.311-0.858-0.311h-1.236V92.771z"/>
		<path fill="#202000" d="M188.793,94.922h2.83v1.301h-4.541v-6.826h1.711V94.922z"/>
		<path fill="#202000" d="M197.008,95.01h-2.648l-0.434,1.213h-1.811l2.643-6.826h1.857l2.637,6.826h-1.805L197.008,95.01z
			 M194.828,93.697h1.711l-0.844-2.338h-0.035L194.828,93.697z"/>
		<path fill="#202000" d="M205.498,93.896l0.012,0.035c0.02,0.785-0.216,1.381-0.706,1.785s-1.188,0.605-2.095,0.605
			c-0.879,0-1.59-0.258-2.133-0.775s-0.814-1.193-0.814-2.025v-1.424c0-0.828,0.271-1.5,0.814-2.018s1.254-0.777,2.133-0.777
			c0.914,0,1.615,0.203,2.104,0.607s0.723,0.994,0.703,1.771l-0.012,0.035h-1.652c0-0.395-0.087-0.678-0.261-0.85
			s-0.468-0.258-0.882-0.258c-0.395,0-0.699,0.137-0.914,0.41s-0.322,0.631-0.322,1.072v1.43c0,0.449,0.107,0.812,0.322,1.088
			s0.52,0.412,0.914,0.412c0.406,0,0.696-0.088,0.87-0.264s0.261-0.463,0.261-0.861H205.498z"/>
		<path fill="#202000" d="M211.328,93.34h-2.777v1.582h3.281v1.301h-4.992v-6.826h4.992v1.307h-3.281v1.324h2.777V93.34z"/>
		<path fill="#202000" d="M213.25,96.223v-6.826h2.689c0.879,0,1.605,0.262,2.18,0.785s0.861,1.195,0.861,2.016v1.23
			c0,0.824-0.287,1.496-0.861,2.016s-1.301,0.779-2.18,0.779H213.25z M214.961,90.703v4.219h0.979c0.395,0,0.715-0.139,0.961-0.418
			s0.369-0.639,0.369-1.076v-1.236c0-0.434-0.123-0.789-0.369-1.068s-0.566-0.42-0.961-0.42H214.961z"/>
	</g>
</g>
<g opacity="0.5">
	<path fill="#FFFFFF" d="M44.402,70.772c0,2.2-1.8,4-4,4h-12c-2.2,0-4-1.8-4-4v-12c0-2.2,1.8-4,4-4h12c2.2,0,4,1.8,4,4V70.772z"/>
</g>
<g>
	<path fill="#202000" d="M30.91,63.737c0.406,0,0.708-0.105,0.905-0.316s0.296-0.508,0.296-0.891c0-0.32-0.104-0.586-0.311-0.797
		s-0.496-0.316-0.867-0.316c-0.312,0-0.575,0.096-0.788,0.287s-0.319,0.436-0.319,0.732h-1.652l-0.012-0.035
		c-0.023-0.668,0.234-1.219,0.773-1.652s1.205-0.65,1.998-0.65c0.883,0,1.584,0.208,2.104,0.624s0.779,1.013,0.779,1.79
		c0,0.391-0.112,0.749-0.337,1.075s-0.532,0.583-0.923,0.771c0.445,0.168,0.789,0.423,1.031,0.765s0.363,0.755,0.363,1.239
		c0,0.781-0.282,1.396-0.847,1.843s-1.288,0.671-2.171,0.671c-0.777,0-1.457-0.211-2.039-0.633s-0.863-1.014-0.844-1.775
		l0.012-0.035h1.664c0,0.32,0.112,0.589,0.337,0.806s0.515,0.325,0.87,0.325c0.391,0,0.707-0.115,0.949-0.346
		s0.363-0.521,0.363-0.873c0-0.449-0.113-0.782-0.34-0.999s-0.559-0.325-0.996-0.325h-0.943v-1.283H30.91z"/>
	<path fill="#202000" d="M40.812,68.753h-5.725v-1.119l2.643-2.988c0.395-0.465,0.675-0.858,0.841-1.181s0.249-0.618,0.249-0.888
		c0-0.352-0.088-0.633-0.264-0.844s-0.439-0.316-0.791-0.316c-0.371,0-0.658,0.135-0.861,0.404s-0.305,0.611-0.305,1.025h-1.664
		l-0.012-0.035c-0.02-0.758,0.23-1.399,0.75-1.925s1.217-0.788,2.092-0.788s1.555,0.224,2.039,0.671s0.727,1.048,0.727,1.802
		c0,0.512-0.136,0.979-0.407,1.4s-0.739,1.006-1.403,1.752l-1.406,1.688l0.012,0.029h3.486V68.753z"/>
</g>
<g opacity="0.5">
	<path fill="#FFFFFF" d="M99.499,49.639c0,2.2-1.8,4-4,4h-12c-2.2,0-4-1.8-4-4v-12c0-2.2,1.8-4,4-4h12c2.2,0,4,1.8,4,4V49.639z"/>
</g>
<g>
	<path fill="#202000" d="M87.278,47.619h-1.705v-7.043h-1.764V39.27l3.469-0.305V47.619z"/>
	<path fill="#202000" d="M90.313,43.857l0.492-4.77h4.758v1.371h-3.357l-0.234,1.992c0.16-0.117,0.361-0.214,0.604-0.29
		s0.506-0.118,0.791-0.126c0.793-0.012,1.407,0.233,1.843,0.735s0.653,1.206,0.653,2.112c0,0.836-0.236,1.521-0.709,2.057
		s-1.195,0.803-2.168,0.803c-0.785,0-1.457-0.208-2.016-0.624s-0.828-0.987-0.809-1.714l0.012-0.029l1.646-0.076
		c0,0.355,0.107,0.633,0.322,0.832s0.496,0.299,0.844,0.299c0.406,0,0.702-0.133,0.888-0.398s0.278-0.645,0.278-1.137
		s-0.102-0.884-0.305-1.175s-0.504-0.437-0.902-0.437c-0.328,0-0.579,0.061-0.753,0.182s-0.298,0.285-0.372,0.492L90.313,43.857z"/>
</g>
<g opacity="0.5">
	<path fill="#FFFFFF" d="M134.179,74.753c0,2.2-1.8,4-4,4h-12c-2.2,0-4-1.8-4-4v-12c0-2.2,1.8-4,4-4h12c2.2,0,4,1.8,4,4V74.753z"/>
</g>
<g>
	<path fill="#202000" d="M127.152,65.521c-0.965,1.129-1.621,2.146-1.969,3.05s-0.521,1.94-0.521,3.108v1.055h-1.711v-1.055
		c0-1.188,0.218-2.271,0.653-3.249s1.069-1.948,1.901-2.909h-4.354v-1.318h6V65.521z"/>
</g>
<g opacity="0.5">
	<path fill="#FFFFFF" d="M121.29,106.861c0,2.2-1.8,4-4,4h-12c-2.2,0-4-1.8-4-4v-12c0-2.2,1.8-4,4-4h12c2.2,0,4,1.8,4,4V106.861z"/>
</g>
<g>
	<path fill="#202000" d="M110.964,103.652c0.422,0,0.768-0.159,1.037-0.478s0.404-0.763,0.404-1.333v-0.551
		c-0.191,0.246-0.418,0.432-0.68,0.557s-0.543,0.188-0.844,0.188c-0.793,0-1.415-0.258-1.866-0.773s-0.677-1.217-0.677-2.104
		c0-0.855,0.268-1.564,0.803-2.127s1.219-0.844,2.051-0.844c0.859,0,1.561,0.289,2.104,0.867s0.814,1.379,0.814,2.402v2.297
		c0,0.984-0.296,1.766-0.888,2.344s-1.345,0.867-2.259,0.867c-0.297,0-0.603-0.032-0.917-0.097s-0.61-0.155-0.888-0.272l0.287-1.236
		c0.246,0.102,0.486,0.176,0.721,0.223S110.667,103.652,110.964,103.652z M111.169,100.781c0.277,0,0.521-0.057,0.732-0.17
		s0.379-0.266,0.504-0.457v-0.996c0-0.535-0.109-0.944-0.328-1.228s-0.512-0.425-0.879-0.425c-0.344,0-0.621,0.159-0.832,0.478
		s-0.316,0.71-0.316,1.175c0,0.488,0.096,0.881,0.287,1.178S110.806,100.781,111.169,100.781z"/>
</g>
<g opacity="0.5">
	<path fill="#FFFFFF" d="M82.251,120.842c0,2.2-1.8,4-4,4h-12c-2.2,0-4-1.8-4-4v-12c0-2.2,1.8-4,4-4h12c2.2,0,4,1.8,4,4V120.842z"/>
</g>
<g>
	<path fill="#202000" d="M70.03,118.822h-1.705v-7.043h-1.764v-1.307l3.469-0.305V118.822z"/>
	<path fill="#202000" d="M78.579,115.734c0,1-0.263,1.785-0.788,2.355s-1.222,0.855-2.089,0.855c-0.875,0-1.576-0.285-2.104-0.855
		s-0.791-1.355-0.791-2.355v-2.35c0-0.996,0.263-1.781,0.788-2.355s1.224-0.861,2.095-0.861c0.867,0,1.565,0.287,2.095,0.861
		s0.794,1.359,0.794,2.355V115.734z M76.874,113.209c0-0.547-0.104-0.971-0.313-1.271s-0.499-0.451-0.87-0.451
		c-0.375,0-0.665,0.15-0.87,0.451s-0.308,0.725-0.308,1.271v2.689c0,0.559,0.104,0.987,0.311,1.286s0.5,0.448,0.879,0.448
		c0.371,0,0.659-0.149,0.864-0.448s0.308-0.728,0.308-1.286V113.209z"/>
</g>
</svg>
