<?xml version="1.0" encoding="utf-8"?>
<!-- Generator: Adobe Illustrator 16.0.0, SVG Export Plug-In . SVG Version: 6.00 Build 0)  -->
<!DOCTYPE svg PUBLIC "-//W3C//DTD SVG 1.1//EN" "http://www.w3.org/Graphics/SVG/1.1/DTD/svg11.dtd">
<svg version="1.1" id="Calque_1" xmlns="http://www.w3.org/2000/svg" xmlns:xlink="http://www.w3.org/1999/xlink" x="0px" y="0px"
	 width="500px" height="119.6px" viewBox="0 0 500 119.6" enable-background="new 0 0 500 119.6" xml:space="preserve">
<g>
	<rect y="93.493" fill="#7FDF00" width="62.543" height="12.414"/>
	<rect y="74.871" fill="#7FDF00" width="62.543" height="12.414"/>
	<rect y="56.249" fill="#7FDF00" width="62.543" height="12.414"/>
	<rect y="37.627" fill="#7FDF00" width="62.543" height="12.414"/>
</g>
<g>
	<g>
		<g>
			<path d="M7.328,18.685c0,1-0.263,1.785-0.788,2.355s-1.222,0.855-2.089,0.855c-0.875,0-1.576-0.285-2.104-0.855
				s-0.791-1.355-0.791-2.355v-2.35c0-0.996,0.263-1.781,0.788-2.355s1.224-0.861,2.095-0.861c0.867,0,1.565,0.287,2.095,0.861
				s0.794,1.359,0.794,2.355V18.685z M5.623,16.159c0-0.547-0.104-0.971-0.313-1.271s-0.499-0.451-0.87-0.451
				c-0.375,0-0.665,0.15-0.87,0.451s-0.308,0.725-0.308,1.271v2.689c0,0.559,0.104,0.987,0.311,1.286s0.5,0.448,0.879,0.448
				c0.371,0,0.659-0.149,0.864-0.448s0.308-0.728,0.308-1.286V16.159z"/>
		</g>
		<g>
			<path d="M99.594,21.773H93.87v-1.119l2.643-2.988c0.395-0.465,0.675-0.858,0.841-1.181s0.249-0.618,0.249-0.888
				c0-0.352-0.088-0.633-0.264-0.844s-0.439-0.316-0.791-0.316c-0.371,0-0.658,0.135-0.861,0.404s-0.305,0.611-0.305,1.025h-1.664
				l-0.012-0.035c-0.02-0.758,0.23-1.399,0.75-1.925s1.217-0.788,2.092-0.788s1.555,0.224,2.039,0.671s0.727,1.048,0.727,1.802
				c0,0.512-0.136,0.979-0.407,1.4s-0.739,1.006-1.403,1.752l-1.406,1.688l0.012,0.029h3.486V21.773z"/>
			<path d="M106.397,18.685c0,1-0.263,1.785-0.788,2.355s-1.222,0.855-2.089,0.855c-0.875,0-1.576-0.285-2.104-0.855
				s-0.791-1.355-0.791-2.355v-2.35c0-0.996,0.263-1.781,0.788-2.355s1.224-0.861,2.095-0.861c0.867,0,1.565,0.287,2.095,0.861
				s0.794,1.359,0.794,2.355V18.685z M104.692,16.159c0-0.547-0.104-0.971-0.313-1.271s-0.499-0.451-0.87-0.451
				c-0.375,0-0.665,0.15-0.87,0.451s-0.308,0.725-0.308,1.271v2.689c0,0.559,0.104,0.987,0.311,1.286s0.5,0.448,0.879,0.448
				c0.371,0,0.659-0.149,0.864-0.448s0.308-0.728,0.308-1.286V16.159z"/>
		</g>
		<g>
			<path d="M198.849,18.597h0.961v1.324h-0.961v1.852h-1.711v-1.852h-3.475l-0.082-1.025l3.539-5.654h1.729V18.597z M195.134,18.597
				h2.004v-3.1l-0.035-0.006l-0.176,0.381L195.134,18.597z"/>
			<path d="M206.466,18.685c0,1-0.263,1.785-0.788,2.355s-1.222,0.855-2.089,0.855c-0.875,0-1.576-0.285-2.104-0.855
				s-0.791-1.355-0.791-2.355v-2.35c0-0.996,0.263-1.781,0.788-2.355s1.224-0.861,2.095-0.861c0.867,0,1.565,0.287,2.095,0.861
				s0.794,1.359,0.794,2.355V18.685z M204.761,16.159c0-0.547-0.104-0.971-0.313-1.271s-0.499-0.451-0.87-0.451
				c-0.375,0-0.665,0.15-0.87,0.451s-0.308,0.725-0.308,1.271v2.689c0,0.559,0.104,0.987,0.311,1.286s0.5,0.448,0.879,0.448
				c0.371,0,0.659-0.149,0.864-0.448s0.308-0.728,0.308-1.286V16.159z"/>
		</g>
		<g>
			<path d="M297.243,13.118c0.332,0,0.64,0.03,0.923,0.091s0.563,0.149,0.841,0.267l-0.305,1.254
				c-0.266-0.09-0.504-0.157-0.715-0.202s-0.455-0.067-0.732-0.067c-0.5,0-0.903,0.191-1.21,0.574s-0.46,0.916-0.46,1.6v0.275
				c0.227-0.223,0.497-0.396,0.812-0.519s0.665-0.185,1.052-0.185c0.73,0,1.301,0.259,1.711,0.776s0.615,1.192,0.615,2.024
				c0,0.855-0.266,1.551-0.797,2.086s-1.225,0.803-2.08,0.803c-0.891,0-1.616-0.305-2.177-0.914s-0.841-1.443-0.841-2.502v-1.787
				c0-1.082,0.317-1.948,0.952-2.599S296.271,13.118,297.243,13.118z M296.88,17.501c-0.309,0-0.571,0.05-0.788,0.149
				s-0.386,0.237-0.507,0.413v0.457c0,0.656,0.12,1.164,0.36,1.523s0.558,0.539,0.952,0.539c0.355,0,0.639-0.149,0.85-0.448
				s0.316-0.675,0.316-1.128c0-0.469-0.106-0.837-0.319-1.104S297.243,17.501,296.88,17.501z"/>
			<path d="M306.536,18.685c0,1-0.263,1.785-0.788,2.355s-1.222,0.855-2.089,0.855c-0.875,0-1.576-0.285-2.104-0.855
				s-0.791-1.355-0.791-2.355v-2.35c0-0.996,0.263-1.781,0.788-2.355s1.224-0.861,2.095-0.861c0.867,0,1.565,0.287,2.095,0.861
				s0.794,1.359,0.794,2.355V18.685z M304.831,16.159c0-0.547-0.104-0.971-0.313-1.271s-0.499-0.451-0.87-0.451
				c-0.375,0-0.665,0.15-0.87,0.451s-0.308,0.725-0.308,1.271v2.689c0,0.559,0.104,0.987,0.311,1.286s0.5,0.448,0.879,0.448
				c0.371,0,0.659-0.149,0.864-0.448s0.308-0.728,0.308-1.286V16.159z"/>
		</g>
		<g>
			<path d="M399.579,15.456c0,0.422-0.109,0.796-0.328,1.122s-0.52,0.581-0.902,0.765c0.465,0.191,0.834,0.466,1.107,0.823
				s0.41,0.767,0.41,1.228c0,0.789-0.274,1.403-0.823,1.843s-1.251,0.659-2.106,0.659c-0.895,0-1.629-0.22-2.203-0.659
				s-0.861-1.054-0.861-1.843c0-0.461,0.142-0.87,0.425-1.228s0.667-0.632,1.151-0.823c-0.402-0.184-0.718-0.438-0.946-0.765
				s-0.343-0.7-0.343-1.122c0-0.75,0.256-1.327,0.768-1.731s1.178-0.606,1.998-0.606c0.785,0,1.424,0.202,1.916,0.606
				S399.579,14.706,399.579,15.456z M398.155,19.312c0-0.379-0.118-0.69-0.354-0.935s-0.528-0.366-0.876-0.366
				c-0.383,0-0.701,0.122-0.955,0.366s-0.381,0.556-0.381,0.935c0,0.387,0.126,0.695,0.378,0.926s0.575,0.346,0.97,0.346
				c0.352,0,0.643-0.115,0.873-0.346S398.155,19.698,398.155,19.312z M397.874,15.532c0-0.336-0.088-0.603-0.264-0.8
				s-0.404-0.296-0.686-0.296c-0.32,0-0.576,0.097-0.768,0.29s-0.287,0.462-0.287,0.806c0,0.348,0.098,0.628,0.293,0.841
				s0.453,0.319,0.773,0.319c0.281,0,0.508-0.105,0.68-0.316S397.874,15.884,397.874,15.532z"/>
			<path d="M406.604,18.685c0,1-0.263,1.785-0.788,2.355s-1.222,0.855-2.089,0.855c-0.875,0-1.576-0.285-2.104-0.855
				s-0.791-1.355-0.791-2.355v-2.35c0-0.996,0.263-1.781,0.788-2.355s1.224-0.861,2.095-0.861c0.867,0,1.565,0.287,2.095,0.861
				s0.794,1.359,0.794,2.355V18.685z M404.899,16.159c0-0.547-0.104-0.971-0.313-1.271s-0.499-0.451-0.87-0.451
				c-0.375,0-0.665,0.15-0.87,0.451s-0.308,0.725-0.308,1.271v2.689c0,0.559,0.104,0.987,0.311,1.286s0.5,0.448,0.879,0.448
				c0.371,0,0.659-0.149,0.864-0.448s0.308-0.728,0.308-1.286V16.159z"/>
		</g>
		<g>
			<path d="M483.355,21.773h-1.705V14.73h-1.764v-1.307l3.469-0.305V21.773z"/>
			<path d="M491.904,18.685c0,1-0.263,1.785-0.788,2.355s-1.222,0.855-2.089,0.855c-0.875,0-1.576-0.285-2.104-0.855
				s-0.791-1.355-0.791-2.355v-2.35c0-0.996,0.263-1.781,0.788-2.355s1.224-0.861,2.095-0.861c0.867,0,1.565,0.287,2.095,0.861
				s0.794,1.359,0.794,2.355V18.685z M490.199,16.159c0-0.547-0.104-0.971-0.313-1.271s-0.499-0.451-0.87-0.451
				c-0.375,0-0.665,0.15-0.87,0.451s-0.308,0.725-0.308,1.271v2.689c0,0.559,0.104,0.987,0.311,1.286s0.5,0.448,0.879,0.448
				c0.371,0,0.659-0.149,0.864-0.448s0.308-0.728,0.308-1.286V16.159z"/>
			<path d="M498.789,18.685c0,1-0.263,1.785-0.788,2.355s-1.222,0.855-2.089,0.855c-0.875,0-1.576-0.285-2.104-0.855
				s-0.791-1.355-0.791-2.355v-2.35c0-0.996,0.263-1.781,0.788-2.355s1.224-0.861,2.095-0.861c0.867,0,1.565,0.287,2.095,0.861
				s0.794,1.359,0.794,2.355V18.685z M497.084,16.159c0-0.547-0.104-0.971-0.313-1.271s-0.499-0.451-0.87-0.451
				c-0.375,0-0.665,0.15-0.87,0.451s-0.308,0.725-0.308,1.271v2.689c0,0.559,0.104,0.987,0.311,1.286s0.5,0.448,0.879,0.448
				c0.371,0,0.659-0.149,0.864-0.448s0.308-0.728,0.308-1.286V16.159z"/>
		</g>
	</g>
	<line fill="none" stroke="#000000" stroke-miterlimit="10" x1="1" y1="3.104" x2="499.347" y2="3.104"/>
	<g>
		<g>
			<line fill="none" stroke="#000000" stroke-miterlimit="10" x1="1" y1="3.104" x2="1" y2="0"/>
			<line fill="none" stroke="#000000" stroke-miterlimit="10" x1="100.069" y1="3.104" x2="100.069" y2="0"/>
			<line fill="none" stroke="#000000" stroke-miterlimit="10" x1="200.139" y1="3.104" x2="200.139" y2="0"/>
			<line fill="none" stroke="#000000" stroke-miterlimit="10" x1="300.208" y1="3.104" x2="300.208" y2="0"/>
			<line fill="none" stroke="#000000" stroke-miterlimit="10" x1="400.276" y1="3.104" x2="400.276" y2="0"/>
			<line fill="none" stroke="#000000" stroke-miterlimit="10" x1="499.347" y1="3.104" x2="499.347" y2="0"/>
		</g>
		<g>
		</g>
	</g>
</g>
<rect y="93.493" opacity="0" fill="#202000" width="62.543" height="12.414"/>
<rect y="74.871" opacity="0.5" fill="#8F8F7F" width="62.543" height="12.414"/>
<rect y="56.249" opacity="0.8" fill="#202000" width="62.543" height="12.414"/>
<rect y="37.627" fill="#585840" width="62.543" height="12.414"/>
<g>
	<g>
		<g>
			<path fill="#202000" d="M71.118,46.938v-6.826h2.689c0.879,0,1.605,0.262,2.18,0.785s0.861,1.195,0.861,2.016v1.23
				c0,0.824-0.287,1.496-0.861,2.016s-1.301,0.779-2.18,0.779H71.118z M72.829,41.418v4.219h0.979c0.395,0,0.715-0.14,0.961-0.419
				s0.369-0.638,0.369-1.075v-1.236c0-0.434-0.123-0.79-0.369-1.069s-0.566-0.419-0.961-0.419H72.829z"/>
			<path fill="#202000" d="M82.661,44.055h-2.777v1.582h3.281v1.301h-4.992v-6.826h4.992v1.307h-3.281v1.324h2.777V44.055z"/>
			<path fill="#202000" d="M86.293,45.637h2.83v1.301h-4.541v-6.826h1.711V45.637z"/>
			<path fill="#202000" d="M91.895,46.938h-1.711v-6.826h1.711V46.938z"/>
			<path fill="#202000" d="M96.061,45.11l0.047,0.223h0.035l0.041-0.193l1.541-5.027h1.787l-2.455,6.826h-1.852l-2.461-6.826h1.799
				L96.061,45.11z"/>
			<path fill="#202000" d="M104.874,44.055h-2.777v1.582h3.281v1.301h-4.992v-6.826h4.992v1.307h-3.281v1.324h2.777V44.055z"/>
			<path fill="#202000" d="M108.506,44.489v2.449h-1.711v-6.826h2.707c0.84,0,1.509,0.186,2.007,0.557s0.747,0.875,0.747,1.512
				c0,0.371-0.101,0.693-0.302,0.967s-0.495,0.494-0.882,0.662c0.445,0.117,0.767,0.316,0.964,0.598s0.296,0.627,0.296,1.037v0.486
				c0,0.141,0.012,0.312,0.035,0.513s0.064,0.339,0.123,0.413v0.082h-1.764c-0.043-0.074-0.07-0.213-0.082-0.416
				s-0.018-0.402-0.018-0.598v-0.475c0-0.312-0.091-0.551-0.272-0.715s-0.448-0.246-0.8-0.246H108.506z M108.506,43.176h0.996
				c0.332,0,0.588-0.078,0.768-0.234s0.27-0.369,0.27-0.639c0-0.254-0.092-0.465-0.275-0.633s-0.438-0.252-0.762-0.252h-0.996
				V43.176z"/>
			<path fill="#202000" d="M118.233,44.055h-2.777v1.582h3.281v1.301h-4.992v-6.826h4.992v1.307h-3.281v1.324h2.777V44.055z"/>
			<path fill="#202000" d="M120.155,46.938v-6.826h2.689c0.879,0,1.605,0.262,2.18,0.785s0.861,1.195,0.861,2.016v1.23
				c0,0.824-0.287,1.496-0.861,2.016s-1.301,0.779-2.18,0.779H120.155z M121.866,41.418v4.219h0.979c0.395,0,0.715-0.14,0.961-0.419
				s0.369-0.638,0.369-1.075v-1.236c0-0.434-0.123-0.79-0.369-1.069s-0.566-0.419-0.961-0.419H121.866z"/>
		</g>
	</g>
	<g>
		<g>
			<path fill="#202000" d="M76.655,63.234l0.012,0.035c0.02,0.785-0.216,1.38-0.706,1.784s-1.188,0.606-2.095,0.606
				c-0.879,0-1.59-0.259-2.133-0.776s-0.814-1.192-0.814-2.024v-1.424c0-0.828,0.271-1.501,0.814-2.019s1.254-0.776,2.133-0.776
				c0.914,0,1.615,0.202,2.104,0.606s0.723,0.995,0.703,1.772l-0.012,0.035h-1.652c0-0.395-0.087-0.678-0.261-0.85
				s-0.468-0.258-0.882-0.258c-0.395,0-0.699,0.137-0.914,0.41s-0.322,0.631-0.322,1.072v1.43c0,0.449,0.107,0.812,0.322,1.087
				s0.52,0.413,0.914,0.413c0.406,0,0.696-0.088,0.87-0.264s0.261-0.463,0.261-0.861H76.655z"/>
			<path fill="#202000" d="M84.014,58.734v4.406c0,0.797-0.278,1.418-0.835,1.863s-1.296,0.668-2.218,0.668
				c-0.926,0-1.667-0.224-2.224-0.671s-0.835-1.067-0.835-1.86v-4.406h1.711v4.406c0,0.402,0.115,0.707,0.346,0.914
				s0.564,0.311,1.002,0.311s0.77-0.103,0.996-0.308s0.34-0.511,0.34-0.917v-4.406H84.014z"/>
			<path fill="#202000" d="M89.206,63.673c0-0.211-0.093-0.387-0.278-0.527s-0.522-0.266-1.011-0.375
				c-0.895-0.172-1.543-0.413-1.945-0.724s-0.604-0.78-0.604-1.409c0-0.574,0.243-1.051,0.729-1.43s1.142-0.568,1.966-0.568
				c0.859,0,1.529,0.193,2.01,0.58s0.711,0.908,0.691,1.564l-0.012,0.035H89.1c0-0.281-0.081-0.498-0.243-0.65
				s-0.427-0.229-0.794-0.229c-0.348,0-0.601,0.064-0.759,0.193s-0.237,0.293-0.237,0.492c0,0.227,0.088,0.406,0.264,0.539
				s0.539,0.256,1.09,0.369c0.84,0.172,1.465,0.416,1.875,0.732s0.615,0.777,0.615,1.383c0,0.609-0.26,1.099-0.779,1.468
				s-1.209,0.554-2.068,0.554c-0.914,0-1.635-0.193-2.162-0.58s-0.779-0.916-0.756-1.588l0.012-0.035h1.652
				c0.008,0.328,0.122,0.561,0.343,0.697s0.524,0.205,0.911,0.205c0.391,0,0.679-0.063,0.864-0.19S89.206,63.884,89.206,63.673z"/>
			<path fill="#202000" d="M97.391,60.04h-2.027v5.52h-1.717v-5.52h-1.998v-1.307h5.742V60.04z"/>
			<path fill="#202000" d="M104.194,62.859c0,0.832-0.283,1.509-0.85,2.03s-1.299,0.782-2.197,0.782s-1.632-0.261-2.2-0.782
				s-0.853-1.198-0.853-2.03v-1.424c0-0.828,0.282-1.501,0.847-2.019s1.298-0.776,2.2-0.776c0.898,0,1.632,0.26,2.2,0.779
				s0.853,1.191,0.853,2.016V62.859z M102.489,61.429c0-0.426-0.122-0.779-0.366-1.061s-0.571-0.422-0.981-0.422
				c-0.422,0-0.75,0.14-0.984,0.419s-0.352,0.634-0.352,1.063v1.43c0,0.438,0.118,0.798,0.354,1.081s0.565,0.425,0.987,0.425
				c0.414,0,0.741-0.142,0.981-0.425s0.36-0.644,0.36-1.081V61.429z"/>
			<path fill="#202000" d="M109.227,63.562h0.035l1.635-4.828h2.139v6.826h-1.705v-4.078l-0.035-0.006l-1.471,4.084h-1.148
				l-1.436-3.996l-0.035,0.006v3.99h-1.711v-6.826h2.121L109.227,63.562z"/>
			<path fill="#202000" d="M119.317,63.111v2.449h-1.711v-6.826h2.707c0.84,0,1.509,0.186,2.007,0.557s0.747,0.875,0.747,1.512
				c0,0.371-0.101,0.693-0.302,0.967s-0.495,0.494-0.882,0.662c0.445,0.117,0.767,0.316,0.964,0.598s0.296,0.627,0.296,1.037v0.486
				c0,0.141,0.012,0.312,0.035,0.513s0.064,0.339,0.123,0.413v0.082h-1.764c-0.043-0.074-0.07-0.213-0.082-0.416
				s-0.018-0.402-0.018-0.598v-0.475c0-0.312-0.091-0.551-0.272-0.715s-0.448-0.246-0.8-0.246H119.317z M119.317,61.798h0.996
				c0.332,0,0.588-0.078,0.768-0.234s0.27-0.369,0.27-0.639c0-0.254-0.092-0.465-0.275-0.633s-0.438-0.252-0.762-0.252h-0.996
				V61.798z"/>
			<path fill="#202000" d="M129.043,62.677h-2.777v1.582h3.281v1.301h-4.992v-6.826h4.992v1.307h-3.281v1.324h2.777V62.677z"/>
			<path fill="#202000" d="M132.676,64.259h2.83v1.301h-4.541v-6.826h1.711V64.259z"/>
			<path fill="#202000" d="M141.055,62.677h-2.777v1.582h3.281v1.301h-4.992v-6.826h4.992v1.307h-3.281v1.324h2.777V62.677z"/>
			<path fill="#202000" d="M147.202,64.347h-2.648l-0.434,1.213h-1.811l2.643-6.826h1.857l2.637,6.826h-1.805L147.202,64.347z
				 M145.022,63.034h1.711l-0.844-2.338h-0.035L145.022,63.034z"/>
			<path fill="#202000" d="M153.969,63.673c0-0.211-0.093-0.387-0.278-0.527s-0.522-0.266-1.011-0.375
				c-0.895-0.172-1.543-0.413-1.945-0.724s-0.604-0.78-0.604-1.409c0-0.574,0.243-1.051,0.729-1.43s1.142-0.568,1.966-0.568
				c0.859,0,1.529,0.193,2.01,0.58s0.711,0.908,0.691,1.564l-0.012,0.035h-1.652c0-0.281-0.081-0.498-0.243-0.65
				s-0.427-0.229-0.794-0.229c-0.348,0-0.601,0.064-0.759,0.193s-0.237,0.293-0.237,0.492c0,0.227,0.088,0.406,0.264,0.539
				s0.539,0.256,1.09,0.369c0.84,0.172,1.465,0.416,1.875,0.732s0.615,0.777,0.615,1.383c0,0.609-0.26,1.099-0.779,1.468
				s-1.209,0.554-2.068,0.554c-0.914,0-1.635-0.193-2.162-0.58s-0.779-0.916-0.756-1.588l0.012-0.035h1.652
				c0.008,0.328,0.122,0.561,0.343,0.697s0.524,0.205,0.911,0.205c0.391,0,0.679-0.063,0.864-0.19S153.969,63.884,153.969,63.673z"
				/>
			<path fill="#202000" d="M161.375,62.677h-2.777v1.582h3.281v1.301h-4.992v-6.826h4.992v1.307h-3.281v1.324h2.777V62.677z"/>
			<path fill="#202000" d="M163.297,65.56v-6.826h2.689c0.879,0,1.605,0.262,2.18,0.785s0.861,1.195,0.861,2.016v1.23
				c0,0.824-0.287,1.496-0.861,2.016s-1.301,0.779-2.18,0.779H163.297z M165.008,60.04v4.219h0.979c0.395,0,0.715-0.14,0.961-0.419
				s0.369-0.638,0.369-1.075v-1.236c0-0.434-0.123-0.79-0.369-1.069s-0.566-0.419-0.961-0.419H165.008z"/>
		</g>
	</g>
	<g>
		<g>
			<path fill="#202000" d="M75.342,82.969h-2.648l-0.434,1.213H70.45l2.643-6.826h1.857l2.637,6.826h-1.805L75.342,82.969z
				 M73.163,81.656h1.711l-0.844-2.338h-0.035L73.163,81.656z"/>
			<path fill="#202000" d="M80.088,81.733v2.449h-1.711v-6.826h2.707c0.84,0,1.509,0.186,2.007,0.557s0.747,0.875,0.747,1.512
				c0,0.371-0.101,0.693-0.302,0.967s-0.495,0.494-0.882,0.662c0.445,0.117,0.767,0.316,0.964,0.598s0.296,0.627,0.296,1.037v0.486
				c0,0.141,0.012,0.312,0.035,0.513s0.064,0.339,0.123,0.413v0.082h-1.764c-0.043-0.074-0.07-0.213-0.082-0.416
				s-0.018-0.402-0.018-0.598v-0.475c0-0.312-0.091-0.551-0.272-0.715s-0.448-0.246-0.8-0.246H80.088z M80.088,80.42h0.996
				c0.332,0,0.588-0.078,0.768-0.234s0.27-0.369,0.27-0.639c0-0.254-0.092-0.465-0.275-0.633s-0.438-0.252-0.762-0.252h-0.996V80.42
				z"/>
			<path fill="#202000" d="M87.038,81.733v2.449h-1.711v-6.826h2.707c0.84,0,1.509,0.186,2.007,0.557s0.747,0.875,0.747,1.512
				c0,0.371-0.101,0.693-0.302,0.967s-0.495,0.494-0.882,0.662c0.445,0.117,0.767,0.316,0.964,0.598s0.296,0.627,0.296,1.037v0.486
				c0,0.141,0.012,0.312,0.035,0.513s0.064,0.339,0.123,0.413v0.082h-1.764c-0.043-0.074-0.07-0.213-0.082-0.416
				s-0.018-0.402-0.018-0.598v-0.475c0-0.312-0.091-0.551-0.272-0.715s-0.448-0.246-0.8-0.246H87.038z M87.038,80.42h0.996
				c0.332,0,0.588-0.078,0.768-0.234s0.27-0.369,0.27-0.639c0-0.254-0.092-0.465-0.275-0.633s-0.438-0.252-0.762-0.252h-0.996V80.42
				z"/>
			<path fill="#202000" d="M93.987,84.182h-1.711v-6.826h1.711V84.182z"/>
			<path fill="#202000" d="M98.153,82.354l0.047,0.223h0.035l0.041-0.193l1.541-5.027h1.787l-2.455,6.826h-1.852l-2.461-6.826h1.799
				L98.153,82.354z"/>
			<path fill="#202000" d="M106.965,81.299h-2.777v1.582h3.281v1.301h-4.992v-6.826h4.992v1.307h-3.281v1.324h2.777V81.299z"/>
			<path fill="#202000" d="M108.887,84.182v-6.826h2.689c0.879,0,1.605,0.262,2.18,0.785s0.861,1.195,0.861,2.016v1.23
				c0,0.824-0.287,1.496-0.861,2.016s-1.301,0.779-2.18,0.779H108.887z M110.598,78.662v4.219h0.979c0.395,0,0.715-0.14,0.961-0.419
				s0.369-0.638,0.369-1.075v-1.236c0-0.434-0.123-0.79-0.369-1.069s-0.566-0.419-0.961-0.419H110.598z"/>
		</g>
	</g>
	<g>
		<g>
			<path fill="#202000" d="M71.118,102.804v-6.826h2.689c0.879,0,1.605,0.262,2.18,0.785s0.861,1.195,0.861,2.016v1.23
				c0,0.824-0.287,1.496-0.861,2.016s-1.301,0.779-2.18,0.779H71.118z M72.829,97.284v4.219h0.979c0.395,0,0.715-0.14,0.961-0.419
				s0.369-0.638,0.369-1.075v-1.236c0-0.434-0.123-0.79-0.369-1.069s-0.566-0.419-0.961-0.419H72.829z"/>
			<path fill="#202000" d="M82.661,99.921h-2.777v1.582h3.281v1.301h-4.992v-6.826h4.992v1.307h-3.281v1.324h2.777V99.921z"/>
			<path fill="#202000" d="M86.293,100.665v2.139h-1.711v-6.826h2.947c0.867,0,1.563,0.22,2.089,0.659s0.788,1.001,0.788,1.685
				c0,0.688-0.263,1.25-0.788,1.688s-1.222,0.656-2.089,0.656H86.293z M86.293,99.353h1.236c0.363,0,0.649-0.1,0.858-0.299
				s0.313-0.439,0.313-0.721c0-0.285-0.104-0.531-0.313-0.738s-0.495-0.311-0.858-0.311h-1.236V99.353z"/>
			<path fill="#202000" d="M95.504,101.591h-2.648l-0.434,1.213h-1.811l2.643-6.826h1.857l2.637,6.826h-1.805L95.504,101.591z
				 M93.325,100.279h1.711l-0.844-2.338h-0.035L93.325,100.279z"/>
			<path fill="#202000" d="M100.25,100.355v2.449H98.54v-6.826h2.707c0.84,0,1.509,0.186,2.007,0.557S104,97.409,104,98.046
				c0,0.371-0.101,0.693-0.302,0.967s-0.495,0.494-0.882,0.662c0.445,0.117,0.767,0.316,0.964,0.598s0.296,0.627,0.296,1.037v0.486
				c0,0.141,0.012,0.312,0.035,0.513s0.064,0.339,0.123,0.413v0.082h-1.764c-0.043-0.074-0.07-0.213-0.082-0.416
				s-0.018-0.402-0.018-0.598v-0.475c0-0.312-0.091-0.551-0.272-0.715s-0.448-0.246-0.8-0.246H100.25z M100.25,99.042h0.996
				c0.332,0,0.588-0.078,0.768-0.234s0.27-0.369,0.27-0.639c0-0.254-0.092-0.465-0.275-0.633s-0.438-0.252-0.762-0.252h-0.996
				V99.042z"/>
			<path fill="#202000" d="M110.674,97.284h-2.027v5.52h-1.717v-5.52h-1.998v-1.307h5.742V97.284z"/>
			<path fill="#202000" d="M116.2,99.921h-2.777v1.582h3.281v1.301h-4.992v-6.826h4.992v1.307h-3.281v1.324h2.777V99.921z"/>
			<path fill="#202000" d="M118.122,102.804v-6.826h2.689c0.879,0,1.605,0.262,2.18,0.785s0.861,1.195,0.861,2.016v1.23
				c0,0.824-0.287,1.496-0.861,2.016s-1.301,0.779-2.18,0.779H118.122z M119.833,97.284v4.219h0.979c0.395,0,0.715-0.14,0.961-0.419
				s0.369-0.638,0.369-1.075v-1.236c0-0.434-0.123-0.79-0.369-1.069s-0.566-0.419-0.961-0.419H119.833z"/>
		</g>
	</g>
</g>
</svg>
