<?xml version="1.0" encoding="utf-8"?>
<!-- Generator: Adobe Illustrator 16.0.0, SVG Export Plug-In . SVG Version: 6.00 Build 0)  -->
<!DOCTYPE svg PUBLIC "-//W3C//DTD SVG 1.1//EN" "http://www.w3.org/Graphics/SVG/1.1/DTD/svg11.dtd">
<svg version="1.1" id="Calque_1" xmlns="http://www.w3.org/2000/svg" xmlns:xlink="http://www.w3.org/1999/xlink" x="0px" y="0px"
	 width="500px" height="62px" viewBox="0 0 500 62" enable-background="new 0 0 500 62" xml:space="preserve">
<rect y="8.617" fill="#7FDF00" width="500" height="44.692"/>
<line fill="none" stroke="#000000" stroke-miterlimit="10" x1="0" y1="62" x2="0" y2="0"/>
<line fill="none" stroke="#000000" stroke-miterlimit="10" x1="0" y1="30.963" x2="12.509" y2="30.963"/>
<rect y="8.617" opacity="0" fill="#202000" width="70.048" height="44.692"/>
<rect x="70.048" y="8.617" opacity="0.5" fill="#8F8F7F" width="170.117" height="44.692"/>
<rect x="240.165" y="8.617" opacity="0.8" fill="#202000" width="140.099" height="44.692"/>
<rect x="380.264" y="8.617" fill="#585840" width="100.068" height="44.692"/>
<rect x="480.332" y="8.617" fill="#585840" width="19.668" height="44.692"/>
<g>
	<g opacity="0.5">
		<path fill="#FFFFFF" d="M459.757,36.651c0,2.2-1.8,4-4,4h-22c-2.2,0-4-1.8-4-4v-12c0-2.2,1.8-4,4-4h22c2.2,0,4,1.8,4,4V36.651z"/>
	</g>
	<g>
		<path fill="#202000" d="M438.355,34.632h-5.725v-1.119l2.643-2.988c0.395-0.465,0.675-0.858,0.841-1.181s0.249-0.618,0.249-0.888
			c0-0.352-0.088-0.633-0.264-0.844s-0.439-0.316-0.791-0.316c-0.371,0-0.658,0.135-0.861,0.404s-0.305,0.611-0.305,1.025h-1.664
			l-0.012-0.035c-0.02-0.758,0.23-1.399,0.75-1.925s1.217-0.788,2.092-0.788s1.555,0.224,2.039,0.671s0.727,1.048,0.727,1.802
			c0,0.512-0.136,0.979-0.407,1.4s-0.739,1.006-1.403,1.752l-1.406,1.688l0.012,0.029h3.486V34.632z"/>
		<path fill="#202000" d="M445.018,28.315c0,0.422-0.109,0.796-0.328,1.122s-0.52,0.581-0.902,0.765
			c0.465,0.191,0.834,0.466,1.107,0.823s0.41,0.767,0.41,1.228c0,0.789-0.274,1.403-0.823,1.843s-1.251,0.659-2.106,0.659
			c-0.895,0-1.629-0.22-2.203-0.659s-0.861-1.054-0.861-1.843c0-0.461,0.142-0.87,0.425-1.228s0.667-0.632,1.151-0.823
			c-0.402-0.184-0.718-0.438-0.946-0.765s-0.343-0.7-0.343-1.122c0-0.75,0.256-1.327,0.768-1.731s1.178-0.606,1.998-0.606
			c0.785,0,1.424,0.202,1.916,0.606S445.018,27.565,445.018,28.315z M443.594,32.171c0-0.379-0.118-0.69-0.354-0.935
			s-0.528-0.366-0.876-0.366c-0.383,0-0.701,0.122-0.955,0.366s-0.381,0.556-0.381,0.935c0,0.387,0.126,0.695,0.378,0.926
			s0.575,0.346,0.97,0.346c0.352,0,0.643-0.115,0.873-0.346S443.594,32.558,443.594,32.171z M443.312,28.392
			c0-0.336-0.088-0.603-0.264-0.8s-0.404-0.296-0.686-0.296c-0.32,0-0.576,0.097-0.768,0.29s-0.287,0.462-0.287,0.806
			c0,0.348,0.098,0.628,0.293,0.841s0.453,0.319,0.773,0.319c0.281,0,0.508-0.105,0.68-0.316S443.312,28.743,443.312,28.392z"/>
		<path fill="#202000" d="M449.26,27.741c0-0.504,0.163-0.924,0.489-1.26s0.78-0.504,1.362-0.504c0.59,0,1.047,0.167,1.371,0.501
			s0.486,0.755,0.486,1.263v0.451c0,0.504-0.162,0.922-0.486,1.254s-0.777,0.498-1.359,0.498c-0.586,0-1.043-0.166-1.371-0.498
			s-0.492-0.75-0.492-1.254V27.741z M450.396,28.192c0,0.227,0.062,0.417,0.188,0.571s0.305,0.231,0.539,0.231
			c0.227,0,0.401-0.077,0.524-0.231s0.185-0.345,0.185-0.571v-0.451c0-0.227-0.062-0.419-0.188-0.577s-0.303-0.237-0.533-0.237
			s-0.407,0.079-0.53,0.237s-0.185,0.351-0.185,0.577V28.192z M451.404,33.993l-0.832-0.439l4.166-6.668l0.832,0.439L451.404,33.993
			z M453.338,32.54c0-0.5,0.164-0.918,0.492-1.254s0.783-0.504,1.365-0.504c0.586,0,1.042,0.167,1.368,0.501
			s0.489,0.753,0.489,1.257v0.451c0,0.508-0.162,0.928-0.486,1.26s-0.777,0.498-1.359,0.498c-0.586,0-1.044-0.167-1.374-0.501
			s-0.495-0.753-0.495-1.257V32.54z M454.475,32.991c0,0.223,0.067,0.413,0.202,0.571s0.312,0.237,0.53,0.237
			c0.254,0,0.436-0.073,0.545-0.22s0.164-0.343,0.164-0.589V32.54c0-0.223-0.062-0.413-0.188-0.571s-0.303-0.237-0.533-0.237
			c-0.234,0-0.413,0.079-0.536,0.237s-0.185,0.349-0.185,0.571V32.991z"/>
	</g>
</g>
<g>
	<g opacity="0.5">
		<path fill="#FFFFFF" d="M324.354,36.651c0,2.2-1.8,4-4,4h-22c-2.2,0-4-1.8-4-4v-12c0-2.2,1.8-4,4-4h22c2.2,0,4,1.8,4,4V36.651z"/>
	</g>
	<g>
		<path fill="#202000" d="M302.953,34.632h-5.725v-1.119l2.643-2.988c0.395-0.465,0.675-0.858,0.841-1.181s0.249-0.618,0.249-0.888
			c0-0.352-0.088-0.633-0.264-0.844s-0.439-0.316-0.791-0.316c-0.371,0-0.658,0.135-0.861,0.404s-0.305,0.611-0.305,1.025h-1.664
			l-0.012-0.035c-0.02-0.758,0.23-1.399,0.75-1.925s1.217-0.788,2.092-0.788s1.555,0.224,2.039,0.671s0.727,1.048,0.727,1.802
			c0,0.512-0.136,0.979-0.407,1.4s-0.739,1.006-1.403,1.752l-1.406,1.688l0.012,0.029h3.486V34.632z"/>
		<path fill="#202000" d="M309.615,28.315c0,0.422-0.109,0.796-0.328,1.122s-0.52,0.581-0.902,0.765
			c0.465,0.191,0.834,0.466,1.107,0.823s0.41,0.767,0.41,1.228c0,0.789-0.274,1.403-0.823,1.843s-1.251,0.659-2.106,0.659
			c-0.895,0-1.629-0.22-2.203-0.659s-0.861-1.054-0.861-1.843c0-0.461,0.142-0.87,0.425-1.228s0.667-0.632,1.151-0.823
			c-0.402-0.184-0.718-0.438-0.946-0.765s-0.343-0.7-0.343-1.122c0-0.75,0.256-1.327,0.768-1.731s1.178-0.606,1.998-0.606
			c0.785,0,1.424,0.202,1.916,0.606S309.615,27.565,309.615,28.315z M308.191,32.171c0-0.379-0.118-0.69-0.354-0.935
			s-0.528-0.366-0.876-0.366c-0.383,0-0.701,0.122-0.955,0.366s-0.381,0.556-0.381,0.935c0,0.387,0.126,0.695,0.378,0.926
			s0.575,0.346,0.97,0.346c0.352,0,0.643-0.115,0.873-0.346S308.191,32.558,308.191,32.171z M307.91,28.392
			c0-0.336-0.088-0.603-0.264-0.8s-0.404-0.296-0.686-0.296c-0.32,0-0.576,0.097-0.768,0.29s-0.287,0.462-0.287,0.806
			c0,0.348,0.098,0.628,0.293,0.841s0.453,0.319,0.773,0.319c0.281,0,0.508-0.105,0.68-0.316S307.91,28.743,307.91,28.392z"/>
		<path fill="#202000" d="M313.857,27.741c0-0.504,0.163-0.924,0.489-1.26s0.78-0.504,1.362-0.504c0.59,0,1.047,0.167,1.371,0.501
			s0.486,0.755,0.486,1.263v0.451c0,0.504-0.162,0.922-0.486,1.254s-0.777,0.498-1.359,0.498c-0.586,0-1.043-0.166-1.371-0.498
			s-0.492-0.75-0.492-1.254V27.741z M314.994,28.192c0,0.227,0.062,0.417,0.188,0.571s0.305,0.231,0.539,0.231
			c0.227,0,0.401-0.077,0.524-0.231s0.185-0.345,0.185-0.571v-0.451c0-0.227-0.062-0.419-0.188-0.577s-0.303-0.237-0.533-0.237
			s-0.407,0.079-0.53,0.237s-0.185,0.351-0.185,0.577V28.192z M316.002,33.993l-0.832-0.439l4.166-6.668l0.832,0.439L316.002,33.993
			z M317.936,32.54c0-0.5,0.164-0.918,0.492-1.254s0.783-0.504,1.365-0.504c0.586,0,1.042,0.167,1.368,0.501
			s0.489,0.753,0.489,1.257v0.451c0,0.508-0.162,0.928-0.486,1.26s-0.777,0.498-1.359,0.498c-0.586,0-1.044-0.167-1.374-0.501
			s-0.495-0.753-0.495-1.257V32.54z M319.072,32.991c0,0.223,0.067,0.413,0.202,0.571s0.312,0.237,0.53,0.237
			c0.254,0,0.436-0.073,0.545-0.22s0.164-0.343,0.164-0.589V32.54c0-0.223-0.062-0.413-0.188-0.571s-0.303-0.237-0.533-0.237
			c-0.234,0-0.413,0.079-0.536,0.237s-0.185,0.349-0.185,0.571V32.991z"/>
	</g>
</g>
<g>
	<g opacity="0.5">
		<path fill="#FFFFFF" d="M168.372,36.651c0,2.2-1.8,4-4,4h-22c-2.2,0-4-1.8-4-4v-12c0-2.2,1.8-4,4-4h22c2.2,0,4,1.8,4,4V36.651z"/>
	</g>
	<g>
		<path fill="#202000" d="M143.953,29.616c0.406,0,0.708-0.105,0.905-0.316s0.296-0.508,0.296-0.891c0-0.32-0.104-0.586-0.311-0.797
			s-0.496-0.316-0.867-0.316c-0.312,0-0.575,0.096-0.788,0.287s-0.319,0.436-0.319,0.732h-1.652l-0.012-0.035
			c-0.023-0.668,0.234-1.219,0.773-1.652s1.205-0.65,1.998-0.65c0.883,0,1.584,0.208,2.104,0.624s0.779,1.013,0.779,1.79
			c0,0.391-0.112,0.749-0.337,1.075s-0.532,0.583-0.923,0.771c0.445,0.168,0.789,0.423,1.031,0.765s0.363,0.755,0.363,1.239
			c0,0.781-0.282,1.396-0.847,1.843s-1.288,0.671-2.171,0.671c-0.777,0-1.457-0.211-2.039-0.633s-0.863-1.014-0.844-1.775
			l0.012-0.035h1.664c0,0.32,0.112,0.589,0.337,0.806s0.515,0.325,0.87,0.325c0.391,0,0.707-0.115,0.949-0.346
			s0.363-0.521,0.363-0.873c0-0.449-0.113-0.782-0.34-0.999s-0.559-0.325-0.996-0.325h-0.943v-1.283H143.953z"/>
		<path fill="#202000" d="M153.041,31.456h0.961v1.324h-0.961v1.852h-1.711V32.78h-3.475l-0.082-1.025l3.539-5.654h1.729V31.456z
			 M149.326,31.456h2.004v-3.1l-0.035-0.006l-0.176,0.381L149.326,31.456z"/>
		<path fill="#202000" d="M157.875,27.741c0-0.504,0.163-0.924,0.489-1.26s0.78-0.504,1.362-0.504c0.59,0,1.047,0.167,1.371,0.501
			s0.486,0.755,0.486,1.263v0.451c0,0.504-0.162,0.922-0.486,1.254s-0.777,0.498-1.359,0.498c-0.586,0-1.043-0.166-1.371-0.498
			s-0.492-0.75-0.492-1.254V27.741z M159.012,28.192c0,0.227,0.062,0.417,0.188,0.571s0.305,0.231,0.539,0.231
			c0.227,0,0.401-0.077,0.524-0.231s0.185-0.345,0.185-0.571v-0.451c0-0.227-0.062-0.419-0.188-0.577s-0.303-0.237-0.533-0.237
			s-0.407,0.079-0.53,0.237s-0.185,0.351-0.185,0.577V28.192z M160.02,33.993l-0.832-0.439l4.166-6.668l0.832,0.439L160.02,33.993z
			 M161.953,32.54c0-0.5,0.164-0.918,0.492-1.254s0.783-0.504,1.365-0.504c0.586,0,1.042,0.167,1.368,0.501s0.489,0.753,0.489,1.257
			v0.451c0,0.508-0.162,0.928-0.486,1.26s-0.777,0.498-1.359,0.498c-0.586,0-1.044-0.167-1.374-0.501s-0.495-0.753-0.495-1.257
			V32.54z M163.09,32.991c0,0.223,0.067,0.413,0.202,0.571s0.312,0.237,0.53,0.237c0.254,0,0.436-0.073,0.545-0.22
			s0.164-0.343,0.164-0.589V32.54c0-0.223-0.062-0.413-0.188-0.571s-0.303-0.237-0.533-0.237c-0.234,0-0.413,0.079-0.536,0.237
			s-0.185,0.349-0.185,0.571V32.991z"/>
	</g>
</g>
<g>
	<g opacity="0.5">
		<path fill="#FFFFFF" d="M53.452,36.651c0,2.2-1.8,4-4,4h-22c-2.2,0-4-1.8-4-4v-12c0-2.2,1.8-4,4-4h22c2.2,0,4,1.8,4,4V36.651z"/>
	</g>
	<g>
		<path fill="#202000" d="M30.305,34.632H28.6v-7.043h-1.764v-1.307l3.469-0.305V34.632z"/>
		<path fill="#202000" d="M38.121,31.456h0.961v1.324h-0.961v1.852H36.41V32.78h-3.475l-0.082-1.025l3.539-5.654h1.729V31.456z
			 M34.406,31.456h2.004v-3.1l-0.035-0.006l-0.176,0.381L34.406,31.456z"/>
		<path fill="#202000" d="M42.955,27.741c0-0.504,0.163-0.924,0.489-1.26s0.78-0.504,1.362-0.504c0.59,0,1.047,0.167,1.371,0.501
			s0.486,0.755,0.486,1.263v0.451c0,0.504-0.162,0.922-0.486,1.254s-0.777,0.498-1.359,0.498c-0.586,0-1.043-0.166-1.371-0.498
			s-0.492-0.75-0.492-1.254V27.741z M44.092,28.192c0,0.227,0.062,0.417,0.188,0.571s0.305,0.231,0.539,0.231
			c0.227,0,0.401-0.077,0.524-0.231s0.185-0.345,0.185-0.571v-0.451c0-0.227-0.062-0.419-0.188-0.577s-0.303-0.237-0.533-0.237
			s-0.407,0.079-0.53,0.237s-0.185,0.351-0.185,0.577V28.192z M45.1,33.993l-0.832-0.439l4.166-6.668l0.832,0.439L45.1,33.993z
			 M47.033,32.54c0-0.5,0.164-0.918,0.492-1.254s0.783-0.504,1.365-0.504c0.586,0,1.042,0.167,1.368,0.501s0.489,0.753,0.489,1.257
			v0.451c0,0.508-0.162,0.928-0.486,1.26s-0.777,0.498-1.359,0.498c-0.586,0-1.044-0.167-1.374-0.501s-0.495-0.753-0.495-1.257
			V32.54z M48.17,32.991c0,0.223,0.067,0.413,0.202,0.571s0.312,0.237,0.53,0.237c0.254,0,0.436-0.073,0.545-0.22
			s0.164-0.343,0.164-0.589V32.54c0-0.223-0.062-0.413-0.188-0.571s-0.303-0.237-0.533-0.237c-0.234,0-0.413,0.079-0.536,0.237
			s-0.185,0.349-0.185,0.571V32.991z"/>
	</g>
</g>
</svg>
