<svg xmlns="http://www.w3.org/2000/svg" version="1.1" id="Calque_1" x="0px" y="0px" width="55px" height="55px" viewBox="0 0 55 55" enable-background="new 0 0 55 55" xml:space="preserve">
  <rect x="15.5" y="15.5" fill="#202000" width="4" height="4"/>
  <path fill="#202000" d="M23.5 11.5h-12v12h12V11.5zM21.5 21.5h-8v-8h8V21.5z"/>
  <rect x="35.5" y="15.5" fill="#202000" width="4" height="4"/>
  <path fill="#202000" d="M31.5 11.5v12h12v-12H31.5zM41.5 21.5h-8v-8h8V21.5z"/>
  <rect x="15.5" y="35.5" fill="#202000" width="4" height="4"/>
  <path fill="#202000" d="M11.5 43.5h12v-12h-12V43.5zM13.5 33.5h8v8h-8V33.5z"/>
  <polygon fill="#202000" points="25.5,33.5 25.5,35.5 27.501,35.5 27.501,39.5 29.5,39.5 29.5,31.5 27.501,31.5 27.501,33.5        "/>
  <path fill="#202000" d="M39.5 31.5h-2v2h2v4h-2v-4h-4v-4h2v2h2v-2h2v-2h-2v-2h-2v2h-2v-2h-4v-4h-1.999v2h-2v2h2v4H31.5v10h2v2h-2v2h4v-2h2v-2h2v2h-1.75v2h5.75v-4h-2v-4h2v-2h-2v-4h-2V31.5zM33.5 35.5h2v2h-2V35.5z"/>
  <polygon fill="#202000" points="29.5,17.5 29.5,11.5 25.5,11.5 25.5,13.5 27.501,13.5 27.501,15.5 25.5,15.5 25.5,21.5     27.501,21.5 27.501,17.5    "/>
  <rect x="17.5" y="25.5" fill="#202000" width="2" height="2"/>
  <polygon fill="#202000" points="21.5,25.5 21.5,27.5 19.5,27.5 19.5,29.5 23.5,29.5 23.5,27.5 25.5,27.5 25.5,25.5    "/>
  <polygon fill="#202000" points="39.5,25.5 39.5,27.5 41.5,27.5 41.5,29.5 43.5,29.5 43.5,25.5    "/>
  <rect x="25.5" y="29.5" fill="#202000" width="2" height="2"/>
  <rect x="25.5" y="39.5" fill="#202000" width="2" height="2"/>
  <rect x="27.501" y="41.5" fill="#202000" width="1.999" height="2"/>
  <polygon fill="#202000" points="15.5,25.5 11.5,25.5 11.5,29.5 17.5,29.5 17.5,27.5 15.5,27.5    "/>
</svg>