<svg xmlns="http://www.w3.org/2000/svg" version="1.1" id="Calque_1" x="0px" y="0px" width="55px" height="55px" viewBox="0 0 55 55" enable-background="new 0 0 55 55" xml:space="preserve">
        <rect x="19.137" y="23.385" transform="matrix(-0.707 -0.7072 0.7072 -0.707 18.5061 71.8506)" fill="#202000" width="10" height="17.414"/>
        <polygon fill="#202000" points="12.516,43.5 18.516,43.5 12.516,37.5    "/>
        <path fill="#202000" d="M41.898 18.57l-4.242-4.243c-0.781-0.781-2.047-0.781-2.828 0l-1.414 1.415L29.172 11.5l-8.629 8.627c-1.113-0.525-2.473-0.355-3.391 0.564 -1.172 1.172-1.172 3.074 0 4.244 0.246 0.248 0.535 0.432 0.836 0.576l3.984-3.982h-0.004l7.203-7.201L32 17.156l-2.828 2.828 7.07 7.071 5.656-5.657C42.68 20.617 42.68 19.352 41.898 18.57z"/>
</svg>