<?xml version="1.0" encoding="utf-8"?>
<!-- Generator: Adobe Illustrator 16.0.0, SVG Export Plug-In . SVG Version: 6.00 Build 0)  -->
<!DOCTYPE svg PUBLIC "-//W3C//DTD SVG 1.1//EN" "http://www.w3.org/Graphics/SVG/1.1/DTD/svg11.dtd">
<svg version="1.1" id="Calque_1" xmlns="http://www.w3.org/2000/svg" xmlns:xlink="http://www.w3.org/1999/xlink" x="0px" y="0px"
	 width="268px" height="200px" viewBox="0 0 268 200" enable-background="new 0 0 268 200" xml:space="preserve">
<g>
	<g>
	</g>
	<g>
	</g>
	<g>
	</g>
</g>
<g>
	<g>
	</g>
	<g>
	</g>
	<g>
	</g>
	<g>
	</g>
</g>
<g>
	<g>
	</g>
	<g>
	</g>
	<g>
	</g>
	<g>
	</g>
	<g>
	</g>
</g>
<g>
	<g>
	</g>
	<g>
	</g>
	<g>
	</g>
</g>
<rect x="55.278" y="82.508" fill="#FFCC33" width="10" height="66.76"/>
<g>
	<rect x="32.39" y="6.211" fill="#FFCC33" width="10" height="143.056"/>
	<rect x="78.167" y="63.434" fill="#FFCC33" width="10" height="85.833"/>
	<rect x="101.056" y="53.897" fill="#FFCC33" width="10" height="95.371"/>
	<rect x="123.945" y="111.119" fill="#FFCC33" width="10" height="38.148"/>
</g>
<rect x="162.826" y="27.67" fill="#FFCC33" width="17.881" height="14.307"/>
<rect x="162.826" y="6.211" fill="#FFCC33" width="17.881" height="14.305"/>
<g>
	<line fill="#202000" x1="16.939" y1="149.268" x2="159.995" y2="149.268"/>
	<g>
		<g>
			<line fill="#202000" x1="16.939" y1="149.268" x2="16.939" y2="145.689"/>
			<line fill="#202000" x1="150.995" y1="149.268" x2="150.995" y2="145.689"/>
		</g>
		<g>
		</g>
	</g>
</g>
<g>
	<g>
		<g>
			<g>
				<path fill="#202000" d="M11.147,148.693c0,1-0.263,1.785-0.788,2.355s-1.222,0.855-2.089,0.855
					c-0.875,0-1.576-0.285-2.104-0.855s-0.791-1.355-0.791-2.355v-2.35c0-0.996,0.263-1.781,0.788-2.355s1.224-0.861,2.095-0.861
					c0.867,0,1.565,0.287,2.095,0.861s0.794,1.359,0.794,2.355V148.693z M9.442,146.168c0-0.547-0.104-0.971-0.313-1.271
					s-0.499-0.451-0.87-0.451c-0.375,0-0.665,0.15-0.87,0.451s-0.308,0.725-0.308,1.271v2.689c0,0.559,0.104,0.987,0.311,1.286
					s0.5,0.448,0.879,0.448c0.371,0,0.659-0.149,0.864-0.448s0.308-0.728,0.308-1.286V146.168z"/>
			</g>
		</g>
		<g>
			<g>
				<path fill="#202000" d="M8.212,118.154c0.406,0,0.708-0.105,0.905-0.316s0.296-0.508,0.296-0.891
					c0-0.32-0.104-0.586-0.311-0.797s-0.496-0.316-0.867-0.316c-0.312,0-0.575,0.096-0.788,0.287s-0.319,0.436-0.319,0.732H5.476
					l-0.012-0.035c-0.023-0.668,0.234-1.219,0.773-1.652s1.205-0.65,1.998-0.65c0.883,0,1.584,0.208,2.104,0.624
					s0.779,1.013,0.779,1.79c0,0.391-0.112,0.749-0.337,1.075s-0.532,0.583-0.923,0.771c0.445,0.168,0.789,0.423,1.031,0.765
					s0.363,0.755,0.363,1.239c0,0.781-0.282,1.396-0.847,1.843s-1.288,0.671-2.171,0.671c-0.777,0-1.457-0.211-2.039-0.633
					s-0.863-1.014-0.844-1.775l0.012-0.035h1.664c0,0.32,0.112,0.589,0.337,0.806s0.515,0.325,0.87,0.325
					c0.391,0,0.707-0.115,0.949-0.346s0.363-0.521,0.363-0.873c0-0.449-0.113-0.782-0.34-0.999s-0.559-0.325-0.996-0.325H7.269
					v-1.283H8.212z"/>
			</g>
		</g>
		<g>
			<g>
				<path fill="#202000" d="M8.739,85.904c0.332,0,0.64,0.03,0.923,0.091s0.563,0.149,0.841,0.267l-0.305,1.254
					c-0.266-0.09-0.504-0.157-0.715-0.202s-0.455-0.067-0.732-0.067c-0.5,0-0.903,0.191-1.21,0.574s-0.46,0.916-0.46,1.6v0.275
					c0.227-0.223,0.497-0.396,0.812-0.519s0.665-0.185,1.052-0.185c0.73,0,1.301,0.259,1.711,0.776s0.615,1.192,0.615,2.024
					c0,0.855-0.266,1.551-0.797,2.086s-1.225,0.803-2.08,0.803c-0.891,0-1.616-0.305-2.177-0.914s-0.841-1.443-0.841-2.502v-1.787
					c0-1.082,0.317-1.948,0.952-2.599S7.767,85.904,8.739,85.904z M8.376,90.287c-0.309,0-0.571,0.05-0.788,0.149
					s-0.386,0.237-0.507,0.413v0.457c0,0.656,0.12,1.164,0.36,1.523s0.558,0.539,0.952,0.539c0.355,0,0.639-0.149,0.85-0.448
					s0.316-0.675,0.316-1.128c0-0.469-0.106-0.837-0.319-1.104S8.739,90.287,8.376,90.287z"/>
			</g>
		</g>
		<g>
			<g>
				<path fill="#202000" d="M7.937,64.759c0.422,0,0.768-0.159,1.037-0.478s0.404-0.763,0.404-1.333v-0.551
					c-0.191,0.246-0.418,0.432-0.68,0.557s-0.543,0.188-0.844,0.188c-0.793,0-1.415-0.258-1.866-0.773s-0.677-1.217-0.677-2.104
					c0-0.855,0.268-1.564,0.803-2.127s1.219-0.844,2.051-0.844c0.859,0,1.561,0.289,2.104,0.867s0.814,1.379,0.814,2.402v2.297
					c0,0.984-0.296,1.766-0.888,2.344s-1.345,0.867-2.259,0.867c-0.297,0-0.603-0.032-0.917-0.097s-0.61-0.155-0.888-0.272
					l0.287-1.236c0.246,0.102,0.486,0.176,0.721,0.223S7.64,64.759,7.937,64.759z M8.142,61.888c0.277,0,0.521-0.057,0.732-0.17
					s0.379-0.266,0.504-0.457v-0.996c0-0.535-0.109-0.944-0.328-1.228s-0.512-0.425-0.879-0.425c-0.344,0-0.621,0.159-0.832,0.478
					s-0.316,0.71-0.316,1.175c0,0.488,0.096,0.881,0.287,1.178S7.778,61.888,8.142,61.888z"/>
			</g>
		</g>
		<g>
			<g>
				<path fill="#202000" d="M2.599,37.337H0.894v-7.043H-0.87v-1.307l3.469-0.305V37.337z"/>
				<path fill="#202000" d="M11.229,37.337H5.505v-1.119l2.643-2.988c0.395-0.465,0.675-0.858,0.841-1.181s0.249-0.618,0.249-0.888
					c0-0.352-0.088-0.633-0.264-0.844s-0.439-0.316-0.791-0.316c-0.371,0-0.658,0.135-0.861,0.404s-0.305,0.611-0.305,1.025H5.353
					l-0.012-0.035c-0.02-0.758,0.23-1.399,0.75-1.925s1.217-0.788,2.092-0.788s1.555,0.224,2.039,0.671s0.727,1.048,0.727,1.802
					c0,0.512-0.136,0.979-0.407,1.4s-0.739,1.006-1.403,1.752l-1.406,1.688l0.012,0.029h3.486V37.337z"/>
			</g>
		</g>
		<g>
			<g>
				<path fill="#202000" d="M2.599,8.726H0.894V1.683H-0.87V0.376l3.469-0.305V8.726z"/>
				<path fill="#202000" d="M5.634,4.964l0.492-4.77h4.758v1.371H7.526L7.292,3.558c0.16-0.117,0.361-0.214,0.604-0.29
					s0.506-0.118,0.791-0.126c0.793-0.012,1.407,0.233,1.843,0.735s0.653,1.206,0.653,2.112c0,0.836-0.236,1.521-0.709,2.057
					S9.278,8.849,8.306,8.849c-0.785,0-1.457-0.208-2.016-0.624S5.462,7.237,5.481,6.511l0.012-0.029L7.14,6.405
					c0,0.355,0.107,0.633,0.322,0.832s0.496,0.299,0.844,0.299c0.406,0,0.702-0.133,0.888-0.398s0.278-0.645,0.278-1.137
					S9.37,5.117,9.167,4.826S8.663,4.39,8.265,4.39c-0.328,0-0.579,0.061-0.753,0.182S7.214,4.856,7.14,5.063L5.634,4.964z"/>
			</g>
		</g>
	</g>
	<line fill="#202000" x1="16.939" y1="149.268" x2="16.939" y2="6.211"/>
	<g>
		<g>
			<line fill="#202000" x1="16.939" y1="149.268" x2="20.517" y2="149.268"/>
			<line fill="#202000" x1="16.939" y1="120.656" x2="20.517" y2="120.656"/>
			<line fill="#202000" x1="16.939" y1="92.045" x2="20.517" y2="92.045"/>
			<line fill="#202000" x1="16.939" y1="63.434" x2="20.517" y2="63.434"/>
			<line fill="#202000" x1="16.939" y1="34.823" x2="20.517" y2="34.823"/>
			<line fill="#202000" x1="16.939" y1="6.211" x2="20.517" y2="6.211"/>
		</g>
		<g>
		</g>
	</g>
</g>
<g>
	<g>
		<rect x="32.39" y="6.211" fill="#9F9F8F" width="10" height="143.056"/>
	</g>
	<g>
		<rect x="55.278" y="82.508" fill="#9F9F8F" width="10" height="66.76"/>
	</g>
	<g>
		<rect x="78.167" y="63.434" fill="#9F9F8F" width="10" height="85.833"/>
	</g>
	<g>
		<rect x="162.826" y="27.67" fill="#9F9F8F" width="17.882" height="14.305"/>
		<rect x="101.056" y="53.897" fill="#9F9F8F" width="10" height="95.371"/>
	</g>
	<g>
		<rect x="162.826" y="6.211" opacity="0" fill="#202000" width="17.882" height="14.305"/>
		<rect x="123.945" y="111.119" fill="#9F9F8F" width="10" height="38.148"/>
	</g>
</g>
<rect x="65.278" y="94.559" fill="#FFCC33" width="10" height="54.709"/>
<g>
	<rect x="42.39" y="24.32" fill="#FFCC33" width="10" height="124.948"/>
	<rect x="88.167" y="106.352" fill="#FFCC33" width="10" height="42.916"/>
</g>
<g>
	<g opacity="0">
		<rect x="42.39" y="24.32" fill="#202000" width="10" height="124.948"/>
	</g>
	<g opacity="0">
		<rect x="65.278" y="94.559" fill="#202000" width="10" height="54.709"/>
	</g>
	<g opacity="0">
		<rect x="88.167" y="106.352" fill="#202000" width="10" height="42.916"/>
	</g>
</g>
<g>
	<path fill="#202000" d="M196.423,14.665h-2.648l-0.434,1.213h-1.811l2.643-6.826h1.857l2.637,6.826h-1.805L196.423,14.665z
		 M194.243,13.353h1.711l-0.844-2.338h-0.035L194.243,13.353z"/>
	<path fill="#202000" d="M204.913,13.552l0.012,0.035c0.02,0.785-0.216,1.38-0.706,1.784s-1.188,0.606-2.095,0.606
		c-0.879,0-1.59-0.259-2.133-0.776s-0.814-1.192-0.814-2.024v-1.424c0-0.828,0.271-1.501,0.814-2.019s1.254-0.776,2.133-0.776
		c0.914,0,1.615,0.202,2.104,0.606s0.723,0.995,0.703,1.772l-0.012,0.035h-1.652c0-0.395-0.087-0.678-0.261-0.85
		s-0.468-0.258-0.882-0.258c-0.395,0-0.699,0.137-0.914,0.41s-0.322,0.631-0.322,1.072v1.43c0,0.449,0.107,0.812,0.322,1.087
		s0.52,0.413,0.914,0.413c0.406,0,0.696-0.088,0.87-0.264s0.261-0.463,0.261-0.861H204.913z"/>
	<path fill="#202000" d="M211.522,10.358h-2.027v5.52h-1.717v-5.52h-1.998V9.052h5.742V10.358z"/>
	<path fill="#202000" d="M218.577,9.052v4.406c0,0.797-0.278,1.418-0.835,1.863s-1.296,0.668-2.218,0.668
		c-0.926,0-1.667-0.224-2.224-0.671s-0.835-1.067-0.835-1.86V9.052h1.711v4.406c0,0.402,0.115,0.707,0.346,0.914
		s0.564,0.311,1.002,0.311s0.77-0.103,0.996-0.308s0.34-0.511,0.34-0.917V9.052H218.577z"/>
	<path fill="#202000" d="M224.161,14.665h-2.648l-0.434,1.213h-1.811l2.643-6.826h1.857l2.637,6.826h-1.805L224.161,14.665z
		 M221.981,13.353h1.711l-0.844-2.338h-0.035L221.981,13.353z"/>
	<path fill="#202000" d="M228.907,14.577h2.83v1.301h-4.541V9.052h1.711V14.577z"/>
</g>
<g>
	<path fill="#202000" d="M193.909,35.198v2.139h-1.711v-6.826h2.947c0.867,0,1.563,0.22,2.089,0.659s0.788,1.001,0.788,1.685
		c0,0.688-0.263,1.25-0.788,1.688s-1.222,0.656-2.089,0.656H193.909z M193.909,33.886h1.236c0.363,0,0.649-0.1,0.858-0.299
		s0.313-0.439,0.313-0.721c0-0.285-0.104-0.531-0.313-0.738s-0.495-0.311-0.858-0.311h-1.236V33.886z"/>
	<path fill="#202000" d="M200.858,36.036h2.83v1.301h-4.541v-6.826h1.711V36.036z"/>
	<path fill="#202000" d="M209.073,36.124h-2.648l-0.434,1.213h-1.811l2.643-6.826h1.857l2.637,6.826h-1.805L209.073,36.124z
		 M206.894,34.812h1.711l-0.844-2.338h-0.035L206.894,34.812z"/>
	<path fill="#202000" d="M218.226,37.337h-1.711l-2.66-4.201l-0.035,0.012v4.189h-1.711v-6.826h1.711l2.66,4.195l0.035-0.012v-4.184
		h1.711V37.337z"/>
	<path fill="#202000" d="M225.948,37.337h-1.711l-2.66-4.201l-0.035,0.012v4.189h-1.711v-6.826h1.711l2.66,4.195l0.035-0.012v-4.184
		h1.711V37.337z"/>
	<path fill="#202000" d="M232.042,34.454h-2.777v1.582h3.281v1.301h-4.992v-6.826h4.992v1.307h-3.281v1.324h2.777V34.454z"/>
	<path fill="#202000" d="M233.964,37.337v-6.826h2.689c0.879,0,1.605,0.262,2.18,0.785s0.861,1.195,0.861,2.016v1.23
		c0,0.824-0.287,1.496-0.861,2.016s-1.301,0.779-2.18,0.779H233.964z M235.675,31.817v4.219h0.979c0.395,0,0.715-0.14,0.961-0.419
		s0.369-0.638,0.369-1.075v-1.236c0-0.434-0.123-0.79-0.369-1.069s-0.566-0.419-0.961-0.419H235.675z"/>
</g>
<g>
	<path fill="#202000" d="M40.436,159.451c0.195-0.338,0.465-0.553,0.81-0.643c0.345-0.089,0.699-0.029,1.061,0.18
		c0.372,0.215,0.606,0.493,0.702,0.835c0.096,0.342,0.045,0.684-0.152,1.025l-0.264,0.456c-0.197,0.342-0.465,0.555-0.805,0.639
		s-0.693,0.02-1.062-0.193c-0.369-0.213-0.602-0.488-0.7-0.827c-0.098-0.339-0.049-0.677,0.146-1.015L40.436,159.451z"/>
	<path fill="#202000" d="M49.269,170.004l-4.958-2.862l0.56-0.97l3.783-1.266c0.574-0.206,1.014-0.406,1.318-0.603
		c0.305-0.196,0.525-0.411,0.66-0.645c0.176-0.304,0.24-0.592,0.193-0.862s-0.222-0.494-0.527-0.67
		c-0.321-0.186-0.637-0.212-0.948-0.08c-0.311,0.132-0.57,0.377-0.777,0.735l-1.441-0.832l0.007-0.036
		c0.362-0.666,0.899-1.097,1.612-1.292c0.713-0.195,1.448-0.074,2.206,0.363s1.235,0.972,1.431,1.601
		c0.196,0.63,0.105,1.271-0.272,1.924c-0.256,0.443-0.606,0.779-1.053,1.01c-0.446,0.229-1.143,0.501-2.091,0.814l-2.062,0.759
		l-0.004,0.031l3.019,1.743L49.269,170.004z"/>
	<path fill="#202000" d="M52.266,167.391l2.811-3.885l4.12,2.379l-0.686,1.188l-2.908-1.679l-1.199,1.608
		c0.197-0.021,0.419-0.005,0.667,0.051c0.248,0.055,0.497,0.15,0.748,0.286c0.692,0.386,1.102,0.905,1.228,1.558
		c0.126,0.652-0.037,1.371-0.49,2.156c-0.418,0.725-0.965,1.199-1.642,1.427c-0.677,0.228-1.437,0.098-2.279-0.389
		c-0.68-0.393-1.158-0.909-1.433-1.548c-0.276-0.641-0.224-1.27,0.156-1.889l0.025-0.02l1.464,0.757
		c-0.178,0.308-0.223,0.603-0.137,0.882c0.086,0.28,0.28,0.507,0.581,0.681c0.352,0.203,0.675,0.236,0.968,0.099
		c0.293-0.137,0.563-0.419,0.81-0.846c0.246-0.426,0.354-0.815,0.323-1.169s-0.218-0.63-0.563-0.829
		c-0.284-0.164-0.532-0.237-0.743-0.219c-0.211,0.018-0.4,0.098-0.568,0.24L52.266,167.391z"/>
</g>
<g>
	<path fill="#202000" d="M63.325,159.451c0.195-0.338,0.465-0.553,0.81-0.643c0.345-0.089,0.699-0.029,1.061,0.18
		c0.372,0.215,0.606,0.493,0.702,0.835c0.096,0.342,0.045,0.684-0.152,1.025l-0.264,0.456c-0.197,0.342-0.465,0.555-0.805,0.639
		s-0.693,0.02-1.062-0.193c-0.369-0.213-0.602-0.488-0.7-0.827c-0.098-0.339-0.049-0.677,0.146-1.015L63.325,159.451z"/>
	<path fill="#202000" d="M72.157,170.004l-4.958-2.862l0.56-0.97l3.783-1.266c0.574-0.206,1.014-0.406,1.318-0.603
		c0.305-0.196,0.525-0.411,0.66-0.645c0.176-0.304,0.24-0.592,0.193-0.862s-0.222-0.494-0.527-0.67
		c-0.321-0.186-0.637-0.212-0.948-0.08c-0.311,0.132-0.57,0.377-0.777,0.735l-1.441-0.832l0.007-0.036
		c0.362-0.666,0.899-1.097,1.612-1.292c0.713-0.195,1.448-0.074,2.206,0.363s1.235,0.972,1.431,1.601
		c0.196,0.63,0.105,1.271-0.272,1.924c-0.256,0.443-0.606,0.779-1.053,1.01c-0.446,0.229-1.143,0.501-2.091,0.814l-2.062,0.759
		l-0.004,0.031l3.019,1.743L72.157,170.004z"/>
	<path fill="#202000" d="M80.291,164.706c0.287,0.166,0.539,0.347,0.753,0.54c0.215,0.194,0.414,0.411,0.595,0.651l-0.891,0.934
		c-0.185-0.21-0.358-0.388-0.518-0.532s-0.36-0.286-0.601-0.425c-0.433-0.25-0.878-0.286-1.335-0.107s-0.856,0.563-1.198,1.155
		l-0.138,0.238c0.308-0.08,0.628-0.094,0.962-0.043s0.668,0.172,1.003,0.365c0.633,0.365,0.997,0.875,1.094,1.528
		c0.096,0.653-0.063,1.341-0.479,2.062c-0.428,0.74-1.005,1.209-1.733,1.407c-0.728,0.198-1.462,0.083-2.203-0.345
		c-0.771-0.445-1.247-1.072-1.428-1.88c-0.181-0.808-0.007-1.671,0.522-2.587l0.894-1.548c0.541-0.937,1.249-1.528,2.124-1.774
		S79.448,164.22,80.291,164.706z M77.784,168.32c-0.267-0.154-0.52-0.242-0.757-0.265c-0.237-0.022-0.453,0.013-0.646,0.104
		l-0.229,0.396c-0.328,0.568-0.478,1.068-0.449,1.499c0.028,0.432,0.213,0.746,0.555,0.943c0.308,0.178,0.628,0.189,0.96,0.037
		c0.332-0.154,0.611-0.427,0.838-0.818c0.234-0.406,0.327-0.779,0.276-1.117S78.099,168.502,77.784,168.32z"/>
</g>
<g>
	<path fill="#202000" d="M86.213,159.451c0.195-0.338,0.465-0.553,0.81-0.643c0.345-0.089,0.699-0.029,1.061,0.18
		c0.372,0.215,0.606,0.493,0.702,0.835c0.096,0.342,0.045,0.684-0.152,1.025l-0.264,0.456c-0.197,0.342-0.465,0.555-0.805,0.639
		s-0.693,0.02-1.062-0.193c-0.369-0.213-0.602-0.488-0.7-0.827c-0.098-0.339-0.049-0.677,0.146-1.015L86.213,159.451z"/>
	<path fill="#202000" d="M96.107,167.931l-0.007,0.036c-0.375,0.689-0.877,1.088-1.503,1.192c-0.627,0.104-1.333-0.069-2.117-0.522
		c-0.761-0.439-1.248-1.02-1.459-1.738c-0.211-0.72-0.109-1.439,0.307-2.16l0.712-1.233c0.414-0.718,0.986-1.165,1.715-1.341
		c0.729-0.177,1.474-0.045,2.235,0.395c0.792,0.457,1.298,0.982,1.519,1.576s0.128,1.223-0.277,1.887l-0.028,0.024l-1.431-0.826
		c0.197-0.342,0.264-0.63,0.199-0.866c-0.065-0.236-0.276-0.457-0.635-0.664c-0.342-0.197-0.674-0.231-0.997-0.102
		c-0.323,0.129-0.595,0.385-0.815,0.768l-0.715,1.238c-0.225,0.389-0.313,0.756-0.264,1.102c0.048,0.346,0.243,0.617,0.585,0.814
		c0.352,0.203,0.647,0.273,0.885,0.207c0.238-0.064,0.457-0.27,0.656-0.615L96.107,167.931z"/>
	<path fill="#202000" d="M104.731,167.713l-2.203,3.816c-0.398,0.689-0.95,1.089-1.655,1.196c-0.705,0.106-1.456-0.069-2.254-0.53
		c-0.802-0.463-1.332-1.027-1.59-1.693s-0.189-1.342,0.207-2.028l2.203-3.815l1.482,0.855l-2.203,3.815
		c-0.201,0.349-0.254,0.67-0.158,0.964c0.096,0.295,0.333,0.552,0.712,0.771s0.718,0.296,1.016,0.231
		c0.299-0.064,0.55-0.272,0.753-0.624l2.203-3.815L104.731,167.713z"/>
	<path fill="#202000" d="M105.288,173.089l-1.225,2.121l-1.481-0.855l3.413-5.911l2.344,1.354c0.728,0.42,1.214,0.914,1.459,1.484
		c0.246,0.57,0.209,1.132-0.109,1.684c-0.186,0.32-0.434,0.55-0.745,0.686c-0.311,0.137-0.676,0.181-1.095,0.133
		c0.327,0.324,0.506,0.658,0.536,1s-0.057,0.69-0.262,1.046l-0.243,0.421c-0.07,0.122-0.146,0.275-0.226,0.462
		c-0.08,0.186-0.114,0.325-0.1,0.419l-0.041,0.071l-1.527-0.882c0-0.086,0.045-0.22,0.137-0.401
		c0.091-0.182,0.186-0.357,0.283-0.526l0.237-0.411c0.156-0.271,0.197-0.522,0.122-0.755c-0.075-0.233-0.265-0.438-0.569-0.613
		L105.288,173.089z M105.944,171.952l0.863,0.498c0.288,0.166,0.548,0.226,0.782,0.181c0.234-0.045,0.418-0.185,0.553-0.418
		c0.127-0.221,0.153-0.449,0.078-0.686c-0.075-0.238-0.253-0.438-0.534-0.6l-0.863-0.498L105.944,171.952z"/>
	<path fill="#202000" d="M111.306,176.563l-1.225,2.121l-1.482-0.855l3.413-5.911l2.344,1.354c0.728,0.42,1.214,0.914,1.46,1.484
		c0.246,0.57,0.209,1.132-0.109,1.684c-0.186,0.32-0.434,0.55-0.745,0.686c-0.311,0.137-0.676,0.181-1.095,0.133
		c0.327,0.324,0.505,0.658,0.536,1s-0.057,0.69-0.262,1.046l-0.243,0.421c-0.07,0.122-0.146,0.275-0.226,0.462
		c-0.08,0.186-0.113,0.325-0.1,0.419l-0.041,0.071l-1.527-0.882c0-0.086,0.046-0.22,0.137-0.401s0.186-0.357,0.284-0.526
		l0.237-0.411c0.156-0.271,0.197-0.522,0.121-0.755c-0.075-0.233-0.265-0.438-0.569-0.613L111.306,176.563z M111.962,175.427
		l0.862,0.498c0.288,0.166,0.548,0.226,0.782,0.181c0.233-0.045,0.418-0.185,0.553-0.418c0.127-0.221,0.153-0.449,0.078-0.686
		c-0.075-0.238-0.253-0.438-0.534-0.6l-0.862-0.498L111.962,175.427z"/>
	<path fill="#202000" d="M119.946,181.051l-2.405-1.389l-0.791,1.371l2.842,1.641l-0.65,1.126l-4.324-2.496l3.413-5.911l4.324,2.496
		l-0.653,1.131l-2.842-1.641l-0.662,1.146l2.405,1.389L119.946,181.051z"/>
	<path fill="#202000" d="M125.467,187.567l-1.481-0.855l-0.204-4.968l-0.036-0.008l-2.095,3.628l-1.481-0.855l3.413-5.911
		l1.481,0.855l0.206,4.963l0.037,0.008l2.092-3.623l1.481,0.855L125.467,187.567z"/>
	<path fill="#202000" d="M134.179,186.224l-1.755-1.014l-2.76,4.78l-1.487-0.858l2.76-4.78l-1.73-0.999l0.653-1.132l4.973,2.871
		L134.179,186.224z"/>
</g>
<g>
	<path fill="#202000" d="M109.102,159.451c0.195-0.338,0.465-0.553,0.81-0.643c0.345-0.089,0.699-0.029,1.061,0.18
		c0.372,0.215,0.606,0.493,0.702,0.835c0.096,0.342,0.045,0.684-0.152,1.025l-0.264,0.456c-0.197,0.342-0.465,0.555-0.805,0.639
		s-0.693,0.02-1.062-0.193c-0.369-0.213-0.602-0.488-0.7-0.827c-0.098-0.339-0.049-0.677,0.146-1.015L109.102,159.451z"/>
	<path fill="#202000" d="M117.935,170.004l-4.958-2.862l0.56-0.97l3.783-1.266c0.574-0.206,1.014-0.406,1.318-0.603
		c0.305-0.196,0.525-0.411,0.66-0.645c0.176-0.304,0.24-0.592,0.193-0.862s-0.222-0.494-0.527-0.67
		c-0.321-0.186-0.637-0.212-0.948-0.08c-0.311,0.132-0.57,0.377-0.777,0.735l-1.441-0.832l0.007-0.036
		c0.362-0.666,0.899-1.097,1.612-1.292c0.713-0.195,1.448-0.074,2.206,0.363s1.235,0.972,1.431,1.601
		c0.196,0.63,0.105,1.271-0.272,1.924c-0.256,0.443-0.606,0.779-1.053,1.01c-0.446,0.229-1.143,0.501-2.091,0.814l-2.062,0.759
		l-0.004,0.031l3.019,1.743L117.935,170.004z"/>
	<path fill="#202000" d="M126.862,167.865c-0.211,0.365-0.493,0.635-0.845,0.807c-0.353,0.174-0.74,0.244-1.164,0.211
		c0.307,0.398,0.489,0.82,0.547,1.268c0.058,0.445-0.028,0.869-0.258,1.268c-0.395,0.684-0.939,1.078-1.635,1.185
		c-0.695,0.106-1.413-0.055-2.154-0.482c-0.774-0.447-1.301-1.005-1.578-1.673c-0.278-0.667-0.219-1.343,0.175-2.025
		c0.23-0.4,0.558-0.684,0.982-0.852c0.424-0.168,0.894-0.213,1.409-0.137c-0.257-0.36-0.402-0.738-0.438-1.136
		c-0.035-0.396,0.053-0.778,0.264-1.144c0.375-0.648,0.885-1.021,1.531-1.115c0.645-0.094,1.323,0.063,2.034,0.474
		c0.68,0.393,1.132,0.888,1.356,1.483S127.237,167.215,126.862,167.865z M123.702,170.492c0.189-0.328,0.243-0.658,0.16-0.987
		s-0.274-0.581-0.575-0.755c-0.332-0.191-0.668-0.245-1.01-0.16c-0.342,0.084-0.608,0.291-0.797,0.619
		c-0.193,0.334-0.238,0.664-0.136,0.99c0.103,0.326,0.326,0.587,0.667,0.784c0.305,0.176,0.614,0.222,0.929,0.138
		C123.254,171.036,123.508,170.826,123.702,170.492z M125.348,167.078c0.168-0.291,0.225-0.566,0.172-0.824
		c-0.054-0.259-0.203-0.459-0.446-0.6c-0.277-0.16-0.547-0.204-0.81-0.133c-0.262,0.072-0.479,0.257-0.651,0.555
		c-0.174,0.301-0.229,0.593-0.167,0.875c0.062,0.281,0.232,0.503,0.51,0.663c0.244,0.141,0.493,0.163,0.747,0.065
		C124.957,167.583,125.172,167.383,125.348,167.078z"/>
</g>
<g>
	<path fill="#202000" d="M131.991,159.451c0.195-0.338,0.465-0.553,0.81-0.643c0.345-0.089,0.699-0.029,1.061,0.18
		c0.372,0.215,0.606,0.493,0.701,0.835c0.097,0.342,0.046,0.684-0.151,1.025l-0.264,0.456c-0.197,0.342-0.465,0.555-0.805,0.639
		s-0.693,0.02-1.062-0.193c-0.369-0.213-0.602-0.488-0.7-0.827c-0.098-0.339-0.049-0.677,0.146-1.015L131.991,159.451z"/>
	<path fill="#202000" d="M140.823,170.004l-4.958-2.862l0.561-0.97l3.782-1.266c0.574-0.206,1.014-0.406,1.318-0.603
		c0.306-0.196,0.524-0.411,0.659-0.645c0.176-0.304,0.24-0.592,0.193-0.862s-0.222-0.494-0.526-0.67
		c-0.321-0.186-0.638-0.212-0.948-0.08s-0.569,0.377-0.776,0.735l-1.44-0.832l0.007-0.036c0.362-0.666,0.899-1.097,1.612-1.292
		s1.447-0.074,2.205,0.363s1.234,0.972,1.431,1.601c0.196,0.63,0.104,1.271-0.272,1.924c-0.256,0.443-0.605,0.779-1.053,1.01
		c-0.445,0.229-1.143,0.501-2.091,0.814l-2.062,0.759l-0.004,0.031l3.019,1.743L140.823,170.004z"/>
	<path fill="#202000" d="M144.529,170.77c0.365,0.211,0.744,0.246,1.137,0.105s0.73-0.459,1.016-0.953l0.275-0.477
		c-0.288,0.117-0.577,0.165-0.866,0.143c-0.289-0.023-0.563-0.109-0.825-0.26c-0.686-0.396-1.096-0.931-1.229-1.604
		c-0.133-0.672,0.021-1.392,0.465-2.16c0.428-0.74,1.015-1.221,1.76-1.439c0.744-0.221,1.477-0.122,2.197,0.294
		c0.744,0.43,1.207,1.03,1.389,1.803c0.181,0.772,0.016,1.602-0.496,2.487l-1.148,1.99c-0.492,0.852-1.139,1.381-1.941,1.586
		c-0.801,0.204-1.598,0.078-2.389-0.379c-0.258-0.148-0.506-0.329-0.746-0.542c-0.24-0.214-0.451-0.44-0.633-0.681l0.867-0.926
		c0.162,0.211,0.333,0.395,0.512,0.553C144.053,170.469,144.271,170.621,144.529,170.77z M146.142,168.386
		c0.24,0.139,0.479,0.212,0.72,0.22c0.239,0.007,0.461-0.041,0.664-0.145l0.498-0.863c0.268-0.463,0.378-0.872,0.33-1.227
		s-0.23-0.623-0.549-0.807c-0.297-0.172-0.617-0.174-0.959-0.003c-0.342,0.17-0.629,0.456-0.861,0.858
		c-0.244,0.424-0.357,0.812-0.34,1.164C145.661,167.938,145.827,168.204,146.142,168.386z"/>
</g>
</svg>
