<svg xmlns="http://www.w3.org/2000/svg" version="1.1" id="Calque_1" x="0px" y="0px" width="55px" height="55px" viewBox="0 0 55 55" enable-background="new 0 0 55 55" xml:space="preserve">
    <path fill="#FFFFFF" d="M27.5 12.5c-8.281 0-15 6.719-15 15s6.719 15 15 15 15-6.719 15-15S35.781 12.5 27.5 12.5zM33.521 34.098l-0.105 0.473 -0.051-0.102c-0.664 0.539-0.656 2.07-1.559 2.449 -0.484 0.203-0.424-0.449-0.242-0.68 0.27-0.344-0.1-0.57 0.068-0.906l-0.031-0.02 -0.004 0.004v-0.004c-0.164-0.039-0.322-0.449-0.322-0.68 0.193-0.035 0.293-0.152 0.309-0.082l0.275-0.52c0.061 0.344-0.434 1.012-0.262 1.281h0.004l0.178-0.113c0 0.184 0.039 0.355 0.113 0.52 -0.209-0.824 0.629-0.848 1.008-1.336 0.145-0.191 0.379-0.711 0.562-0.789l0.066 0.469L33.521 34.098zM37.691 24.402c-0.32-0.508-0.523-1.32-0.988-1.707l0.035 0.426c-0.242-0.074-0.439-0.211-0.582-0.426 -0.023-0.098 0.248 0.133 0.098-0.16 -0.385 0.051-0.66-0.348-0.975-0.566 -0.553-0.074-1.154 0.395-1.719 0.062 -0.131-0.078-0.256-0.531-0.461-0.27l-0.383 0.094c-0.631-0.191-0.904-0.734-1.475-0.75 0.006 0.242 0.412 0.602 0.605 0.711 0.254 0.148 0.432 0.785 0.463 0.215 0.363 0.211 0.105 0.676 0.621 0.504 0.393 0.152 0.287-0.477 0.369-0.664l0.291 0.477c0.205 0.191 0.498 0.117 0.688 0.312 0.24 0.25 0.377 0.609 0.318 0.91 -0.225-0.016-0.047 0.27-0.188 0.492 -0.152 0.23-0.139 0.281-0.234 0.531 -0.266 0.066-0.58 0.188-0.531 0.535 -0.186 0.223-1.842 1.422-2.061 1.094 -0.27-0.406-0.336-0.973-0.555-1.402 -0.324-0.105-1-0.93-1.133-1.25 0.1-0.559-1.381-1.66-1.621-1.668 0.176 0.762 0.832 1.164 1.135 1.75 0.256 0.504 0.727 1.688 1.119 1.852 0.654-0.062 1.057 1.125 1.406 1.371 0.455 0.316 1.389-0.711 1.787-0.609 0.045 0.539 0.035 0.699-0.129 1.297 -0.332 1.219-0.893 1.746-1.613 2.734 -0.416 0.566-0.686 0.969-0.998 1.594 -0.244 0.492 0.471 1.527 0.275 1.801 0.105 0.809-0.092 1.281-0.789 1.684 -0.51 0.297-0.949 0.578-0.777 1.137 0.174 0.559-0.521 0.645-0.604 0.961 -0.213 0.52-0.51 0.797-0.867 0.992C27.98 38.48 27.742 38.5 27.5 38.5c-0.438 0-0.867-0.035-1.293-0.082 -0.566-0.707-1.152-1.457-1.758-2.164 -0.369-0.422-0.867-1.191-0.328-1.734 0.061-0.352-0.361-1.164-0.549-1.477 -0.314-0.523-1.766-1.66-1.199-2.27 0.078-0.402-0.275-0.805-0.275-1.121 -0.309-0.246-0.623 0.332-0.924-0.191 -0.32-0.562-0.902-0.41-1.385-0.062l-1.566 0.168c-1.02-0.91-1.344-2.34-0.99-3.562 0.145-0.508 0.162-1.41 0.566-1.75 0.133-0.527 0.742-1.047 1.066-1.48 0.172-0.234 0.453-0.254 0.654-0.492 0.303-0.355 0.449-0.777 0.84-1.094 0.395-0.312 1.24-0.844 0.521-0.957 0.285-0.418 0.74-0.875 0.908-1.379 0.246-0.195 0.707-0.113 0.984-0.25 0.238-0.488 0.336-0.473 0.246-0.785 0.049-0.199 0.682-0.352 0.816-0.402 0.25-0.098 0.473-0.328 0.699-0.496C25.48 16.652 26.473 16.5 27.5 16.5c5.461 0 9.992 4.004 10.844 9.227C38.094 25.246 37.873 24.688 37.691 24.402zM27.316 17.801l0.1-0.113c-0.352 0.129-0.123-0.254-0.453 0.129 0.086 0.289-0.297 0.484-0.131 0.793 0.342 0.289 0.684-0.156 1.02-0.211 -0.002 0.195 0.705 0.168 0.811 0.195 -0.189-0.047 0.064-0.039 0 0C29.305 18.195 27.34 17.812 27.316 17.801zM26.766 19.73c0.023-0.16-0.168-0.172-0.242-0.375 0.256-0.305-0.223-0.152 0.033-0.484h-0.389c-0.055 0.219 0.107 0.141-0.182 0.078 -0.096 0.238 0.225 0.398 0.182 0.617l-0.131-0.047c-0.041 0.156-0.012 0.121-0.016 0.371 -0.445-0.082-0.203-0.422-0.584-0.906 0.346-0.277-0.717-0.816-0.566-0.988 -0.75 0.199 0.596 0.984 0.389 1.164 -0.348-0.195-0.098 0.078-0.309 0.312 -0.307 0.352-0.279 0.469-0.748 0.289 -0.02-0.391 0.881-0.043 0.469-0.754 -0.205-0.352-0.402-0.77-0.791-0.512 -0.367 0.242-1.029 0.383-1.314 0.91l-1.346 1.168c0.457 0.371 2.256-1.098 2.707-0.668 -0.029 0.305-0.381 0.535-0.389 0.844l0.324 0.211c0.596-0.129 0.436 0.281 0.875 0.387 0.734 0.184 0.174 0.047 0.637-0.414 0.152-0.145 0.963-0.129 1 0.125 -0.023-0.16 0.34-0.062 0 0 0.361-0.066 0.709 0.297 0.977 0.027 0.191-0.188 0.348-0.152 0.49-0.047 0.654 0.473 0.434-1.367 0.451-1.457C28.066 19.73 26.756 19.867 26.766 19.73zM23.881 19.453L23.652 19.5c0.061-0.188 0.336-0.863 0.504-0.891C24.145 18.852 23.922 19.203 23.881 19.453zM29.684 17.766l0.197-0.195c-0.111-0.488-0.617-0.094-0.617 0.215 0.189 0.227 0.957 0.629 1.006 0.84 -0.178 0.07 0.045 0.605 0.324 0.586 0.197 0.168 0.42 0.199 0.664 0.098C31.193 18.852 30.055 17.961 29.684 17.766zM31.16 17.832c-0.182-0.043-0.375-0.445-0.566-0.504l-0.031 0.164C30.633 17.609 30.949 18.055 31.16 17.832z"/>
    <polygon fill="#FFFFFF" points="22.938,18.48 22.773,18.602 22.76,18.625  "/>
</svg>