<?xml version="1.0" encoding="utf-8"?>
<!-- Generator: Adobe Illustrator 16.0.0, SVG Export Plug-In . SVG Version: 6.00 Build 0)  -->
<!DOCTYPE svg PUBLIC "-//W3C//DTD SVG 1.1//EN" "http://www.w3.org/Graphics/SVG/1.1/DTD/svg11.dtd">
<svg version="1.1" id="Calque_1" xmlns="http://www.w3.org/2000/svg" xmlns:xlink="http://www.w3.org/1999/xlink" x="0px" y="0px"
	 width="500px" height="62px" viewBox="0 0 500 62" enable-background="new 0 0 500 62" xml:space="preserve">
<rect y="8.163" fill="#FF7F00" width="500" height="44.692"/>
<line fill="none" stroke="#000000" stroke-miterlimit="10" x1="0" y1="61.473" x2="0" y2="-0.527"/>
<line fill="none" stroke="#000000" stroke-miterlimit="10" x1="0" y1="30.51" x2="12.509" y2="30.51"/>
<rect y="8.163" opacity="0" fill="#202000" width="70.048" height="44.692"/>
<rect x="70.048" y="8.163" opacity="0.5" fill="#8F8F7F" width="125.087" height="44.692"/>
<rect x="195.136" y="8.163" opacity="0.8" fill="#202000" width="115.078" height="44.692"/>
<rect x="310.214" y="8.163" fill="#585840" width="125.087" height="44.692"/>
<rect x="435.301" y="8.163" fill="#9F9F8F" width="64.699" height="44.692"/>
<g>
	<g opacity="0.5">
		<path fill="#FFFFFF" d="M53.452,36.51c0,2.2-1.8,4-4,4h-22c-2.2,0-4-1.8-4-4v-12c0-2.2,1.8-4,4-4h22c2.2,0,4,1.8,4,4V36.51z"/>
	</g>
	<g>
		<path fill="#202000" d="M31.527,34.49h-1.449v-5.986h-1.499v-1.111l2.948-0.259V34.49z"/>
		<path fill="#202000" d="M38.171,31.791h0.817v1.125h-0.817v1.574h-1.454v-1.574h-2.954l-0.07-0.871l3.008-4.806h1.469V31.791z
			 M35.013,31.791h1.704v-2.635l-0.03-0.005l-0.149,0.324L35.013,31.791z"/>
		<path fill="#202000" d="M42.28,28.633c0-0.428,0.139-0.785,0.416-1.071c0.277-0.286,0.663-0.428,1.158-0.428
			c0.501,0,0.89,0.142,1.166,0.426c0.275,0.284,0.414,0.642,0.414,1.073v0.383c0,0.428-0.138,0.784-0.414,1.066
			c-0.276,0.282-0.661,0.423-1.155,0.423c-0.498,0-0.887-0.141-1.166-0.423s-0.418-0.638-0.418-1.066V28.633z M43.246,29.017
			c0,0.193,0.053,0.354,0.159,0.486c0.106,0.131,0.259,0.197,0.458,0.197c0.192,0,0.341-0.066,0.446-0.197
			c0.104-0.131,0.157-0.293,0.157-0.486v-0.383c0-0.192-0.053-0.356-0.16-0.491c-0.106-0.134-0.257-0.202-0.453-0.202
			s-0.346,0.067-0.451,0.202c-0.104,0.135-0.157,0.298-0.157,0.491V29.017z M44.103,33.947l-0.707-0.373l3.541-5.668l0.707,0.374
			L44.103,33.947z M45.746,32.712c0-0.425,0.14-0.78,0.418-1.065c0.279-0.286,0.666-0.428,1.161-0.428
			c0.498,0,0.885,0.142,1.163,0.425c0.277,0.284,0.416,0.641,0.416,1.068v0.384c0,0.432-0.138,0.789-0.414,1.07
			c-0.275,0.283-0.661,0.424-1.155,0.424c-0.498,0-0.887-0.142-1.168-0.426s-0.421-0.64-0.421-1.068V32.712z M46.712,33.096
			c0,0.189,0.057,0.352,0.172,0.485c0.115,0.135,0.265,0.202,0.451,0.202c0.216,0,0.37-0.062,0.463-0.187
			c0.093-0.125,0.139-0.292,0.139-0.501v-0.384c0-0.188-0.053-0.351-0.159-0.485c-0.106-0.135-0.257-0.201-0.453-0.201
			c-0.199,0-0.352,0.066-0.456,0.201s-0.157,0.297-0.157,0.485V33.096z"/>
	</g>
</g>
<g>
	<g opacity="0.5">
		<path fill="#FFFFFF" d="M145.452,36.51c0,2.2-1.8,4-4,4h-22c-2.2,0-4-1.8-4-4v-12c0-2.2,1.8-4,4-4h22c2.2,0,4,1.8,4,4V36.51z"/>
	</g>
	<g>
		<path fill="#202000" d="M125.011,34.49h-4.866v-0.951l2.247-2.54c0.335-0.395,0.573-0.729,0.714-1.004
			c0.141-0.273,0.212-0.525,0.212-0.754c0-0.299-0.075-0.538-0.224-0.717c-0.149-0.179-0.374-0.269-0.672-0.269
			c-0.315,0-0.56,0.114-0.732,0.343c-0.172,0.229-0.259,0.52-0.259,0.872h-1.415l-0.01-0.03c-0.017-0.644,0.196-1.189,0.637-1.636
			c0.442-0.446,1.034-0.669,1.778-0.669c0.744,0,1.321,0.19,1.733,0.57c0.412,0.38,0.618,0.891,0.618,1.532
			c0,0.435-0.115,0.832-0.346,1.19c-0.23,0.358-0.628,0.855-1.193,1.489l-1.195,1.435l0.01,0.025h2.963V34.49z"/>
		<path fill="#202000" d="M126.107,31.293l0.418-4.054h4.044v1.166h-2.854l-0.199,1.693c0.136-0.1,0.307-0.182,0.513-0.247
			c0.206-0.065,0.43-0.101,0.672-0.107c0.674-0.01,1.196,0.199,1.566,0.625c0.37,0.426,0.555,1.025,0.555,1.795
			c0,0.711-0.201,1.294-0.603,1.748c-0.402,0.455-1.016,0.683-1.843,0.683c-0.667,0-1.238-0.177-1.713-0.53
			c-0.475-0.354-0.704-0.839-0.687-1.457l0.01-0.024l1.399-0.065c0,0.303,0.091,0.538,0.274,0.708
			c0.183,0.169,0.422,0.254,0.717,0.254c0.345,0,0.597-0.113,0.754-0.339s0.237-0.548,0.237-0.967c0-0.418-0.086-0.75-0.259-0.998
			c-0.172-0.248-0.428-0.371-0.767-0.371c-0.279,0-0.493,0.052-0.64,0.154c-0.148,0.103-0.253,0.243-0.316,0.418L126.107,31.293z"/>
		<path fill="#202000" d="M134.28,28.633c0-0.428,0.139-0.785,0.416-1.071c0.277-0.286,0.663-0.428,1.158-0.428
			c0.501,0,0.89,0.142,1.166,0.426c0.275,0.284,0.414,0.642,0.414,1.073v0.383c0,0.428-0.138,0.784-0.414,1.066
			c-0.276,0.282-0.661,0.423-1.155,0.423c-0.498,0-0.887-0.141-1.166-0.423s-0.418-0.638-0.418-1.066V28.633z M135.246,29.017
			c0,0.193,0.053,0.354,0.159,0.486c0.106,0.131,0.259,0.197,0.458,0.197c0.192,0,0.341-0.066,0.446-0.197
			c0.104-0.131,0.157-0.293,0.157-0.486v-0.383c0-0.192-0.053-0.356-0.16-0.491c-0.106-0.134-0.257-0.202-0.453-0.202
			s-0.346,0.067-0.451,0.202c-0.104,0.135-0.157,0.298-0.157,0.491V29.017z M136.103,33.947l-0.707-0.373l3.541-5.668l0.707,0.374
			L136.103,33.947z M137.746,32.712c0-0.425,0.14-0.78,0.418-1.065c0.279-0.286,0.666-0.428,1.161-0.428
			c0.498,0,0.885,0.142,1.163,0.425c0.277,0.284,0.416,0.641,0.416,1.068v0.384c0,0.432-0.138,0.789-0.414,1.07
			c-0.275,0.283-0.661,0.424-1.155,0.424c-0.498,0-0.887-0.142-1.168-0.426s-0.421-0.64-0.421-1.068V32.712z M138.712,33.096
			c0,0.189,0.057,0.352,0.172,0.485c0.115,0.135,0.265,0.202,0.451,0.202c0.216,0,0.37-0.062,0.463-0.187
			c0.093-0.125,0.139-0.292,0.139-0.501v-0.384c0-0.188-0.053-0.351-0.159-0.485c-0.106-0.135-0.257-0.201-0.453-0.201
			c-0.199,0-0.352,0.066-0.456,0.201s-0.157,0.297-0.157,0.485V33.096z"/>
	</g>
</g>
<g>
	<g opacity="0.5">
		<path fill="#FFFFFF" d="M279.952,36.51c0,2.2-1.8,4-4,4h-22c-2.2,0-4-1.8-4-4v-12c0-2.2,1.8-4,4-4h22c2.2,0,4,1.8,4,4V36.51z"/>
	</g>
	<g>
		<path fill="#202000" d="M259.512,34.49h-4.867v-0.951l2.247-2.54c0.335-0.395,0.573-0.729,0.714-1.004
			c0.142-0.273,0.213-0.525,0.213-0.754c0-0.299-0.075-0.538-0.225-0.717c-0.149-0.179-0.373-0.269-0.672-0.269
			c-0.316,0-0.561,0.114-0.732,0.343c-0.173,0.229-0.26,0.52-0.26,0.872h-1.414l-0.01-0.03c-0.017-0.644,0.195-1.189,0.637-1.636
			c0.442-0.446,1.035-0.669,1.779-0.669c0.743,0,1.32,0.19,1.732,0.57c0.412,0.38,0.617,0.891,0.617,1.532
			c0,0.435-0.115,0.832-0.346,1.19c-0.23,0.358-0.629,0.855-1.193,1.489l-1.195,1.435l0.011,0.025h2.964V34.49z"/>
		<path fill="#202000" d="M262.799,30.227c0.345,0,0.602-0.09,0.77-0.269c0.167-0.179,0.251-0.432,0.251-0.757
			c0-0.272-0.088-0.498-0.265-0.678c-0.176-0.179-0.421-0.269-0.736-0.269c-0.266,0-0.489,0.081-0.67,0.244
			c-0.182,0.163-0.271,0.371-0.271,0.623h-1.404l-0.01-0.03c-0.021-0.568,0.199-1.036,0.656-1.404
			c0.459-0.369,1.025-0.553,1.699-0.553c0.75,0,1.346,0.177,1.787,0.53c0.442,0.354,0.663,0.861,0.663,1.521
			c0,0.332-0.096,0.637-0.286,0.914c-0.191,0.277-0.453,0.496-0.785,0.655c0.379,0.143,0.671,0.359,0.877,0.65
			s0.309,0.642,0.309,1.053c0,0.664-0.24,1.187-0.719,1.566c-0.48,0.381-1.096,0.57-1.846,0.57c-0.661,0-1.238-0.179-1.733-0.538
			c-0.495-0.358-0.733-0.861-0.718-1.509l0.011-0.03h1.414c0,0.272,0.096,0.501,0.286,0.686c0.191,0.184,0.438,0.276,0.74,0.276
			c0.332,0,0.601-0.099,0.807-0.294c0.206-0.196,0.309-0.443,0.309-0.742c0-0.382-0.096-0.665-0.289-0.85
			c-0.192-0.184-0.475-0.276-0.846-0.276h-0.803v-1.091H262.799z"/>
		<path fill="#202000" d="M268.779,28.633c0-0.428,0.139-0.785,0.416-1.071s0.664-0.428,1.158-0.428c0.502,0,0.89,0.142,1.166,0.426
			c0.275,0.284,0.413,0.642,0.413,1.073v0.383c0,0.428-0.138,0.784-0.413,1.066c-0.276,0.282-0.661,0.423-1.156,0.423
			c-0.498,0-0.887-0.141-1.165-0.423s-0.419-0.638-0.419-1.066V28.633z M269.746,29.017c0,0.193,0.053,0.354,0.159,0.486
			c0.106,0.131,0.259,0.197,0.458,0.197c0.193,0,0.342-0.066,0.446-0.197c0.104-0.131,0.157-0.293,0.157-0.486v-0.383
			c0-0.192-0.054-0.356-0.16-0.491c-0.105-0.134-0.258-0.202-0.453-0.202s-0.346,0.067-0.451,0.202
			c-0.104,0.135-0.156,0.298-0.156,0.491V29.017z M270.603,33.947l-0.707-0.373l3.541-5.668l0.707,0.374L270.603,33.947z
			 M272.246,32.712c0-0.425,0.14-0.78,0.418-1.065c0.279-0.286,0.666-0.428,1.161-0.428c0.498,0,0.886,0.142,1.163,0.425
			c0.277,0.284,0.416,0.641,0.416,1.068v0.384c0,0.432-0.139,0.789-0.414,1.07c-0.275,0.283-0.66,0.424-1.155,0.424
			c-0.498,0-0.888-0.142-1.168-0.426s-0.421-0.64-0.421-1.068V32.712z M273.213,33.096c0,0.189,0.057,0.352,0.172,0.485
			c0.114,0.135,0.264,0.202,0.45,0.202c0.216,0,0.37-0.062,0.464-0.187c0.092-0.125,0.139-0.292,0.139-0.501v-0.384
			c0-0.188-0.053-0.351-0.159-0.485s-0.257-0.201-0.453-0.201c-0.199,0-0.352,0.066-0.456,0.201s-0.156,0.297-0.156,0.485V33.096z"
			/>
	</g>
</g>
<g>
	<g opacity="0.5">
		<path fill="#FFFFFF" d="M391.242,36.51c0,2.2-1.8,4-4,4h-22c-2.2,0-4-1.8-4-4v-12c0-2.2,1.8-4,4-4h22c2.2,0,4,1.8,4,4V36.51z"/>
	</g>
	<g>
		<path fill="#202000" d="M370.801,34.49h-4.865v-0.951l2.246-2.54c0.335-0.395,0.573-0.729,0.715-1.004
			c0.141-0.273,0.211-0.525,0.211-0.754c0-0.299-0.074-0.538-0.224-0.717c-0.149-0.179-0.374-0.269-0.673-0.269
			c-0.314,0-0.559,0.114-0.732,0.343c-0.172,0.229-0.258,0.52-0.258,0.872h-1.415l-0.01-0.03c-0.017-0.644,0.196-1.189,0.638-1.636
			c0.441-0.446,1.033-0.669,1.777-0.669s1.322,0.19,1.733,0.57c0.411,0.38,0.618,0.891,0.618,1.532c0,0.435-0.115,0.832-0.347,1.19
			c-0.23,0.358-0.628,0.855-1.192,1.489l-1.195,1.435l0.01,0.025h2.963V34.49z"/>
		<path fill="#202000" d="M371.896,31.293l0.419-4.054h4.044v1.166h-2.854l-0.199,1.693c0.136-0.1,0.307-0.182,0.513-0.247
			c0.206-0.065,0.431-0.101,0.673-0.107c0.674-0.01,1.195,0.199,1.566,0.625c0.369,0.426,0.555,1.025,0.555,1.795
			c0,0.711-0.201,1.294-0.603,1.748c-0.401,0.455-1.017,0.683-1.843,0.683c-0.668,0-1.238-0.177-1.713-0.53
			s-0.705-0.839-0.688-1.457l0.01-0.024l1.399-0.065c0,0.303,0.091,0.538,0.274,0.708c0.182,0.169,0.422,0.254,0.717,0.254
			c0.346,0,0.597-0.113,0.754-0.339c0.158-0.226,0.237-0.548,0.237-0.967c0-0.418-0.087-0.75-0.259-0.998
			c-0.173-0.248-0.429-0.371-0.768-0.371c-0.279,0-0.492,0.052-0.64,0.154c-0.147,0.103-0.253,0.243-0.316,0.418L371.896,31.293z"/>
		<path fill="#202000" d="M380.07,28.633c0-0.428,0.139-0.785,0.416-1.071c0.276-0.286,0.662-0.428,1.157-0.428
			c0.501,0,0.89,0.142,1.165,0.426c0.275,0.284,0.414,0.642,0.414,1.073v0.383c0,0.428-0.139,0.784-0.414,1.066
			s-0.66,0.423-1.154,0.423c-0.498,0-0.887-0.141-1.166-0.423s-0.418-0.638-0.418-1.066V28.633z M381.036,29.017
			c0,0.193,0.053,0.354,0.159,0.486c0.106,0.131,0.26,0.197,0.459,0.197c0.191,0,0.34-0.066,0.445-0.197
			c0.104-0.131,0.156-0.293,0.156-0.486v-0.383c0-0.192-0.053-0.356-0.159-0.491c-0.106-0.134-0.257-0.202-0.453-0.202
			s-0.347,0.067-0.45,0.202c-0.105,0.135-0.157,0.298-0.157,0.491V29.017z M381.893,33.947l-0.707-0.373l3.541-5.668l0.707,0.374
			L381.893,33.947z M383.536,32.712c0-0.425,0.14-0.78,0.419-1.065c0.278-0.286,0.665-0.428,1.16-0.428
			c0.498,0,0.885,0.142,1.162,0.425c0.277,0.284,0.416,0.641,0.416,1.068v0.384c0,0.432-0.137,0.789-0.413,1.07
			c-0.275,0.283-0.661,0.424-1.155,0.424c-0.498,0-0.887-0.142-1.168-0.426s-0.421-0.64-0.421-1.068V32.712z M384.502,33.096
			c0,0.189,0.058,0.352,0.172,0.485c0.115,0.135,0.266,0.202,0.451,0.202c0.216,0,0.37-0.062,0.463-0.187
			c0.094-0.125,0.14-0.292,0.14-0.501v-0.384c0-0.188-0.054-0.351-0.159-0.485c-0.106-0.135-0.258-0.201-0.453-0.201
			c-0.199,0-0.352,0.066-0.456,0.201s-0.157,0.297-0.157,0.485V33.096z"/>
	</g>
</g>
<g>
	<g opacity="0.5">
		<path fill="#FFFFFF" d="M484.527,36.51c0,2.2-1.8,4-4,4h-22c-2.2,0-4-1.8-4-4v-12c0-2.2,1.8-4,4-4h22c2.2,0,4,1.8,4,4V36.51z"/>
	</g>
	<g>
		<path fill="#202000" d="M462.602,34.49h-1.449v-5.986h-1.498v-1.111l2.947-0.259V34.49z"/>
		<path fill="#202000" d="M467.373,30.227c0.346,0,0.602-0.09,0.77-0.269s0.252-0.432,0.252-0.757c0-0.272-0.088-0.498-0.264-0.678
			c-0.176-0.179-0.422-0.269-0.737-0.269c-0.267,0-0.489,0.081-0.67,0.244c-0.181,0.163-0.271,0.371-0.271,0.623h-1.405l-0.01-0.03
			c-0.02-0.568,0.199-1.036,0.658-1.404c0.458-0.369,1.023-0.553,1.698-0.553c0.75,0,1.347,0.177,1.788,0.53
			s0.662,0.861,0.662,1.521c0,0.332-0.096,0.637-0.287,0.914c-0.19,0.277-0.451,0.496-0.783,0.655
			c0.378,0.143,0.67,0.359,0.876,0.65s0.31,0.642,0.31,1.053c0,0.664-0.24,1.187-0.721,1.566c-0.479,0.381-1.095,0.57-1.845,0.57
			c-0.661,0-1.239-0.179-1.733-0.538c-0.494-0.358-0.734-0.861-0.717-1.509l0.01-0.03h1.414c0,0.272,0.096,0.501,0.287,0.686
			c0.19,0.184,0.438,0.276,0.739,0.276c0.331,0,0.601-0.099,0.807-0.294c0.206-0.196,0.309-0.443,0.309-0.742
			c0-0.382-0.097-0.665-0.288-0.85c-0.193-0.184-0.476-0.276-0.848-0.276h-0.801v-1.091H467.373z"/>
		<path fill="#202000" d="M473.355,28.633c0-0.428,0.139-0.785,0.416-1.071c0.276-0.286,0.662-0.428,1.157-0.428
			c0.501,0,0.89,0.142,1.165,0.426c0.275,0.284,0.414,0.642,0.414,1.073v0.383c0,0.428-0.139,0.784-0.414,1.066
			s-0.66,0.423-1.154,0.423c-0.498,0-0.887-0.141-1.166-0.423s-0.418-0.638-0.418-1.066V28.633z M474.321,29.017
			c0,0.193,0.053,0.354,0.159,0.486c0.106,0.131,0.26,0.197,0.459,0.197c0.191,0,0.34-0.066,0.445-0.197
			c0.104-0.131,0.156-0.293,0.156-0.486v-0.383c0-0.192-0.053-0.356-0.159-0.491c-0.106-0.134-0.257-0.202-0.453-0.202
			s-0.347,0.067-0.45,0.202c-0.105,0.135-0.157,0.298-0.157,0.491V29.017z M475.178,33.947l-0.707-0.373l3.541-5.668l0.707,0.374
			L475.178,33.947z M476.821,32.712c0-0.425,0.14-0.78,0.419-1.065c0.278-0.286,0.665-0.428,1.16-0.428
			c0.498,0,0.885,0.142,1.162,0.425c0.277,0.284,0.416,0.641,0.416,1.068v0.384c0,0.432-0.137,0.789-0.413,1.07
			c-0.275,0.283-0.661,0.424-1.155,0.424c-0.498,0-0.887-0.142-1.168-0.426s-0.421-0.64-0.421-1.068V32.712z M477.787,33.096
			c0,0.189,0.058,0.352,0.172,0.485c0.115,0.135,0.266,0.202,0.451,0.202c0.216,0,0.37-0.062,0.463-0.187
			c0.094-0.125,0.14-0.292,0.14-0.501v-0.384c0-0.188-0.054-0.351-0.159-0.485c-0.106-0.135-0.258-0.201-0.453-0.201
			c-0.199,0-0.352,0.066-0.456,0.201s-0.157,0.297-0.157,0.485V33.096z"/>
	</g>
</g>
</svg>
