<svg version="1.1" id="Calque_1" 
	 xmlns="http://www.w3.org/2000/svg" x="0px" y="0px" width="55px" height="55px"
	 viewBox="0 0 55 55" enable-background="new 0 0 55 55" xml:space="preserve">
		<rect x="7.5" y="7.5" fill="none" width="40" height="40"/>
		<path fill="#202000" d="M40.449,26.5c-0.484-6.381-5.57-11.463-11.949-11.949V12.5h-2v2.051
			c-6.379,0.486-11.463,5.568-11.949,11.949H12.5v2h2.051c0.486,6.381,5.57,11.463,11.949,11.949V42.5h2v-2.051
			c6.379-0.486,11.465-5.568,11.949-11.949H42.5v-2H40.449z M38.449,28.5c-0.477,5.268-4.684,9.473-9.949,9.949V32.5h-2v5.949
			c-5.27-0.477-9.473-4.682-9.949-9.949H22.5v-2h-5.949c0.477-5.268,4.68-9.472,9.949-9.949V22.5h2v-5.949
			c5.266,0.478,9.473,4.682,9.949,9.949H32.5v2H38.449z"/>
</svg>
