<svg xmlns="http://www.w3.org/2000/svg" version="1.1" id="Calque_1" x="0px" y="0px" width="16px" height="16px" viewBox="0 0 16 16" enable-background="new 0 0 16 16" xml:space="preserve">
      <path fill="#1D1D1B" d="M15.291 9.992L9.5 5.736V3c0-0.75-0.75-3-1.5-3S6.5 2.25 6.5 3v2.736L0.709 9.992C0.578 10.086 0.5 10.236 0.5 10.398V10.5c0 0.154 0.071 0.301 0.192 0.395 0.121 0.096 0.279 0.129 0.429 0.092L6.5 9.539V10.5v3.225l-1.777 1.289C4.583 15.107 4.5 15.264 4.5 15.43v0.07c0 0.156 0.074 0.305 0.199 0.398 0.125 0.096 0.288 0.125 0.438 0.082L8 15l2.863 0.967c0.15 0.043 0.312 0.014 0.438-0.082 0.125-0.094 0.199-0.242 0.199-0.398v-0.07c0-0.166-0.084-0.322-0.223-0.416L9.5 13.721V10.5 9.539l5.379 1.447c0.149 0.037 0.308 0.004 0.429-0.092 0.122-0.094 0.192-0.24 0.192-0.395v-0.102C15.5 10.236 15.422 10.086 15.291 9.992z"/>

</svg>