<svg xmlns="http://www.w3.org/2000/svg" version="1.1" id="Calque_1" x="0px" y="0px" width="32px" height="32px" viewBox="0 0 32 32" enable-background="new 0 0 32 32" xml:space="preserve">
        <path fill="#9F9F8F" d="M11 17h10c0.55 0 1-0.449 1-1V8c0-0.551-0.45-1-1-1H11c-0.55 0-1 0.449-1 1v8C10 16.551 10.45 17 11 17zM3 11h4c0.55 0 1-0.449 1-1S7.55 9 7 9H3c-0.55 0-1 0.449-1 1S2.45 11 3 11zM30 3c-1.939 0-4 1.402-4 4v10c0 2-0.037 2-2 2H2c-1.104 0-2 0.895-2 2s0.896 2 2 2h22c1.947 0 6 0 6-6V7c1.104 0 2-0.895 2-2S31.104 3 30 3z"/>
        <circle fill="#9F9F8F" cx="7" cy="26" r="3"/>
        <circle fill="#9F9F8F" cx="21" cy="26" r="3"/>
        <path fill="#9F9F8F" d="M3 17h4c0.55 0 1-0.449 1-1v-2c0-0.551-0.45-1-1-1H3c-0.55 0-1 0.449-1 1v2C2 16.551 2.45 17 3 17z"/>
      <rect fill="none" width="32" height="32"/>
</svg>