<?xml version="1.0" encoding="utf-8"?>
<!-- Generator: Adobe Illustrator 16.0.0, SVG Export Plug-In . SVG Version: 6.00 Build 0)  -->
<!DOCTYPE svg PUBLIC "-//W3C//DTD SVG 1.1//EN" "http://www.w3.org/Graphics/SVG/1.1/DTD/svg11.dtd">
<svg version="1.1" id="Calque_1" xmlns="http://www.w3.org/2000/svg" xmlns:xlink="http://www.w3.org/1999/xlink" x="0px" y="0px"
	 width="268px" height="145px" viewBox="0 0 268 145" enable-background="new 0 0 268 145" xml:space="preserve">
<g>
	<g>
	</g>
	<g>
	</g>
	<g>
	</g>
</g>
<g>
	<g>
	</g>
	<g>
	</g>
	<g>
	</g>
	<g>
	</g>
</g>
<g>
	<g>
	</g>
	<g>
	</g>
	<g>
	</g>
	<g>
	</g>
	<g>
	</g>
</g>
<g>
	<g>
	</g>
	<g>
	</g>
	<g>
	</g>
</g>
<rect x="155.607" y="65.098" fill="#7FDF00" width="17.883" height="14.305"/>
<rect x="155.607" y="43.639" fill="#7FDF00" width="17.883" height="14.307"/>
<rect x="155.607" y="22.182" fill="#7FDF00" width="17.883" height="14.305"/>
<rect x="155.607" y="0.723" fill="#7FDF00" width="17.883" height="14.305"/>
<circle fill="#FFFFFF" cx="72.25" cy="72.25" r="72.25"/>
<circle fill="#7FDF00" cx="72.25" cy="72.25" r="62.496"/>
<g>
	<g>
	</g>
	<g>
	</g>
	<g>
	</g>
	<g>
	</g>
</g>
<g>
	<g>
		<rect x="155.607" y="65.098" opacity="0" fill="#202000" width="17.883" height="14.305"/>
		<g>
			<path opacity="0" fill="#202000" d="M72.25,72.25V9.664c24.23,0,44.764,12.582,55.766,34.172L72.25,72.25z"/>
		</g>
	</g>
	<g>
		<rect x="155.607" y="43.639" opacity="0.75" fill="#202000" width="17.883" height="14.307"/>
		<g>
			<path opacity="0.75" fill="#202000" d="M72.25,72.25l55.766-28.414c15.693,30.799,3.447,68.488-27.352,84.18
				c-21.035,10.717-43.839,9.322-63.412-3.879L72.25,72.25z"/>
		</g>
	</g>
	<g>
		<rect x="155.607" y="22.182" fill="#9F9F8F" width="17.883" height="14.305"/>
		<g>
			<path fill="#9F9F8F" d="M72.25,72.25l-34.998,51.887c-9.944-6.707-16.656-14.564-21.725-25.436L72.25,72.25z"/>
		</g>
	</g>
	<g>
		<rect x="155.607" y="0.723" fill="#585840" width="17.883" height="14.305"/>
		<g>
			<path fill="#585840" d="M72.25,72.25L15.527,98.701C0.919,67.373,14.472,30.135,45.799,15.527
				c8.365-3.898,17.221-5.863,26.451-5.863V72.25z"/>
		</g>
	</g>
</g>
<g>
	<g>
		<g>
			<path fill="#202000" d="M190.289,10.39h-1.711V7.707h-2.736v2.684h-1.711V3.564h1.711v2.83h2.736v-2.83h1.711V10.39z"/>
			<path fill="#202000" d="M196.102,9.177h-2.648l-0.434,1.213h-1.811l2.643-6.826h1.857l2.637,6.826h-1.805L196.102,9.177z
				 M193.922,7.865h1.711l-0.844-2.338h-0.035L193.922,7.865z"/>
			<path fill="#202000" d="M205.037,3.564V7.97c0,0.797-0.277,1.418-0.834,1.863s-1.297,0.668-2.219,0.668
				c-0.926,0-1.666-0.224-2.223-0.671s-0.836-1.067-0.836-1.86V3.564h1.711V7.97c0,0.402,0.115,0.707,0.346,0.914
				s0.564,0.311,1.002,0.311s0.77-0.103,0.996-0.308s0.34-0.511,0.34-0.917V3.564H205.037z"/>
			<path fill="#202000" d="M208.207,9.089h2.83v1.301h-4.541V3.564h1.711V9.089z"/>
			<path fill="#202000" d="M216.422,9.177h-2.648l-0.434,1.213h-1.811l2.643-6.826h1.857l2.637,6.826h-1.805L216.422,9.177z
				 M214.242,7.865h1.711l-0.844-2.338h-0.035L214.242,7.865z"/>
			<path fill="#202000" d="M225.299,9.447c-0.262,0.293-0.631,0.54-1.109,0.741s-1.1,0.302-1.861,0.302
				c-0.934,0-1.691-0.259-2.275-0.776s-0.877-1.192-0.877-2.024V6.265c0-0.824,0.287-1.496,0.861-2.016s1.311-0.779,2.209-0.779
				c0.914,0,1.629,0.192,2.145,0.577s0.764,0.925,0.744,1.62l-0.012,0.035h-1.652c0-0.324-0.096-0.56-0.287-0.706
				s-0.504-0.22-0.938-0.22c-0.418,0-0.748,0.138-0.992,0.413s-0.367,0.632-0.367,1.069v1.43c0,0.445,0.129,0.807,0.385,1.084
				s0.607,0.416,1.057,0.416c0.34,0,0.605-0.023,0.797-0.07s0.348-0.111,0.469-0.193V7.865h-1.283V6.734h2.988V9.447z"/>
			<path fill="#202000" d="M231.193,7.507h-2.777v1.582h3.281v1.301h-4.992V3.564h4.992v1.307h-3.281v1.324h2.777V7.507z"/>
		</g>
	</g>
	<g>
		<g>
			<path fill="#202000" d="M188.619,28.966h-2.777v1.582h3.281v1.301h-4.992v-6.826h4.992v1.307h-3.281v1.324h2.777V28.966z"/>
			<path fill="#202000" d="M193.148,27.279l1.184-2.256h1.975l-2.08,3.381l2.127,3.445h-1.963l-1.225-2.303l-1.225,2.303h-1.975
				l2.139-3.445l-2.086-3.381h1.963L193.148,27.279z"/>
			<path fill="#202000" d="M199.084,29.71v2.139h-1.711v-6.826h2.947c0.867,0,1.564,0.22,2.09,0.659s0.787,1.001,0.787,1.685
				c0,0.688-0.262,1.25-0.787,1.688s-1.223,0.656-2.09,0.656H199.084z M199.084,28.398h1.236c0.363,0,0.65-0.1,0.859-0.299
				s0.312-0.439,0.312-0.721c0-0.285-0.104-0.531-0.312-0.738s-0.496-0.311-0.859-0.311h-1.236V28.398z"/>
		</g>
	</g>
	<g>
		<g>
			<path fill="#202000" d="M187.863,51.42c0-0.211-0.092-0.387-0.277-0.527s-0.523-0.266-1.012-0.375
				c-0.895-0.172-1.543-0.413-1.945-0.724s-0.604-0.78-0.604-1.409c0-0.574,0.244-1.051,0.73-1.43s1.141-0.568,1.965-0.568
				c0.859,0,1.529,0.193,2.01,0.58s0.711,0.908,0.691,1.564l-0.012,0.035h-1.652c0-0.281-0.08-0.498-0.242-0.65
				s-0.428-0.229-0.795-0.229c-0.348,0-0.6,0.064-0.758,0.193s-0.238,0.293-0.238,0.492c0,0.227,0.088,0.406,0.264,0.539
				s0.539,0.256,1.09,0.369c0.84,0.172,1.465,0.416,1.875,0.732s0.615,0.777,0.615,1.383c0,0.609-0.26,1.099-0.779,1.468
				s-1.209,0.554-2.068,0.554c-0.914,0-1.635-0.193-2.162-0.58s-0.779-0.916-0.756-1.588l0.012-0.035h1.652
				c0.008,0.328,0.123,0.561,0.344,0.697s0.523,0.205,0.91,0.205c0.391,0,0.68-0.063,0.865-0.19S187.863,51.631,187.863,51.42z"/>
			<path fill="#202000" d="M195.27,50.424h-2.777v1.582h3.281v1.301h-4.992v-6.826h4.992v1.307h-3.281v1.324h2.777V50.424z"/>
			<path fill="#202000" d="M201.416,52.094h-2.648l-0.434,1.213h-1.811l2.643-6.826h1.857l2.637,6.826h-1.805L201.416,52.094z
				 M199.236,50.782h1.711l-0.844-2.338h-0.035L199.236,50.782z"/>
		</g>
	</g>
	<g>
		<g>
			<path fill="#202000" d="M188.355,73.553h-2.648l-0.434,1.213h-1.811l2.643-6.826h1.857l2.637,6.826h-1.805L188.355,73.553z
				 M186.176,72.241h1.711l-0.844-2.338h-0.035L186.176,72.241z"/>
			<path fill="#202000" d="M193.102,74.766h-1.711V67.94h1.711V74.766z"/>
			<path fill="#202000" d="M196.33,72.317v2.449h-1.711V67.94h2.707c0.84,0,1.51,0.186,2.008,0.557s0.746,0.875,0.746,1.512
				c0,0.371-0.1,0.693-0.301,0.967s-0.496,0.494-0.883,0.662c0.445,0.117,0.768,0.316,0.965,0.598s0.295,0.627,0.295,1.037v0.486
				c0,0.141,0.012,0.312,0.035,0.514s0.064,0.338,0.123,0.412v0.082h-1.764c-0.043-0.074-0.07-0.213-0.082-0.416
				s-0.018-0.402-0.018-0.598v-0.475c0-0.312-0.09-0.55-0.271-0.714s-0.449-0.246-0.801-0.246H196.33z M196.33,71.004h0.996
				c0.332,0,0.588-0.078,0.768-0.234s0.27-0.369,0.27-0.639c0-0.254-0.092-0.465-0.275-0.633s-0.438-0.252-0.762-0.252h-0.996
				V71.004z"/>
		</g>
	</g>
</g>
<g opacity="0.5">
	<path fill="#FFFFFF" d="M54.688,60.772c0,2.2-1.8,4-4,4h-20c-2.2,0-4-1.8-4-4v-12c0-2.2,1.8-4,4-4h20c2.2,0,4,1.8,4,4V60.772z"/>
</g>
<g>
	<path fill="#202000" d="M36.77,58.753h-5.725v-1.119l2.643-2.988c0.395-0.465,0.675-0.858,0.841-1.181s0.249-0.618,0.249-0.888
		c0-0.352-0.088-0.633-0.264-0.844s-0.439-0.316-0.791-0.316c-0.371,0-0.658,0.135-0.861,0.404s-0.305,0.611-0.305,1.025h-1.664
		l-0.012-0.035c-0.02-0.758,0.23-1.399,0.75-1.925s1.217-0.788,2.092-0.788s1.555,0.224,2.039,0.671s0.727,1.048,0.727,1.802
		c0,0.512-0.136,0.979-0.407,1.4s-0.739,1.006-1.403,1.752l-1.406,1.688l0.012,0.029h3.486V58.753z"/>
	<path fill="#202000" d="M43.655,58.753H37.93v-1.119l2.643-2.988c0.395-0.465,0.675-0.858,0.841-1.181s0.249-0.618,0.249-0.888
		c0-0.352-0.088-0.633-0.264-0.844s-0.439-0.316-0.791-0.316c-0.371,0-0.658,0.135-0.861,0.404s-0.305,0.611-0.305,1.025h-1.664
		l-0.012-0.035c-0.02-0.758,0.23-1.399,0.75-1.925s1.217-0.788,2.092-0.788s1.555,0.224,2.039,0.671s0.727,1.048,0.727,1.802
		c0,0.512-0.136,0.979-0.407,1.4s-0.739,1.006-1.403,1.752l-1.406,1.688l0.012,0.029h3.486V58.753z"/>
	<path fill="#202000" d="M48.049,50.099c0.332,0,0.64,0.03,0.923,0.091s0.563,0.149,0.841,0.267l-0.305,1.254
		c-0.266-0.09-0.504-0.157-0.715-0.202s-0.455-0.067-0.732-0.067c-0.5,0-0.903,0.191-1.21,0.574s-0.46,0.916-0.46,1.6v0.275
		c0.227-0.223,0.497-0.396,0.812-0.519s0.665-0.185,1.052-0.185c0.73,0,1.301,0.259,1.711,0.776s0.615,1.192,0.615,2.024
		c0,0.855-0.266,1.551-0.797,2.086s-1.225,0.803-2.08,0.803c-0.891,0-1.616-0.305-2.177-0.914s-0.841-1.443-0.841-2.502v-1.787
		c0-1.082,0.317-1.948,0.952-2.599S47.077,50.099,48.049,50.099z M47.686,54.481c-0.309,0-0.571,0.05-0.788,0.149
		s-0.386,0.237-0.507,0.413v0.457c0,0.656,0.12,1.164,0.36,1.523s0.558,0.539,0.952,0.539c0.355,0,0.639-0.149,0.85-0.448
		s0.316-0.675,0.316-1.128c0-0.469-0.106-0.837-0.319-1.104S48.049,54.481,47.686,54.481z"/>
</g>
<g opacity="0.5">
	<path fill="#FFFFFF" d="M105.688,42.488c0,2.2-1.8,4-4,4H81.686c-2.2,0-4-1.8-4-4v-12c0-2.2,1.8-4,4-4h20.002c2.2,0,4,1.8,4,4
		V42.488z"/>
</g>
<g>
	<path fill="#202000" d="M86.023,40.469h-1.705v-7.043h-1.764v-1.307l3.469-0.305V40.469z"/>
	<path fill="#202000" d="M94.654,40.469H88.93V39.35l2.643-2.988c0.395-0.465,0.675-0.858,0.841-1.181s0.249-0.618,0.249-0.888
		c0-0.352-0.088-0.633-0.264-0.844s-0.439-0.316-0.791-0.316c-0.371,0-0.658,0.135-0.861,0.404s-0.305,0.611-0.305,1.025h-1.664
		l-0.012-0.035c-0.02-0.758,0.23-1.399,0.75-1.925s1.217-0.788,2.092-0.788s1.555,0.224,2.039,0.671s0.727,1.048,0.727,1.802
		c0,0.512-0.136,0.979-0.407,1.4s-0.739,1.006-1.403,1.752l-1.406,1.688l0.012,0.029h3.486V40.469z"/>
	<path fill="#202000" d="M95.943,36.707l0.492-4.77h4.758v1.371h-3.357l-0.234,1.992c0.16-0.117,0.361-0.214,0.604-0.29
		s0.506-0.118,0.791-0.126c0.793-0.012,1.407,0.233,1.843,0.735s0.653,1.206,0.653,2.112c0,0.836-0.236,1.521-0.709,2.057
		s-1.195,0.803-2.168,0.803c-0.785,0-1.457-0.208-2.016-0.624s-0.828-0.987-0.809-1.714l0.012-0.029l1.646-0.076
		c0,0.355,0.107,0.633,0.322,0.832s0.496,0.299,0.844,0.299c0.406,0,0.702-0.133,0.888-0.398s0.278-0.645,0.278-1.137
		s-0.102-0.884-0.305-1.175s-0.504-0.437-0.902-0.437c-0.328,0-0.579,0.061-0.753,0.182s-0.298,0.285-0.372,0.492L95.943,36.707z"/>
</g>
<g opacity="0.5">
	<path fill="#FFFFFF" d="M105.688,106.862c0,2.2-1.8,4-4,4h-20c-2.2,0-4-1.8-4-4v-12c0-2.2,1.8-4,4-4h20c2.2,0,4,1.8,4,4V106.862z"
		/>
</g>
<g>
	<path fill="#202000" d="M84.752,99.827c0.406,0,0.708-0.105,0.905-0.316s0.296-0.508,0.296-0.891c0-0.32-0.104-0.586-0.311-0.797
		s-0.496-0.316-0.867-0.316c-0.312,0-0.575,0.096-0.788,0.287s-0.319,0.436-0.319,0.732h-1.652l-0.012-0.035
		c-0.023-0.668,0.234-1.219,0.773-1.652s1.205-0.65,1.998-0.65c0.883,0,1.584,0.208,2.104,0.624s0.779,1.013,0.779,1.79
		c0,0.391-0.112,0.749-0.337,1.075s-0.532,0.583-0.923,0.771c0.445,0.168,0.789,0.423,1.031,0.765s0.363,0.755,0.363,1.239
		c0,0.781-0.282,1.396-0.847,1.843s-1.288,0.671-2.171,0.671c-0.777,0-1.457-0.211-2.039-0.633s-0.863-1.014-0.844-1.775
		l0.012-0.035h1.664c0,0.32,0.112,0.589,0.337,0.806s0.515,0.325,0.87,0.325c0.391,0,0.707-0.115,0.949-0.346
		s0.363-0.521,0.363-0.873c0-0.449-0.113-0.782-0.34-0.999s-0.559-0.325-0.996-0.325h-0.943v-1.283H84.752z"/>
	<path fill="#202000" d="M94.573,101.755c0,1-0.263,1.785-0.788,2.355s-1.222,0.855-2.089,0.855c-0.875,0-1.576-0.285-2.104-0.855
		s-0.791-1.355-0.791-2.355v-2.35c0-0.996,0.263-1.781,0.788-2.355s1.224-0.861,2.095-0.861c0.867,0,1.565,0.287,2.095,0.861
		s0.794,1.359,0.794,2.355V101.755z M92.868,99.229c0-0.547-0.104-0.971-0.313-1.271s-0.499-0.451-0.87-0.451
		c-0.375,0-0.665,0.15-0.87,0.451s-0.308,0.725-0.308,1.271v2.689c0,0.559,0.104,0.987,0.311,1.286s0.5,0.448,0.879,0.448
		c0.371,0,0.659-0.149,0.864-0.448s0.308-0.728,0.308-1.286V99.229z"/>
	<path fill="#202000" d="M101.458,101.755c0,1-0.263,1.785-0.788,2.355s-1.222,0.855-2.089,0.855c-0.875,0-1.576-0.285-2.104-0.855
		s-0.791-1.355-0.791-2.355v-2.35c0-0.996,0.263-1.781,0.788-2.355s1.224-0.861,2.095-0.861c0.867,0,1.565,0.287,2.095,0.861
		s0.794,1.359,0.794,2.355V101.755z M99.752,99.229c0-0.547-0.104-0.971-0.313-1.271s-0.499-0.451-0.87-0.451
		c-0.375,0-0.665,0.15-0.87,0.451s-0.308,0.725-0.308,1.271v2.689c0,0.559,0.104,0.987,0.311,1.286s0.5,0.448,0.879,0.448
		c0.371,0,0.659-0.149,0.864-0.448s0.308-0.728,0.308-1.286V99.229z"/>
</g>
<g opacity="0.5">
	<path fill="#FFFFFF" d="M50.686,106.862c0,2.2-1.8,4-4,4h-12c-2.2,0-4-1.8-4-4v-12c0-2.2,1.8-4,4-4h12c2.2,0,4,1.8,4,4V106.862z"/>
</g>
<g>
	<path fill="#202000" d="M37.721,96.188c0.332,0,0.64,0.03,0.923,0.091s0.563,0.149,0.841,0.267L39.18,97.8
		c-0.266-0.09-0.504-0.157-0.715-0.202s-0.455-0.067-0.732-0.067c-0.5,0-0.903,0.191-1.21,0.574s-0.46,0.916-0.46,1.6v0.275
		c0.227-0.223,0.497-0.396,0.812-0.519s0.665-0.185,1.052-0.185c0.73,0,1.301,0.259,1.711,0.776s0.615,1.192,0.615,2.024
		c0,0.855-0.266,1.551-0.797,2.086s-1.225,0.803-2.08,0.803c-0.891,0-1.616-0.305-2.177-0.914s-0.841-1.443-0.841-2.502v-1.787
		c0-1.082,0.317-1.948,0.952-2.599S36.748,96.188,37.721,96.188z M37.357,100.571c-0.309,0-0.571,0.05-0.788,0.149
		s-0.386,0.237-0.507,0.413v0.457c0,0.656,0.12,1.164,0.36,1.523s0.558,0.539,0.952,0.539c0.355,0,0.639-0.149,0.85-0.448
		s0.316-0.675,0.316-1.128c0-0.469-0.106-0.837-0.319-1.104S37.721,100.571,37.357,100.571z"/>
	<path fill="#202000" d="M47.096,104.843h-5.725v-1.119l2.643-2.988c0.395-0.465,0.675-0.858,0.841-1.181s0.249-0.618,0.249-0.888
		c0-0.352-0.088-0.633-0.264-0.844s-0.439-0.316-0.791-0.316c-0.371,0-0.658,0.135-0.861,0.404s-0.305,0.611-0.305,1.025h-1.664
		l-0.012-0.035c-0.02-0.758,0.23-1.399,0.75-1.925s1.217-0.788,2.092-0.788s1.555,0.224,2.039,0.671s0.727,1.048,0.727,1.802
		c0,0.512-0.136,0.979-0.407,1.4s-0.739,1.006-1.403,1.752l-1.406,1.688l0.012,0.029h3.486V104.843z"/>
</g>
</svg>
