<svg version="1.1" id="Calque_1" xmlns="http://www.w3.org/2000/svg" xmlns:xlink="http://www.w3.org/1999/xlink" x="0px" y="0px"
	 width="72px" height="32px" viewBox="0 0 72 32" enable-background="new 0 0 72 32" xml:space="preserve">
<path fill="#1D1D1B" d="M47.988,17.111L48,17c0-4.971-4.027-9-9-9c-3.34,0-6.223,1.84-7.773,4.543C30.551,12.207,29.805,12,29,12
	c-2.762,0-5,2.238-5,5l0.012,0.111C21.629,18.5,20,21.057,20,24c0,4.4,3.602,8,8,8h16c4.402,0,8-3.6,8-8
	C52,21.057,50.371,18.5,47.988,17.111z M44,30H28c-3.309,0-6-2.691-6-6c0-2.098,1.156-4.074,3.02-5.16l0.992-0.58v-1.148
	l-0.008-0.209C26.055,15.293,27.379,14,29,14c0.441,0,0.891,0.113,1.332,0.332l1.688,0.844l0.941-1.637
	C34.234,11.324,36.492,10,39,10c3.801,0,6.898,3.041,7,6.816l-0.008,0.121l-0.004,0.016v1.307l0.992,0.58
	C48.844,19.926,50,21.902,50,24C50,27.309,47.309,30,44,30z"/>
</svg>
