<?xml version="1.0" encoding="utf-8"?>
<!-- Generator: Adobe Illustrator 16.0.0, SVG Export Plug-In . SVG Version: 6.00 Build 0)  -->
<!DOCTYPE svg PUBLIC "-//W3C//DTD SVG 1.1//EN" "http://www.w3.org/Graphics/SVG/1.1/DTD/svg11.dtd">
<svg version="1.1" id="Calque_1" xmlns="http://www.w3.org/2000/svg" xmlns:xlink="http://www.w3.org/1999/xlink" x="0px" y="0px"
	 width="268px" height="145px" viewBox="0 0 268 145" enable-background="new 0 0 268 145" xml:space="preserve">
<g>
	<g>
	</g>
	<g>
	</g>
	<g>
	</g>
</g>
<rect x="155.608" y="43.639" fill="#FF7F00" width="17.882" height="14.307"/>
<rect x="155.608" y="22.182" fill="#FF7F00" width="17.882" height="14.307"/>
<rect x="155.608" y="0.723" fill="#FF7F00" width="17.882" height="14.305"/>
<circle fill="#FFFFFF" cx="72.25" cy="72.25" r="72.25"/>
<circle fill="#FF7F00" cx="72.25" cy="72.25" r="62.496"/>
<g>
	<g>
	</g>
	<g>
	</g>
	<g>
	</g>
	<g>
	</g>
</g>
<g>
	<g>
		
			<rect x="155.608" y="65.097" opacity="0.8" fill-rule="evenodd" clip-rule="evenodd" fill="#202000" width="17.882" height="14.306"/>
		<g>
			<path opacity="0.8" fill-rule="evenodd" clip-rule="evenodd" fill="#202000" d="M72.25,72.25V9.663
				c34.565,0,62.586,28.021,62.586,62.587c0,11.511-2.63,21.325-8.385,31.294L72.25,72.25z"/>
		</g>
	</g>
	<g>
		
			<rect x="155.608" y="43.639" opacity="0" fill-rule="evenodd" clip-rule="evenodd" fill="#202000" width="17.882" height="14.306"/>
		<g>
			<path opacity="0" fill-rule="evenodd" clip-rule="evenodd" fill="#202000" d="M72.25,72.25l54.201,31.294
				c-13.826,23.947-40.166,35.674-67.214,29.926L72.25,72.25z"/>
		</g>
	</g>
	<g>
		
			<rect x="155.608" y="22.181" opacity="0.5" fill-rule="evenodd" clip-rule="evenodd" fill="#9F9F8F" width="17.882" height="14.305"/>
		<g>
			<path opacity="0.5" fill-rule="evenodd" clip-rule="evenodd" fill="#9F9F8F" d="M72.25,72.25l-13.013,61.22
				c-18.021-3.831-31.978-13.971-41.189-29.926L72.25,72.25z"/>
		</g>
	</g>
	<g>
		<rect x="155.608" y="0.722" fill-rule="evenodd" clip-rule="evenodd" fill="#9F9F8F" width="17.882" height="14.306"/>
		<g>
			<path fill-rule="evenodd" clip-rule="evenodd" fill="#9F9F8F" d="M72.25,72.25l-54.202,31.294
				C0.766,73.608,11.021,35.331,40.956,18.048c9.969-5.754,19.783-8.385,31.294-8.385V72.25z"/>
		</g>
	</g>
</g>
<g>
	<g>
		<path fill="#202000" d="M184.981,10.389V3.562h2.689c0.879,0,1.605,0.262,2.18,0.785s0.861,1.195,0.861,2.016v1.23
			c0,0.824-0.287,1.496-0.861,2.016s-1.301,0.779-2.18,0.779H184.981z M186.692,4.869v4.219h0.979c0.395,0,0.715-0.14,0.961-0.419
			s0.369-0.638,0.369-1.075V6.357c0-0.434-0.123-0.79-0.369-1.069s-0.566-0.419-0.961-0.419H186.692z"/>
		<path fill="#202000" d="M196.524,7.506h-2.777v1.582h3.281v1.301h-4.992V3.562h4.992v1.307h-3.281v1.324h2.777V7.506z"/>
		<path fill="#202000" d="M200.157,9.088h2.83v1.301h-4.541V3.562h1.711V9.088z"/>
		<path fill="#202000" d="M205.759,10.389h-1.711V3.562h1.711V10.389z"/>
		<path fill="#202000" d="M209.925,8.561l0.047,0.223h0.035l0.041-0.193l1.541-5.027h1.787l-2.455,6.826h-1.852l-2.461-6.826h1.799
			L209.925,8.561z"/>
		<path fill="#202000" d="M218.737,7.506h-2.777v1.582h3.281v1.301h-4.992V3.562h4.992v1.307h-3.281v1.324h2.777V7.506z"/>
		<path fill="#202000" d="M222.37,7.939v2.449h-1.711V3.562h2.707c0.84,0,1.509,0.186,2.007,0.557s0.747,0.875,0.747,1.512
			c0,0.371-0.101,0.693-0.302,0.967s-0.495,0.494-0.882,0.662c0.445,0.117,0.767,0.316,0.964,0.598s0.296,0.627,0.296,1.037v0.486
			c0,0.141,0.012,0.312,0.035,0.513s0.064,0.339,0.123,0.413v0.082h-1.764c-0.043-0.074-0.07-0.213-0.082-0.416
			s-0.018-0.402-0.018-0.598V8.9c0-0.312-0.091-0.551-0.272-0.715s-0.448-0.246-0.8-0.246H222.37z M222.37,6.627h0.996
			c0.332,0,0.588-0.078,0.768-0.234s0.27-0.369,0.27-0.639c0-0.254-0.092-0.465-0.275-0.633s-0.438-0.252-0.762-0.252h-0.996V6.627z
			"/>
		<path fill="#202000" d="M229.952,6.492h0.035l1.307-2.93h1.857l-2.344,4.418v2.408h-1.711V7.928l-2.309-4.365h1.852L229.952,6.492
			z"/>
	</g>
	<g>
		<path fill="#202000" d="M190.519,29.521l0.012,0.035c0.02,0.785-0.216,1.38-0.706,1.784s-1.188,0.606-2.095,0.606
			c-0.879,0-1.59-0.259-2.133-0.776s-0.814-1.192-0.814-2.024v-1.424c0-0.828,0.271-1.501,0.814-2.019s1.254-0.776,2.133-0.776
			c0.914,0,1.615,0.202,2.104,0.606s0.723,0.995,0.703,1.772l-0.012,0.035h-1.652c0-0.395-0.087-0.678-0.261-0.85
			s-0.468-0.258-0.882-0.258c-0.395,0-0.699,0.137-0.914,0.41s-0.322,0.631-0.322,1.072v1.43c0,0.449,0.107,0.812,0.322,1.087
			s0.52,0.413,0.914,0.413c0.406,0,0.696-0.088,0.87-0.264s0.261-0.463,0.261-0.861H190.519z"/>
		<path fill="#202000" d="M197.737,29.146c0,0.832-0.283,1.509-0.85,2.03s-1.299,0.782-2.197,0.782s-1.632-0.261-2.2-0.782
			s-0.853-1.198-0.853-2.03v-1.424c0-0.828,0.282-1.501,0.847-2.019s1.298-0.776,2.2-0.776c0.898,0,1.632,0.26,2.2,0.779
			s0.853,1.191,0.853,2.016V29.146z M196.032,27.717c0-0.426-0.122-0.779-0.366-1.061s-0.571-0.422-0.981-0.422
			c-0.422,0-0.75,0.14-0.984,0.419s-0.352,0.634-0.352,1.063v1.43c0,0.438,0.118,0.798,0.354,1.081s0.565,0.425,0.987,0.425
			c0.414,0,0.741-0.142,0.981-0.425s0.36-0.644,0.36-1.081V27.717z"/>
		<path fill="#202000" d="M200.749,30.547h2.83v1.301h-4.541v-6.826h1.711V30.547z"/>
		<path fill="#202000" d="M206.351,30.547h2.83v1.301h-4.541v-6.826h1.711V30.547z"/>
		<path fill="#202000" d="M214.729,28.965h-2.777v1.582h3.281v1.301h-4.992v-6.826h4.992v1.307h-3.281v1.324h2.777V28.965z"/>
		<path fill="#202000" d="M222.188,29.521l0.012,0.035c0.02,0.785-0.216,1.38-0.706,1.784s-1.188,0.606-2.095,0.606
			c-0.879,0-1.59-0.259-2.133-0.776s-0.814-1.192-0.814-2.024v-1.424c0-0.828,0.271-1.501,0.814-2.019s1.254-0.776,2.133-0.776
			c0.914,0,1.615,0.202,2.104,0.606s0.723,0.995,0.703,1.772l-0.012,0.035h-1.652c0-0.395-0.087-0.678-0.261-0.85
			s-0.468-0.258-0.882-0.258c-0.395,0-0.699,0.137-0.914,0.41s-0.322,0.631-0.322,1.072v1.43c0,0.449,0.107,0.812,0.322,1.087
			s0.52,0.413,0.914,0.413c0.406,0,0.696-0.088,0.87-0.264s0.261-0.463,0.261-0.861H222.188z"/>
		<path fill="#202000" d="M228.798,26.328h-2.027v5.52h-1.717v-5.52h-1.998v-1.307h5.742V26.328z"/>
		<path fill="#202000" d="M231.546,31.848h-1.711v-6.826h1.711V31.848z"/>
		<path fill="#202000" d="M238.94,29.146c0,0.832-0.283,1.509-0.85,2.03s-1.299,0.782-2.197,0.782s-1.632-0.261-2.2-0.782
			s-0.853-1.198-0.853-2.03v-1.424c0-0.828,0.282-1.501,0.847-2.019s1.298-0.776,2.2-0.776c0.898,0,1.632,0.26,2.2,0.779
			s0.853,1.191,0.853,2.016V29.146z M237.235,27.717c0-0.426-0.122-0.779-0.366-1.061s-0.571-0.422-0.981-0.422
			c-0.422,0-0.75,0.14-0.984,0.419s-0.352,0.634-0.352,1.063v1.43c0,0.438,0.118,0.798,0.354,1.081s0.565,0.425,0.987,0.425
			c0.414,0,0.741-0.142,0.981-0.425s0.36-0.644,0.36-1.081V27.717z"/>
		<path fill="#202000" d="M246.358,31.848h-1.711l-2.66-4.201l-0.035,0.012v4.189h-1.711v-6.826h1.711l2.66,4.195l0.035-0.012
			v-4.184h1.711V31.848z"/>
	</g>
	<g>
		<path fill="#202000" d="M190.519,50.979l0.012,0.035c0.02,0.785-0.216,1.38-0.706,1.784s-1.188,0.606-2.095,0.606
			c-0.879,0-1.59-0.259-2.133-0.776s-0.814-1.192-0.814-2.024v-1.424c0-0.828,0.271-1.501,0.814-2.019s1.254-0.776,2.133-0.776
			c0.914,0,1.615,0.202,2.104,0.606s0.723,0.995,0.703,1.772l-0.012,0.035h-1.652c0-0.395-0.087-0.678-0.261-0.85
			s-0.468-0.258-0.882-0.258c-0.395,0-0.699,0.137-0.914,0.41s-0.322,0.631-0.322,1.072v1.43c0,0.449,0.107,0.812,0.322,1.087
			s0.52,0.413,0.914,0.413c0.406,0,0.696-0.088,0.87-0.264s0.261-0.463,0.261-0.861H190.519z"/>
		<path fill="#202000" d="M197.737,50.604c0,0.832-0.283,1.509-0.85,2.03s-1.299,0.782-2.197,0.782s-1.632-0.261-2.2-0.782
			s-0.853-1.198-0.853-2.03v-1.424c0-0.828,0.282-1.501,0.847-2.019s1.298-0.776,2.2-0.776c0.898,0,1.632,0.26,2.2,0.779
			s0.853,1.191,0.853,2.016V50.604z M196.032,49.175c0-0.426-0.122-0.779-0.366-1.061s-0.571-0.422-0.981-0.422
			c-0.422,0-0.75,0.14-0.984,0.419s-0.352,0.634-0.352,1.063v1.43c0,0.438,0.118,0.798,0.354,1.081s0.565,0.425,0.987,0.425
			c0.414,0,0.741-0.142,0.981-0.425s0.36-0.644,0.36-1.081V49.175z"/>
		<path fill="#202000" d="M205.155,53.306h-1.711l-2.66-4.201l-0.035,0.012v4.189h-1.711v-6.826h1.711l2.66,4.195l0.035-0.012
			v-4.184h1.711V53.306z"/>
		<path fill="#202000" d="M210.493,51.419c0-0.211-0.093-0.387-0.278-0.527s-0.522-0.266-1.011-0.375
			c-0.895-0.172-1.543-0.413-1.945-0.724s-0.604-0.78-0.604-1.409c0-0.574,0.243-1.051,0.729-1.43s1.142-0.568,1.966-0.568
			c0.859,0,1.529,0.193,2.01,0.58s0.711,0.908,0.691,1.564l-0.012,0.035h-1.652c0-0.281-0.081-0.498-0.243-0.65
			s-0.427-0.229-0.794-0.229c-0.348,0-0.601,0.064-0.759,0.193s-0.237,0.293-0.237,0.492c0,0.227,0.088,0.406,0.264,0.539
			s0.539,0.256,1.09,0.369c0.84,0.172,1.465,0.416,1.875,0.732s0.615,0.777,0.615,1.383c0,0.609-0.26,1.099-0.779,1.468
			s-1.209,0.554-2.068,0.554c-0.914,0-1.635-0.193-2.162-0.58s-0.779-0.916-0.756-1.588l0.012-0.035h1.652
			c0.008,0.328,0.122,0.561,0.343,0.697s0.524,0.205,0.911,0.205c0.391,0,0.679-0.063,0.864-0.19S210.493,51.63,210.493,51.419z"/>
		<path fill="#202000" d="M219.288,50.604c0,0.832-0.283,1.509-0.85,2.03s-1.299,0.782-2.197,0.782s-1.632-0.261-2.2-0.782
			s-0.853-1.198-0.853-2.03v-1.424c0-0.828,0.282-1.501,0.847-2.019s1.298-0.776,2.2-0.776c0.898,0,1.632,0.26,2.2,0.779
			s0.853,1.191,0.853,2.016V50.604z M217.583,49.175c0-0.426-0.122-0.779-0.366-1.061s-0.571-0.422-0.981-0.422
			c-0.422,0-0.75,0.14-0.984,0.419s-0.352,0.634-0.352,1.063v1.43c0,0.438,0.118,0.798,0.354,1.081s0.565,0.425,0.987,0.425
			c0.414,0,0.741-0.142,0.981-0.425s0.36-0.644,0.36-1.081V49.175z"/>
		<path fill="#202000" d="M222.3,52.005h2.83v1.301h-4.541v-6.826h1.711V52.005z"/>
		<path fill="#202000" d="M227.901,53.306h-1.711v-6.826h1.711V53.306z"/>
		<path fill="#202000" d="M229.419,53.306v-6.826h2.689c0.879,0,1.605,0.262,2.18,0.785s0.861,1.195,0.861,2.016v1.23
			c0,0.824-0.287,1.496-0.861,2.016s-1.301,0.779-2.18,0.779H229.419z M231.13,47.786v4.219h0.979c0.395,0,0.715-0.14,0.961-0.419
			s0.369-0.638,0.369-1.075v-1.236c0-0.434-0.123-0.79-0.369-1.069s-0.566-0.419-0.961-0.419H231.13z"/>
		<path fill="#202000" d="M240.698,52.093h-2.648l-0.434,1.213h-1.811l2.643-6.826h1.857l2.637,6.826h-1.805L240.698,52.093z
			 M238.519,50.78h1.711l-0.844-2.338h-0.035L238.519,50.78z"/>
		<path fill="#202000" d="M248.626,47.786h-2.027v5.52h-1.717v-5.52h-1.998v-1.307h5.742V47.786z"/>
		<path fill="#202000" d="M251.374,53.306h-1.711v-6.826h1.711V53.306z"/>
		<path fill="#202000" d="M258.769,50.604c0,0.832-0.283,1.509-0.85,2.03s-1.299,0.782-2.197,0.782s-1.632-0.261-2.2-0.782
			s-0.853-1.198-0.853-2.03v-1.424c0-0.828,0.282-1.501,0.847-2.019s1.298-0.776,2.2-0.776c0.898,0,1.632,0.26,2.2,0.779
			s0.853,1.191,0.853,2.016V50.604z M257.063,49.175c0-0.426-0.122-0.779-0.366-1.061s-0.571-0.422-0.981-0.422
			c-0.422,0-0.75,0.14-0.984,0.419s-0.352,0.634-0.352,1.063v1.43c0,0.438,0.118,0.798,0.354,1.081s0.565,0.425,0.987,0.425
			c0.414,0,0.741-0.142,0.981-0.425s0.36-0.644,0.36-1.081V49.175z"/>
		<path fill="#202000" d="M266.187,53.306h-1.711l-2.66-4.201l-0.035,0.012v4.189h-1.711v-6.826h1.711l2.66,4.195l0.035-0.012
			v-4.184h1.711V53.306z"/>
	</g>
	<g>
		<path fill="#202000" d="M186.692,72.626v2.139h-1.711v-6.826h2.947c0.867,0,1.563,0.22,2.089,0.659s0.788,1.001,0.788,1.685
			c0,0.688-0.263,1.25-0.788,1.688s-1.222,0.656-2.089,0.656H186.692z M186.692,71.313h1.236c0.363,0,0.649-0.1,0.858-0.299
			s0.313-0.439,0.313-0.721c0-0.285-0.104-0.531-0.313-0.738s-0.495-0.311-0.858-0.311h-1.236V71.313z"/>
		<path fill="#202000" d="M193.642,72.315v2.449h-1.711v-6.826h2.707c0.84,0,1.509,0.186,2.007,0.557s0.747,0.875,0.747,1.512
			c0,0.371-0.101,0.693-0.302,0.967s-0.495,0.494-0.882,0.662c0.445,0.117,0.767,0.316,0.964,0.598s0.296,0.627,0.296,1.037v0.486
			c0,0.141,0.012,0.312,0.035,0.513s0.064,0.339,0.123,0.413v0.082h-1.764c-0.043-0.074-0.07-0.213-0.082-0.416
			s-0.018-0.402-0.018-0.598v-0.475c0-0.312-0.091-0.551-0.272-0.715s-0.448-0.246-0.8-0.246H193.642z M193.642,71.003h0.996
			c0.332,0,0.588-0.078,0.768-0.234s0.27-0.369,0.27-0.639c0-0.254-0.092-0.465-0.275-0.633s-0.438-0.252-0.762-0.252h-0.996V71.003
			z"/>
		<path fill="#202000" d="M203.368,71.882h-2.777v1.582h3.281v1.301h-4.992v-6.826h4.992v1.307h-3.281v1.324h2.777V71.882z"/>
		<path fill="#202000" d="M207.001,72.626v2.139h-1.711v-6.826h2.947c0.867,0,1.563,0.22,2.089,0.659s0.788,1.001,0.788,1.685
			c0,0.688-0.263,1.25-0.788,1.688s-1.222,0.656-2.089,0.656H207.001z M207.001,71.313h1.236c0.363,0,0.649-0.1,0.858-0.299
			s0.313-0.439,0.313-0.721c0-0.285-0.104-0.531-0.313-0.738s-0.495-0.311-0.858-0.311h-1.236V71.313z"/>
		<path fill="#202000" d="M216.212,73.552h-2.648l-0.434,1.213h-1.811l2.643-6.826h1.857l2.637,6.826h-1.805L216.212,73.552z
			 M214.032,72.239h1.711l-0.844-2.338h-0.035L214.032,72.239z"/>
		<path fill="#202000" d="M220.958,72.315v2.449h-1.711v-6.826h2.707c0.84,0,1.509,0.186,2.007,0.557s0.747,0.875,0.747,1.512
			c0,0.371-0.101,0.693-0.302,0.967s-0.495,0.494-0.882,0.662c0.445,0.117,0.767,0.316,0.964,0.598s0.296,0.627,0.296,1.037v0.486
			c0,0.141,0.012,0.312,0.035,0.513s0.064,0.339,0.123,0.413v0.082h-1.764c-0.043-0.074-0.07-0.213-0.082-0.416
			s-0.018-0.402-0.018-0.598v-0.475c0-0.312-0.091-0.551-0.272-0.715s-0.448-0.246-0.8-0.246H220.958z M220.958,71.003h0.996
			c0.332,0,0.588-0.078,0.768-0.234s0.27-0.369,0.27-0.639c0-0.254-0.092-0.465-0.275-0.633s-0.438-0.252-0.762-0.252h-0.996V71.003
			z"/>
		<path fill="#202000" d="M230.421,73.552h-2.648l-0.434,1.213h-1.811l2.643-6.826h1.857l2.637,6.826h-1.805L230.421,73.552z
			 M228.241,72.239h1.711l-0.844-2.338h-0.035L228.241,72.239z"/>
		<path fill="#202000" d="M238.349,69.245h-2.027v5.52h-1.717v-5.52h-1.998v-1.307h5.742V69.245z"/>
		<path fill="#202000" d="M241.097,74.765h-1.711v-6.826h1.711V74.765z"/>
		<path fill="#202000" d="M248.491,72.063c0,0.832-0.283,1.509-0.85,2.03s-1.299,0.782-2.197,0.782s-1.632-0.261-2.2-0.782
			s-0.853-1.198-0.853-2.03V70.64c0-0.828,0.282-1.501,0.847-2.019s1.298-0.776,2.2-0.776c0.898,0,1.632,0.26,2.2,0.779
			s0.853,1.191,0.853,2.016V72.063z M246.786,70.634c0-0.426-0.122-0.779-0.366-1.061s-0.571-0.422-0.981-0.422
			c-0.422,0-0.75,0.14-0.984,0.419s-0.352,0.634-0.352,1.063v1.43c0,0.438,0.118,0.798,0.354,1.081s0.565,0.425,0.987,0.425
			c0.414,0,0.741-0.142,0.981-0.425s0.36-0.644,0.36-1.081V70.634z"/>
		<path fill="#202000" d="M255.909,74.765h-1.711l-2.66-4.201l-0.035,0.012v4.189h-1.711v-6.826h1.711l2.66,4.195l0.035-0.012
			v-4.184h1.711V74.765z"/>
	</g>
</g>
<g opacity="0.5">
	<path fill="#FFFFFF" d="M48.236,60.772c0,2.2-1.8,4-4,4h-12c-2.2,0-4-1.8-4-4v-12c0-2.2,1.8-4,4-4h12c2.2,0,4,1.8,4,4V60.772z"/>
</g>
<g>
	<path fill="#202000" d="M35.608,54.991l0.492-4.77h4.758v1.371H37.5l-0.234,1.992c0.16-0.117,0.361-0.214,0.604-0.29
		s0.506-0.118,0.791-0.126c0.793-0.012,1.407,0.233,1.843,0.735s0.653,1.206,0.653,2.112c0,0.836-0.236,1.521-0.709,2.057
		s-1.195,0.803-2.168,0.803c-0.785,0-1.457-0.208-2.016-0.624s-0.828-0.987-0.809-1.714l0.012-0.029l1.646-0.076
		c0,0.355,0.107,0.633,0.322,0.832s0.496,0.299,0.844,0.299c0.406,0,0.702-0.133,0.888-0.398s0.278-0.645,0.278-1.137
		s-0.102-0.884-0.305-1.175s-0.504-0.437-0.902-0.437c-0.328,0-0.579,0.061-0.753,0.182s-0.298,0.285-0.372,0.492L35.608,54.991z"/>
</g>
<g opacity="0.5">
	<path fill="#FFFFFF" d="M58.235,109.709c0,2.2-1.8,4-4,4h-12c-2.2,0-4-1.8-4-4v-12c0-2.2,1.8-4,4-4h12c2.2,0,4,1.8,4,4V109.709z"/>
</g>
<g>
	<path fill="#202000" d="M51.203,107.689h-5.725v-1.119l2.643-2.988c0.395-0.465,0.675-0.858,0.841-1.181s0.249-0.618,0.249-0.888
		c0-0.352-0.088-0.633-0.264-0.844s-0.439-0.316-0.791-0.316c-0.371,0-0.658,0.135-0.861,0.404s-0.305,0.611-0.305,1.025h-1.664
		l-0.012-0.035c-0.02-0.758,0.23-1.399,0.75-1.925s1.217-0.788,2.092-0.788s1.555,0.224,2.039,0.671s0.727,1.048,0.727,1.802
		c0,0.512-0.136,0.979-0.407,1.4s-0.739,1.006-1.403,1.752l-1.406,1.688l0.012,0.029h3.486V107.689z"/>
</g>
<g opacity="0.5">
	<path fill="#FFFFFF" d="M99.236,109.709c0,2.2-1.8,4-4,4h-12c-2.2,0-4-1.8-4-4v-12c0-2.2,1.8-4,4-4h12c2.2,0,4,1.8,4,4V109.709z"/>
</g>
<g>
	<path fill="#202000" d="M89.187,102.674c0.406,0,0.708-0.105,0.905-0.316s0.296-0.508,0.296-0.891c0-0.32-0.104-0.586-0.311-0.797
		s-0.496-0.316-0.867-0.316c-0.312,0-0.575,0.096-0.788,0.287s-0.319,0.436-0.319,0.732H86.45l-0.012-0.035
		c-0.023-0.668,0.234-1.219,0.773-1.652s1.205-0.65,1.998-0.65c0.883,0,1.584,0.208,2.104,0.624s0.779,1.013,0.779,1.79
		c0,0.391-0.112,0.749-0.337,1.075s-0.532,0.583-0.923,0.771c0.445,0.168,0.789,0.423,1.031,0.765s0.363,0.755,0.363,1.239
		c0,0.781-0.282,1.396-0.847,1.843s-1.288,0.671-2.171,0.671c-0.777,0-1.457-0.211-2.039-0.633s-0.863-1.014-0.844-1.775
		l0.012-0.035h1.664c0,0.32,0.112,0.589,0.337,0.806s0.515,0.325,0.87,0.325c0.391,0,0.707-0.115,0.949-0.346
		s0.363-0.521,0.363-0.873c0-0.449-0.113-0.782-0.34-0.999s-0.559-0.325-0.996-0.325h-0.943v-1.283H89.187z"/>
</g>
<g opacity="0.5">
	<path fill="#FFFFFF" d="M119.236,56.792c0,2.2-1.8,4-4,4h-12c-2.2,0-4-1.8-4-4v-12c0-2.2,1.8-4,4-4h12c2.2,0,4,1.8,4,4V56.792z"/>
</g>
<g>
	<path fill="#202000" d="M106.608,51.011l0.492-4.77h4.758v1.371H108.5l-0.234,1.992c0.16-0.117,0.361-0.214,0.604-0.29
		s0.506-0.118,0.791-0.126c0.793-0.012,1.407,0.233,1.843,0.735s0.653,1.206,0.653,2.112c0,0.836-0.236,1.521-0.709,2.057
		s-1.195,0.803-2.168,0.803c-0.785,0-1.457-0.208-2.016-0.624s-0.828-0.987-0.809-1.714l0.012-0.029l1.646-0.076
		c0,0.355,0.107,0.633,0.322,0.832s0.496,0.299,0.844,0.299c0.406,0,0.702-0.133,0.888-0.398s0.278-0.645,0.278-1.137
		s-0.102-0.884-0.305-1.175s-0.504-0.437-0.902-0.437c-0.328,0-0.579,0.061-0.753,0.182s-0.298,0.285-0.372,0.492L106.608,51.011z"
		/>
</g>
</svg>
