<?xml version="1.0" encoding="utf-8"?>
<!-- Generator: Adobe Illustrator 16.0.0, SVG Export Plug-In . SVG Version: 6.00 Build 0)  -->
<!DOCTYPE svg PUBLIC "-//W3C//DTD SVG 1.1//EN" "http://www.w3.org/Graphics/SVG/1.1/DTD/svg11.dtd">
<svg version="1.1" id="Calque_1" xmlns="http://www.w3.org/2000/svg" xmlns:xlink="http://www.w3.org/1999/xlink" x="0px" y="0px"
	 width="268px" height="145px" viewBox="0 0 268 145" enable-background="new 0 0 268 145" xml:space="preserve">
<g>
	<g>
	</g>
	<g>
	</g>
	<g>
	</g>
</g>
<g>
	<g>
		<g>
			<g>
				<path fill="#202000" d="M195.115,119.973l0.418-4.055h4.044v1.166h-2.854l-0.199,1.693c0.137-0.1,0.308-0.182,0.514-0.247
					c0.205-0.064,0.43-0.1,0.672-0.106c0.674-0.01,1.196,0.198,1.566,0.625s0.556,1.025,0.556,1.795
					c0,0.711-0.201,1.294-0.603,1.748c-0.402,0.455-1.017,0.683-1.844,0.683c-0.667,0-1.238-0.177-1.713-0.53
					s-0.704-0.839-0.688-1.457l0.01-0.024l1.4-0.065c0,0.303,0.091,0.538,0.273,0.708c0.183,0.169,0.422,0.254,0.717,0.254
					c0.346,0,0.598-0.113,0.755-0.339c0.158-0.226,0.236-0.548,0.236-0.967c0-0.418-0.086-0.751-0.259-0.998
					s-0.428-0.371-0.767-0.371c-0.279,0-0.492,0.052-0.641,0.154c-0.147,0.104-0.253,0.242-0.315,0.418L195.115,119.973z"/>
				<path fill="#202000" d="M205.653,120.545c0,0.851-0.224,1.518-0.67,2.002c-0.446,0.485-1.038,0.728-1.775,0.728
					c-0.744,0-1.34-0.242-1.788-0.728c-0.448-0.484-0.673-1.151-0.673-2.002v-1.997c0-0.847,0.224-1.514,0.67-2.002
					c0.447-0.488,1.04-0.732,1.781-0.732c0.736,0,1.33,0.244,1.78,0.732s0.675,1.155,0.675,2.002V120.545z M204.204,118.398
					c0-0.465-0.089-0.825-0.267-1.08c-0.178-0.256-0.424-0.384-0.739-0.384c-0.319,0-0.565,0.128-0.74,0.384
					c-0.174,0.255-0.261,0.615-0.261,1.08v2.286c0,0.475,0.088,0.839,0.264,1.094c0.176,0.254,0.425,0.381,0.747,0.381
					c0.315,0,0.561-0.127,0.734-0.381c0.175-0.255,0.262-0.619,0.262-1.094V118.398z"/>
				<path fill="#202000" d="M216.586,120.545c0,0.851-0.224,1.518-0.67,2.002c-0.446,0.485-1.038,0.728-1.775,0.728
					c-0.744,0-1.34-0.242-1.788-0.728c-0.448-0.484-0.673-1.151-0.673-2.002v-1.997c0-0.847,0.224-1.514,0.67-2.002
					c0.447-0.488,1.04-0.732,1.781-0.732c0.736,0,1.33,0.244,1.78,0.732s0.675,1.155,0.675,2.002V120.545z M215.137,118.398
					c0-0.465-0.089-0.825-0.267-1.08c-0.178-0.256-0.424-0.384-0.739-0.384c-0.319,0-0.565,0.128-0.74,0.384
					c-0.174,0.255-0.261,0.615-0.261,1.08v2.286c0,0.475,0.088,0.839,0.264,1.094c0.176,0.254,0.425,0.381,0.747,0.381
					c0.315,0,0.561-0.127,0.734-0.381c0.175-0.255,0.262-0.619,0.262-1.094V118.398z"/>
				<path fill="#202000" d="M222.438,120.545c0,0.851-0.224,1.518-0.67,2.002c-0.446,0.485-1.038,0.728-1.775,0.728
					c-0.744,0-1.34-0.242-1.788-0.728c-0.448-0.484-0.673-1.151-0.673-2.002v-1.997c0-0.847,0.224-1.514,0.67-2.002
					c0.447-0.488,1.04-0.732,1.781-0.732c0.736,0,1.33,0.244,1.78,0.732s0.675,1.155,0.675,2.002V120.545z M220.989,118.398
					c0-0.465-0.089-0.825-0.267-1.08c-0.178-0.256-0.424-0.384-0.739-0.384c-0.319,0-0.565,0.128-0.74,0.384
					c-0.174,0.255-0.261,0.615-0.261,1.08v2.286c0,0.475,0.088,0.839,0.264,1.094c0.176,0.254,0.425,0.381,0.747,0.381
					c0.315,0,0.561-0.127,0.734-0.381c0.175-0.255,0.262-0.619,0.262-1.094V118.398z"/>
				<path fill="#202000" d="M228.29,120.545c0,0.851-0.224,1.518-0.67,2.002c-0.446,0.485-1.038,0.728-1.775,0.728
					c-0.744,0-1.34-0.242-1.788-0.728c-0.448-0.484-0.673-1.151-0.673-2.002v-1.997c0-0.847,0.224-1.514,0.67-2.002
					c0.447-0.488,1.04-0.732,1.781-0.732c0.736,0,1.33,0.244,1.78,0.732s0.675,1.155,0.675,2.002V120.545z M226.841,118.398
					c0-0.465-0.089-0.825-0.267-1.08c-0.178-0.256-0.424-0.384-0.739-0.384c-0.319,0-0.565,0.128-0.74,0.384
					c-0.174,0.255-0.261,0.615-0.261,1.08v2.286c0,0.475,0.088,0.839,0.264,1.094c0.176,0.254,0.425,0.381,0.747,0.381
					c0.315,0,0.561-0.127,0.734-0.381c0.175-0.255,0.262-0.619,0.262-1.094V118.398z"/>
			</g>
		</g>
		<g>
			<g>
				<path fill="#202000" d="M198.388,94.559h-1.449v-5.986h-1.5v-1.111l2.949-0.259V94.559z"/>
				<path fill="#202000" d="M205.653,91.934c0,0.851-0.224,1.518-0.67,2.002c-0.446,0.485-1.038,0.728-1.775,0.728
					c-0.744,0-1.34-0.242-1.788-0.728c-0.448-0.484-0.673-1.151-0.673-2.002v-1.997c0-0.847,0.224-1.514,0.67-2.002
					c0.447-0.488,1.04-0.732,1.781-0.732c0.736,0,1.33,0.244,1.78,0.732s0.675,1.155,0.675,2.002V91.934z M204.204,89.787
					c0-0.465-0.089-0.825-0.267-1.08c-0.178-0.256-0.424-0.384-0.739-0.384c-0.319,0-0.565,0.128-0.74,0.384
					c-0.174,0.255-0.261,0.615-0.261,1.08v2.286c0,0.475,0.088,0.839,0.264,1.094c0.176,0.254,0.425,0.381,0.747,0.381
					c0.315,0,0.561-0.127,0.734-0.381c0.175-0.255,0.262-0.619,0.262-1.094V89.787z"/>
				<path fill="#202000" d="M211.506,91.934c0,0.851-0.224,1.518-0.67,2.002c-0.446,0.485-1.038,0.728-1.775,0.728
					c-0.744,0-1.34-0.242-1.788-0.728c-0.448-0.484-0.673-1.151-0.673-2.002v-1.997c0-0.847,0.224-1.514,0.67-2.002
					c0.447-0.488,1.04-0.732,1.781-0.732c0.736,0,1.33,0.244,1.78,0.732s0.675,1.155,0.675,2.002V91.934z M210.057,89.787
					c0-0.465-0.089-0.825-0.267-1.08c-0.178-0.256-0.424-0.384-0.739-0.384c-0.319,0-0.565,0.128-0.74,0.384
					c-0.174,0.255-0.261,0.615-0.261,1.08v2.286c0,0.475,0.088,0.839,0.264,1.094c0.176,0.254,0.425,0.381,0.747,0.381
					c0.315,0,0.561-0.127,0.734-0.381c0.175-0.255,0.262-0.619,0.262-1.094V89.787z"/>
				<path fill="#202000" d="M219.897,91.934c0,0.851-0.224,1.518-0.67,2.002c-0.446,0.485-1.038,0.728-1.775,0.728
					c-0.744,0-1.34-0.242-1.788-0.728c-0.448-0.484-0.673-1.151-0.673-2.002v-1.997c0-0.847,0.224-1.514,0.67-2.002
					c0.447-0.488,1.04-0.732,1.781-0.732c0.736,0,1.33,0.244,1.78,0.732s0.675,1.155,0.675,2.002V91.934z M218.448,89.787
					c0-0.465-0.089-0.825-0.267-1.08c-0.178-0.256-0.424-0.384-0.739-0.384c-0.319,0-0.565,0.128-0.74,0.384
					c-0.174,0.255-0.261,0.615-0.261,1.08v2.286c0,0.475,0.088,0.839,0.264,1.094c0.176,0.254,0.425,0.381,0.747,0.381
					c0.315,0,0.561-0.127,0.734-0.381c0.175-0.255,0.262-0.619,0.262-1.094V89.787z"/>
				<path fill="#202000" d="M225.75,91.934c0,0.851-0.224,1.518-0.67,2.002c-0.446,0.485-1.038,0.728-1.775,0.728
					c-0.744,0-1.34-0.242-1.788-0.728c-0.448-0.484-0.673-1.151-0.673-2.002v-1.997c0-0.847,0.224-1.514,0.67-2.002
					c0.447-0.488,1.04-0.732,1.781-0.732c0.736,0,1.33,0.244,1.78,0.732s0.675,1.155,0.675,2.002V91.934z M224.301,89.787
					c0-0.465-0.089-0.825-0.267-1.08c-0.178-0.256-0.424-0.384-0.739-0.384c-0.319,0-0.565,0.128-0.74,0.384
					c-0.174,0.255-0.261,0.615-0.261,1.08v2.286c0,0.475,0.088,0.839,0.264,1.094c0.176,0.254,0.425,0.381,0.747,0.381
					c0.315,0,0.561-0.127,0.734-0.381c0.175-0.255,0.262-0.619,0.262-1.094V89.787z"/>
				<path fill="#202000" d="M231.603,91.934c0,0.851-0.224,1.518-0.67,2.002c-0.446,0.485-1.038,0.728-1.775,0.728
					c-0.744,0-1.34-0.242-1.788-0.728c-0.448-0.484-0.673-1.151-0.673-2.002v-1.997c0-0.847,0.224-1.514,0.67-2.002
					c0.447-0.488,1.04-0.732,1.781-0.732c0.736,0,1.33,0.244,1.78,0.732s0.675,1.155,0.675,2.002V91.934z M230.153,89.787
					c0-0.465-0.089-0.825-0.267-1.08c-0.178-0.256-0.424-0.384-0.739-0.384c-0.319,0-0.565,0.128-0.74,0.384
					c-0.174,0.255-0.261,0.615-0.261,1.08v2.286c0,0.475,0.088,0.839,0.264,1.094c0.176,0.254,0.425,0.381,0.747,0.381
					c0.315,0,0.561-0.127,0.734-0.381c0.175-0.255,0.262-0.619,0.262-1.094V89.787z"/>
			</g>
		</g>
		<g>
			<g>
				<path fill="#202000" d="M198.388,65.947h-1.449v-5.986h-1.5V58.85l2.949-0.259V65.947z"/>
				<path fill="#202000" d="M200.967,62.75l0.418-4.055h4.044v1.166h-2.854l-0.199,1.693c0.137-0.1,0.308-0.182,0.514-0.247
					c0.205-0.064,0.43-0.1,0.672-0.106c0.674-0.01,1.196,0.198,1.566,0.625s0.556,1.025,0.556,1.795
					c0,0.711-0.201,1.294-0.603,1.748c-0.402,0.455-1.017,0.683-1.844,0.683c-0.667,0-1.238-0.177-1.713-0.53
					s-0.704-0.839-0.688-1.457l0.01-0.024l1.4-0.065c0,0.303,0.091,0.538,0.273,0.708c0.183,0.169,0.422,0.254,0.717,0.254
					c0.346,0,0.598-0.113,0.755-0.339c0.158-0.226,0.236-0.548,0.236-0.967c0-0.418-0.086-0.751-0.259-0.998
					s-0.428-0.371-0.767-0.371c-0.279,0-0.492,0.052-0.641,0.154c-0.147,0.104-0.253,0.242-0.315,0.418L200.967,62.75z"/>
				<path fill="#202000" d="M211.506,63.322c0,0.851-0.224,1.518-0.67,2.002c-0.446,0.485-1.038,0.728-1.775,0.728
					c-0.744,0-1.34-0.242-1.788-0.728c-0.448-0.484-0.673-1.151-0.673-2.002v-1.997c0-0.847,0.224-1.514,0.67-2.002
					c0.447-0.488,1.04-0.732,1.781-0.732c0.736,0,1.33,0.244,1.78,0.732s0.675,1.155,0.675,2.002V63.322z M210.057,61.176
					c0-0.465-0.089-0.825-0.267-1.08c-0.178-0.256-0.424-0.384-0.739-0.384c-0.319,0-0.565,0.128-0.74,0.384
					c-0.174,0.255-0.261,0.615-0.261,1.08v2.286c0,0.475,0.088,0.839,0.264,1.094c0.176,0.254,0.425,0.381,0.747,0.381
					c0.315,0,0.561-0.127,0.734-0.381c0.175-0.255,0.262-0.619,0.262-1.094V61.176z"/>
				<path fill="#202000" d="M219.897,63.322c0,0.851-0.224,1.518-0.67,2.002c-0.446,0.485-1.038,0.728-1.775,0.728
					c-0.744,0-1.34-0.242-1.788-0.728c-0.448-0.484-0.673-1.151-0.673-2.002v-1.997c0-0.847,0.224-1.514,0.67-2.002
					c0.447-0.488,1.04-0.732,1.781-0.732c0.736,0,1.33,0.244,1.78,0.732s0.675,1.155,0.675,2.002V63.322z M218.448,61.176
					c0-0.465-0.089-0.825-0.267-1.08c-0.178-0.256-0.424-0.384-0.739-0.384c-0.319,0-0.565,0.128-0.74,0.384
					c-0.174,0.255-0.261,0.615-0.261,1.08v2.286c0,0.475,0.088,0.839,0.264,1.094c0.176,0.254,0.425,0.381,0.747,0.381
					c0.315,0,0.561-0.127,0.734-0.381c0.175-0.255,0.262-0.619,0.262-1.094V61.176z"/>
				<path fill="#202000" d="M225.75,63.322c0,0.851-0.224,1.518-0.67,2.002c-0.446,0.485-1.038,0.728-1.775,0.728
					c-0.744,0-1.34-0.242-1.788-0.728c-0.448-0.484-0.673-1.151-0.673-2.002v-1.997c0-0.847,0.224-1.514,0.67-2.002
					c0.447-0.488,1.04-0.732,1.781-0.732c0.736,0,1.33,0.244,1.78,0.732s0.675,1.155,0.675,2.002V63.322z M224.301,61.176
					c0-0.465-0.089-0.825-0.267-1.08c-0.178-0.256-0.424-0.384-0.739-0.384c-0.319,0-0.565,0.128-0.74,0.384
					c-0.174,0.255-0.261,0.615-0.261,1.08v2.286c0,0.475,0.088,0.839,0.264,1.094c0.176,0.254,0.425,0.381,0.747,0.381
					c0.315,0,0.561-0.127,0.734-0.381c0.175-0.255,0.262-0.619,0.262-1.094V61.176z"/>
				<path fill="#202000" d="M231.603,63.322c0,0.851-0.224,1.518-0.67,2.002c-0.446,0.485-1.038,0.728-1.775,0.728
					c-0.744,0-1.34-0.242-1.788-0.728c-0.448-0.484-0.673-1.151-0.673-2.002v-1.997c0-0.847,0.224-1.514,0.67-2.002
					c0.447-0.488,1.04-0.732,1.781-0.732c0.736,0,1.33,0.244,1.78,0.732s0.675,1.155,0.675,2.002V63.322z M230.153,61.176
					c0-0.465-0.089-0.825-0.267-1.08c-0.178-0.256-0.424-0.384-0.739-0.384c-0.319,0-0.565,0.128-0.74,0.384
					c-0.174,0.255-0.261,0.615-0.261,1.08v2.286c0,0.475,0.088,0.839,0.264,1.094c0.176,0.254,0.425,0.381,0.747,0.381
					c0.315,0,0.561-0.127,0.734-0.381c0.175-0.255,0.262-0.619,0.262-1.094V61.176z"/>
			</g>
		</g>
		<g>
			<g>
				<path fill="#202000" d="M199.871,37.336h-4.865v-0.951l2.246-2.54c0.335-0.395,0.573-0.729,0.715-1.004
					c0.141-0.273,0.211-0.525,0.211-0.754c0-0.299-0.074-0.538-0.224-0.717c-0.149-0.179-0.374-0.269-0.673-0.269
					c-0.315,0-0.56,0.114-0.731,0.343c-0.173,0.229-0.26,0.52-0.26,0.872h-1.414l-0.01-0.03c-0.017-0.644,0.195-1.189,0.638-1.636
					c0.441-0.446,1.034-0.669,1.777-0.669c0.744,0,1.322,0.19,1.733,0.57c0.412,0.38,0.618,0.891,0.618,1.532
					c0,0.435-0.116,0.832-0.347,1.19c-0.23,0.358-0.628,0.855-1.192,1.489l-1.195,1.434l0.01,0.025h2.963V37.336z"/>
				<path fill="#202000" d="M205.653,34.711c0,0.85-0.224,1.517-0.67,2.002s-1.038,0.727-1.775,0.727
					c-0.744,0-1.34-0.242-1.788-0.727s-0.673-1.152-0.673-2.002v-1.998c0-0.847,0.224-1.514,0.67-2.002
					c0.447-0.488,1.04-0.732,1.781-0.732c0.736,0,1.33,0.244,1.78,0.732s0.675,1.155,0.675,2.002V34.711z M204.204,32.564
					c0-0.465-0.089-0.825-0.267-1.081s-0.424-0.383-0.739-0.383c-0.319,0-0.565,0.127-0.74,0.383
					c-0.174,0.256-0.261,0.616-0.261,1.081v2.286c0,0.475,0.088,0.839,0.264,1.093s0.425,0.381,0.747,0.381
					c0.315,0,0.561-0.127,0.734-0.381c0.175-0.254,0.262-0.618,0.262-1.093V32.564z"/>
				<path fill="#202000" d="M211.506,34.711c0,0.85-0.224,1.517-0.67,2.002s-1.038,0.727-1.775,0.727
					c-0.744,0-1.34-0.242-1.788-0.727s-0.673-1.152-0.673-2.002v-1.998c0-0.847,0.224-1.514,0.67-2.002
					c0.447-0.488,1.04-0.732,1.781-0.732c0.736,0,1.33,0.244,1.78,0.732s0.675,1.155,0.675,2.002V34.711z M210.057,32.564
					c0-0.465-0.089-0.825-0.267-1.081s-0.424-0.383-0.739-0.383c-0.319,0-0.565,0.127-0.74,0.383
					c-0.174,0.256-0.261,0.616-0.261,1.081v2.286c0,0.475,0.088,0.839,0.264,1.093s0.425,0.381,0.747,0.381
					c0.315,0,0.561-0.127,0.734-0.381c0.175-0.254,0.262-0.618,0.262-1.093V32.564z"/>
				<path fill="#202000" d="M219.897,34.711c0,0.85-0.224,1.517-0.67,2.002s-1.038,0.727-1.775,0.727
					c-0.744,0-1.34-0.242-1.788-0.727s-0.673-1.152-0.673-2.002v-1.998c0-0.847,0.224-1.514,0.67-2.002
					c0.447-0.488,1.04-0.732,1.781-0.732c0.736,0,1.33,0.244,1.78,0.732s0.675,1.155,0.675,2.002V34.711z M218.448,32.564
					c0-0.465-0.089-0.825-0.267-1.081s-0.424-0.383-0.739-0.383c-0.319,0-0.565,0.127-0.74,0.383
					c-0.174,0.256-0.261,0.616-0.261,1.081v2.286c0,0.475,0.088,0.839,0.264,1.093s0.425,0.381,0.747,0.381
					c0.315,0,0.561-0.127,0.734-0.381c0.175-0.254,0.262-0.618,0.262-1.093V32.564z"/>
				<path fill="#202000" d="M225.75,34.711c0,0.85-0.224,1.517-0.67,2.002s-1.038,0.727-1.775,0.727
					c-0.744,0-1.34-0.242-1.788-0.727s-0.673-1.152-0.673-2.002v-1.998c0-0.847,0.224-1.514,0.67-2.002
					c0.447-0.488,1.04-0.732,1.781-0.732c0.736,0,1.33,0.244,1.78,0.732s0.675,1.155,0.675,2.002V34.711z M224.301,32.564
					c0-0.465-0.089-0.825-0.267-1.081s-0.424-0.383-0.739-0.383c-0.319,0-0.565,0.127-0.74,0.383
					c-0.174,0.256-0.261,0.616-0.261,1.081v2.286c0,0.475,0.088,0.839,0.264,1.093s0.425,0.381,0.747,0.381
					c0.315,0,0.561-0.127,0.734-0.381c0.175-0.254,0.262-0.618,0.262-1.093V32.564z"/>
				<path fill="#202000" d="M231.603,34.711c0,0.85-0.224,1.517-0.67,2.002s-1.038,0.727-1.775,0.727
					c-0.744,0-1.34-0.242-1.788-0.727s-0.673-1.152-0.673-2.002v-1.998c0-0.847,0.224-1.514,0.67-2.002
					c0.447-0.488,1.04-0.732,1.781-0.732c0.736,0,1.33,0.244,1.78,0.732s0.675,1.155,0.675,2.002V34.711z M230.153,32.564
					c0-0.465-0.089-0.825-0.267-1.081s-0.424-0.383-0.739-0.383c-0.319,0-0.565,0.127-0.74,0.383
					c-0.174,0.256-0.261,0.616-0.261,1.081v2.286c0,0.475,0.088,0.839,0.264,1.093s0.425,0.381,0.747,0.381
					c0.315,0,0.561-0.127,0.734-0.381c0.175-0.254,0.262-0.618,0.262-1.093V32.564z"/>
			</g>
		</g>
		<g>
			<g>
				<path fill="#202000" d="M199.871,8.726h-4.865V7.774l2.246-2.54c0.335-0.395,0.573-0.729,0.715-1.004
					c0.141-0.273,0.211-0.525,0.211-0.754c0-0.299-0.074-0.538-0.224-0.717c-0.149-0.179-0.374-0.269-0.673-0.269
					c-0.315,0-0.56,0.114-0.731,0.343c-0.173,0.229-0.26,0.52-0.26,0.872h-1.414l-0.01-0.03c-0.017-0.644,0.195-1.189,0.638-1.636
					c0.441-0.446,1.034-0.669,1.777-0.669c0.744,0,1.322,0.19,1.733,0.57c0.412,0.38,0.618,0.891,0.618,1.532
					c0,0.435-0.116,0.832-0.347,1.19c-0.23,0.358-0.628,0.855-1.192,1.489l-1.195,1.434l0.01,0.025h2.963V8.726z"/>
				<path fill="#202000" d="M200.967,5.528l0.418-4.054h4.044V2.64h-2.854l-0.199,1.693c0.137-0.1,0.308-0.182,0.514-0.247
					c0.205-0.065,0.43-0.101,0.672-0.107c0.674-0.01,1.196,0.199,1.566,0.625c0.37,0.426,0.556,1.025,0.556,1.795
					c0,0.71-0.201,1.293-0.603,1.748c-0.402,0.455-1.017,0.682-1.844,0.682c-0.667,0-1.238-0.177-1.713-0.53
					s-0.704-0.839-0.688-1.457l0.01-0.025l1.4-0.064c0,0.302,0.091,0.538,0.273,0.707s0.422,0.254,0.717,0.254
					c0.346,0,0.598-0.113,0.755-0.338c0.158-0.226,0.236-0.548,0.236-0.966s-0.086-0.751-0.259-0.999s-0.428-0.371-0.767-0.371
					c-0.279,0-0.492,0.052-0.641,0.154c-0.147,0.103-0.253,0.243-0.315,0.418L200.967,5.528z"/>
				<path fill="#202000" d="M211.506,6.101c0,0.85-0.224,1.517-0.67,2.002s-1.038,0.727-1.775,0.727
					c-0.744,0-1.34-0.242-1.788-0.727S206.6,6.951,206.6,6.101V4.104c0-0.847,0.224-1.514,0.67-2.002
					c0.447-0.488,1.04-0.732,1.781-0.732c0.736,0,1.33,0.244,1.78,0.732s0.675,1.155,0.675,2.002V6.101z M210.057,3.954
					c0-0.465-0.089-0.825-0.267-1.081s-0.424-0.383-0.739-0.383c-0.319,0-0.565,0.127-0.74,0.383
					c-0.174,0.256-0.261,0.616-0.261,1.081V6.24c0,0.475,0.088,0.839,0.264,1.093s0.425,0.381,0.747,0.381
					c0.315,0,0.561-0.127,0.734-0.381c0.175-0.254,0.262-0.618,0.262-1.093V3.954z"/>
				<path fill="#202000" d="M219.897,6.101c0,0.85-0.224,1.517-0.67,2.002s-1.038,0.727-1.775,0.727
					c-0.744,0-1.34-0.242-1.788-0.727s-0.673-1.152-0.673-2.002V4.104c0-0.847,0.224-1.514,0.67-2.002
					c0.447-0.488,1.04-0.732,1.781-0.732c0.736,0,1.33,0.244,1.78,0.732s0.675,1.155,0.675,2.002V6.101z M218.448,3.954
					c0-0.465-0.089-0.825-0.267-1.081s-0.424-0.383-0.739-0.383c-0.319,0-0.565,0.127-0.74,0.383
					c-0.174,0.256-0.261,0.616-0.261,1.081V6.24c0,0.475,0.088,0.839,0.264,1.093s0.425,0.381,0.747,0.381
					c0.315,0,0.561-0.127,0.734-0.381c0.175-0.254,0.262-0.618,0.262-1.093V3.954z"/>
				<path fill="#202000" d="M225.75,6.101c0,0.85-0.224,1.517-0.67,2.002s-1.038,0.727-1.775,0.727c-0.744,0-1.34-0.242-1.788-0.727
					s-0.673-1.152-0.673-2.002V4.104c0-0.847,0.224-1.514,0.67-2.002c0.447-0.488,1.04-0.732,1.781-0.732
					c0.736,0,1.33,0.244,1.78,0.732s0.675,1.155,0.675,2.002V6.101z M224.301,3.954c0-0.465-0.089-0.825-0.267-1.081
					s-0.424-0.383-0.739-0.383c-0.319,0-0.565,0.127-0.74,0.383c-0.174,0.256-0.261,0.616-0.261,1.081V6.24
					c0,0.475,0.088,0.839,0.264,1.093s0.425,0.381,0.747,0.381c0.315,0,0.561-0.127,0.734-0.381
					c0.175-0.254,0.262-0.618,0.262-1.093V3.954z"/>
				<path fill="#202000" d="M231.603,6.101c0,0.85-0.224,1.517-0.67,2.002s-1.038,0.727-1.775,0.727
					c-0.744,0-1.34-0.242-1.788-0.727s-0.673-1.152-0.673-2.002V4.104c0-0.847,0.224-1.514,0.67-2.002
					c0.447-0.488,1.04-0.732,1.781-0.732c0.736,0,1.33,0.244,1.78,0.732s0.675,1.155,0.675,2.002V6.101z M230.153,3.954
					c0-0.465-0.089-0.825-0.267-1.081s-0.424-0.383-0.739-0.383c-0.319,0-0.565,0.127-0.74,0.383
					c-0.174,0.256-0.261,0.616-0.261,1.081V6.24c0,0.475,0.088,0.839,0.264,1.093s0.425,0.381,0.747,0.381
					c0.315,0,0.561-0.127,0.734-0.381c0.175-0.254,0.262-0.618,0.262-1.093V3.954z"/>
			</g>
		</g>
	</g>
	<line fill="none" stroke="#000000" stroke-miterlimit="10" x1="161.027" y1="143.105" x2="161.027" y2="0.05"/>
	<g>
		<g>
			<line fill="none" stroke="#000000" stroke-miterlimit="10" x1="161.027" y1="143.105" x2="157.451" y2="143.105"/>
			<line fill="none" stroke="#000000" stroke-miterlimit="10" x1="161.027" y1="114.494" x2="157.451" y2="114.494"/>
			<line fill="none" stroke="#000000" stroke-miterlimit="10" x1="161.027" y1="85.883" x2="157.451" y2="85.883"/>
			<line fill="none" stroke="#000000" stroke-miterlimit="10" x1="161.027" y1="57.272" x2="157.451" y2="57.272"/>
			<line fill="none" stroke="#000000" stroke-miterlimit="10" x1="161.027" y1="28.661" x2="157.451" y2="28.661"/>
			<line fill="none" stroke="#000000" stroke-miterlimit="10" x1="161.027" y1="0.05" x2="157.451" y2="0.05"/>
		</g>
	</g>
</g>
<g>
	<g>
		<rect x="30" y="33.281" fill="#FFCC33" width="103" height="109.824"/>
		<rect x="30" y="1.052" fill="#9F9F8F" width="103" height="32.229"/>
	</g>
	<g>
		<g>
			<path fill="#202000" d="M45.082,13.904h-2.36v1.345h2.789v1.105h-4.243v-5.802h4.243v1.111h-2.789v1.125h2.36V13.904z"/>
			<path fill="#202000" d="M48.932,12.47l1.007-1.917h1.678l-1.768,2.874l1.808,2.929h-1.668l-1.041-1.958l-1.041,1.958h-1.679
				l1.818-2.929l-1.773-2.874h1.668L48.932,12.47z"/>
			<path fill="#202000" d="M57.001,11.663h-1.724v4.691h-1.459v-4.691H52.12v-1.111h4.881V11.663z"/>
			<path fill="#202000" d="M59.337,14.272v2.082h-1.454v-5.802h2.301c0.714,0,1.282,0.158,1.706,0.473
				c0.423,0.315,0.635,0.744,0.635,1.285c0,0.315-0.085,0.589-0.257,0.822c-0.171,0.232-0.42,0.42-0.749,0.562
				c0.378,0.1,0.651,0.269,0.819,0.508c0.167,0.239,0.251,0.533,0.251,0.881v0.414c0,0.119,0.011,0.265,0.03,0.436
				s0.055,0.288,0.104,0.351v0.07h-1.499c-0.036-0.063-0.06-0.181-0.069-0.354c-0.011-0.173-0.016-0.342-0.016-0.508v-0.403
				c0-0.266-0.077-0.468-0.231-0.607c-0.154-0.14-0.381-0.209-0.68-0.209H59.337z M59.337,13.157h0.847
				c0.282,0,0.5-0.066,0.652-0.199c0.153-0.133,0.229-0.314,0.229-0.543c0-0.216-0.078-0.395-0.234-0.538
				c-0.156-0.143-0.372-0.214-0.647-0.214h-0.847V13.157z"/>
			<path fill="#202000" d="M67.38,15.324h-2.251l-0.369,1.031h-1.539l2.247-5.802h1.578l2.241,5.802h-1.533L67.38,15.324z
				 M65.527,14.208h1.454l-0.717-1.987h-0.03L65.527,14.208z"/>
			<path fill="#202000" d="M77.206,14.377l0.011,0.03c0.017,0.667-0.184,1.173-0.601,1.517s-1.01,0.515-1.78,0.515
				c-0.747,0-1.352-0.22-1.813-0.66c-0.461-0.44-0.692-1.014-0.692-1.721v-1.21c0-0.704,0.231-1.276,0.692-1.716
				c0.462-0.44,1.066-0.66,1.813-0.66c0.776,0,1.373,0.172,1.788,0.516c0.415,0.343,0.614,0.846,0.598,1.506l-0.011,0.03h-1.404
				c0-0.335-0.073-0.576-0.222-0.722c-0.147-0.146-0.397-0.219-0.749-0.219c-0.336,0-0.595,0.117-0.777,0.349
				c-0.183,0.232-0.273,0.537-0.273,0.912v1.215c0,0.382,0.091,0.689,0.273,0.924c0.183,0.234,0.441,0.351,0.777,0.351
				c0.345,0,0.592-0.075,0.739-0.224s0.222-0.394,0.222-0.732H77.206z"/>
			<path fill="#202000" d="M83.343,14.059c0,0.707-0.24,1.282-0.722,1.726s-1.104,0.665-1.868,0.665s-1.387-0.222-1.87-0.665
				s-0.725-1.019-0.725-1.726v-1.21c0-0.704,0.24-1.276,0.72-1.716s1.104-0.66,1.87-0.66c0.764,0,1.387,0.221,1.87,0.662
				c0.483,0.442,0.725,1.013,0.725,1.713V14.059z M81.894,12.843c0-0.362-0.104-0.663-0.312-0.901
				c-0.207-0.239-0.485-0.359-0.834-0.359c-0.358,0-0.638,0.119-0.837,0.356s-0.299,0.539-0.299,0.904v1.215
				c0,0.372,0.101,0.678,0.302,0.919s0.48,0.361,0.839,0.361c0.353,0,0.63-0.12,0.834-0.361c0.205-0.241,0.307-0.547,0.307-0.919
				V12.843z"/>
			<path fill="#202000" d="M87.621,14.751c0-0.18-0.079-0.329-0.237-0.448c-0.157-0.12-0.443-0.226-0.858-0.319
				c-0.761-0.146-1.312-0.351-1.654-0.615c-0.342-0.264-0.513-0.663-0.513-1.198c0-0.488,0.207-0.893,0.62-1.215
				c0.413-0.322,0.971-0.483,1.671-0.483c0.73,0,1.3,0.164,1.708,0.493c0.409,0.329,0.604,0.772,0.588,1.33l-0.01,0.03h-1.404
				c0-0.239-0.069-0.423-0.207-0.553s-0.362-0.194-0.675-0.194c-0.296,0-0.511,0.055-0.645,0.165
				c-0.135,0.109-0.202,0.249-0.202,0.418c0,0.192,0.075,0.345,0.225,0.458s0.458,0.217,0.926,0.314
				c0.714,0.146,1.245,0.354,1.594,0.623c0.349,0.269,0.523,0.661,0.523,1.175c0,0.518-0.221,0.934-0.663,1.248
				c-0.441,0.313-1.027,0.471-1.758,0.471c-0.777,0-1.39-0.165-1.838-0.493s-0.662-0.779-0.643-1.35l0.01-0.03h1.405
				c0.006,0.279,0.104,0.476,0.291,0.592c0.188,0.117,0.446,0.174,0.774,0.174c0.332,0,0.577-0.054,0.734-0.162
				C87.542,15.074,87.621,14.93,87.621,14.751z"/>
			<path fill="#202000" d="M94.579,11.663h-1.724v4.691h-1.459v-4.691h-1.698v-1.111h4.881V11.663z"/>
			<path fill="#202000" d="M44.689,26.687c0-0.272-0.078-0.49-0.234-0.655c-0.156-0.164-0.434-0.323-0.832-0.476
				c-0.75-0.252-1.307-0.546-1.668-0.881c-0.362-0.335-0.543-0.807-0.543-1.415c0-0.561,0.181-1.02,0.543-1.377
				c0.361-0.357,0.853-0.567,1.474-0.63v-1.066h0.792v1.081c0.598,0.083,1.066,0.316,1.404,0.7c0.339,0.383,0.504,0.882,0.493,1.497
				l-0.01,0.025h-1.419c0-0.362-0.083-0.64-0.247-0.834c-0.164-0.194-0.395-0.291-0.689-0.291c-0.312,0-0.538,0.082-0.678,0.244
				s-0.209,0.382-0.209,0.657c0,0.256,0.074,0.46,0.222,0.613c0.147,0.152,0.431,0.317,0.85,0.493
				c0.736,0.239,1.288,0.532,1.653,0.879c0.365,0.347,0.548,0.822,0.548,1.427c0,0.578-0.181,1.04-0.541,1.387
				c-0.36,0.347-0.853,0.552-1.477,0.615v0.981h-0.792v-0.981c-0.638-0.056-1.161-0.268-1.571-0.635s-0.608-0.906-0.595-1.616
				l0.015-0.03h1.414c0,0.425,0.104,0.728,0.312,0.909c0.208,0.181,0.478,0.271,0.81,0.271c0.325,0,0.569-0.08,0.732-0.239
				C44.607,27.18,44.689,26.963,44.689,26.687z"/>
			<path fill="#202000" d="M52.554,21.239c0.282,0,0.544,0.025,0.784,0.077c0.241,0.051,0.479,0.127,0.715,0.227l-0.259,1.066
				c-0.226-0.077-0.429-0.134-0.607-0.172c-0.18-0.038-0.388-0.058-0.623-0.058c-0.425,0-0.768,0.163-1.028,0.488
				c-0.261,0.326-0.391,0.779-0.391,1.36v0.234c0.192-0.189,0.422-0.336,0.689-0.441c0.268-0.104,0.565-0.157,0.894-0.157
				c0.621,0,1.106,0.22,1.455,0.66s0.522,1.013,0.522,1.721c0,0.727-0.226,1.318-0.677,1.773c-0.452,0.455-1.041,0.682-1.769,0.682
				c-0.757,0-1.374-0.259-1.851-0.777s-0.715-1.227-0.715-2.126v-1.519c0-0.92,0.271-1.656,0.81-2.209
				C51.044,21.515,51.727,21.239,52.554,21.239z M52.245,24.964c-0.263,0-0.486,0.042-0.67,0.127
				c-0.185,0.085-0.328,0.202-0.431,0.351v0.389c0,0.558,0.102,0.989,0.306,1.295s0.475,0.458,0.81,0.458
				c0.302,0,0.543-0.127,0.722-0.381c0.18-0.254,0.27-0.573,0.27-0.958c0-0.398-0.091-0.711-0.271-0.939
				S52.554,24.964,52.245,24.964z"/>
			<path fill="#202000" d="M60.452,25.97c0,0.85-0.224,1.517-0.67,2.002s-1.038,0.727-1.775,0.727c-0.744,0-1.34-0.242-1.788-0.727
				s-0.673-1.152-0.673-2.002v-1.998c0-0.847,0.224-1.514,0.67-2.002c0.447-0.488,1.04-0.732,1.781-0.732
				c0.736,0,1.33,0.244,1.78,0.732s0.675,1.155,0.675,2.002V25.97z M59.003,23.823c0-0.465-0.089-0.825-0.267-1.081
				s-0.424-0.383-0.739-0.383c-0.319,0-0.565,0.127-0.74,0.383c-0.174,0.256-0.261,0.616-0.261,1.081v2.286
				c0,0.475,0.088,0.839,0.264,1.093s0.425,0.381,0.747,0.381c0.315,0,0.561-0.127,0.734-0.381c0.175-0.254,0.262-0.618,0.262-1.093
				V23.823z"/>
			<path fill="#202000" d="M63.003,28.53l-0.792,1.569h-0.972l0.349-1.613V27.35h1.415V28.53z"/>
			<path fill="#202000" d="M68.934,25.97c0,0.85-0.224,1.517-0.67,2.002s-1.038,0.727-1.775,0.727c-0.744,0-1.34-0.242-1.788-0.727
				s-0.673-1.152-0.673-2.002v-1.998c0-0.847,0.224-1.514,0.67-2.002c0.447-0.488,1.04-0.732,1.781-0.732
				c0.736,0,1.33,0.244,1.78,0.732s0.675,1.155,0.675,2.002V25.97z M67.484,23.823c0-0.465-0.089-0.825-0.267-1.081
				s-0.424-0.383-0.739-0.383c-0.319,0-0.565,0.127-0.74,0.383c-0.174,0.256-0.261,0.616-0.261,1.081v2.286
				c0,0.475,0.088,0.839,0.264,1.093s0.425,0.381,0.747,0.381c0.315,0,0.561-0.127,0.734-0.381c0.175-0.254,0.262-0.618,0.262-1.093
				V23.823z"/>
			<path fill="#202000" d="M74.786,25.97c0,0.85-0.224,1.517-0.67,2.002s-1.038,0.727-1.775,0.727c-0.744,0-1.34-0.242-1.788-0.727
				S69.88,26.82,69.88,25.97v-1.998c0-0.847,0.224-1.514,0.67-2.002c0.447-0.488,1.04-0.732,1.781-0.732
				c0.736,0,1.33,0.244,1.78,0.732s0.675,1.155,0.675,2.002V25.97z M73.337,23.823c0-0.465-0.089-0.825-0.267-1.081
				s-0.424-0.383-0.739-0.383c-0.319,0-0.565,0.127-0.74,0.383c-0.174,0.256-0.261,0.616-0.261,1.081v2.286
				c0,0.475,0.088,0.839,0.264,1.093s0.425,0.381,0.747,0.381c0.315,0,0.561-0.127,0.734-0.381c0.175-0.254,0.262-0.618,0.262-1.093
				V23.823z"/>
			<path fill="#202000" d="M80.638,25.97c0,0.85-0.224,1.517-0.67,2.002s-1.038,0.727-1.775,0.727c-0.744,0-1.34-0.242-1.788-0.727
				s-0.673-1.152-0.673-2.002v-1.998c0-0.847,0.224-1.514,0.67-2.002c0.447-0.488,1.04-0.732,1.781-0.732
				c0.736,0,1.33,0.244,1.78,0.732s0.675,1.155,0.675,2.002V25.97z M79.188,23.823c0-0.465-0.089-0.825-0.267-1.081
				s-0.424-0.383-0.739-0.383c-0.319,0-0.565,0.127-0.74,0.383c-0.174,0.256-0.261,0.616-0.261,1.081v2.286
				c0,0.475,0.088,0.839,0.264,1.093s0.425,0.381,0.747,0.381c0.315,0,0.561-0.127,0.734-0.381c0.175-0.254,0.262-0.618,0.262-1.093
				V23.823z"/>
		</g>
		<g>
			<path fill="#202000" d="M45.974,47.143l0.011,0.03c0.017,0.667-0.184,1.173-0.601,1.517s-1.01,0.515-1.78,0.515
				c-0.747,0-1.352-0.22-1.813-0.66c-0.461-0.44-0.692-1.014-0.692-1.721v-1.21c0-0.704,0.231-1.276,0.692-1.716
				c0.462-0.44,1.066-0.66,1.813-0.66c0.776,0,1.373,0.172,1.788,0.516c0.415,0.343,0.614,0.846,0.598,1.506l-0.011,0.03h-1.404
				c0-0.335-0.073-0.576-0.222-0.722c-0.147-0.146-0.397-0.219-0.749-0.219c-0.336,0-0.595,0.117-0.777,0.349
				c-0.183,0.232-0.273,0.537-0.273,0.912v1.215c0,0.382,0.091,0.689,0.273,0.924c0.183,0.234,0.441,0.351,0.777,0.351
				c0.345,0,0.592-0.075,0.739-0.224s0.222-0.394,0.222-0.732H45.974z"/>
			<path fill="#202000" d="M52.229,43.317v3.745c0,0.678-0.237,1.206-0.71,1.584c-0.474,0.378-1.102,0.568-1.886,0.568
				c-0.786,0-1.416-0.19-1.89-0.57c-0.473-0.38-0.71-0.907-0.71-1.582v-3.745h1.455v3.745c0,0.342,0.098,0.601,0.293,0.777
				c0.196,0.176,0.48,0.264,0.852,0.264c0.372,0,0.654-0.087,0.848-0.261c0.192-0.174,0.288-0.434,0.288-0.78v-3.745H52.229z"/>
			<path fill="#202000" d="M54.924,47.038v2.082H53.47v-5.802h2.301c0.714,0,1.282,0.158,1.706,0.473
				c0.423,0.315,0.635,0.744,0.635,1.285c0,0.315-0.085,0.589-0.257,0.822c-0.171,0.232-0.42,0.42-0.749,0.562
				c0.378,0.1,0.651,0.269,0.819,0.508c0.167,0.239,0.251,0.533,0.251,0.881v0.414c0,0.119,0.011,0.265,0.03,0.436
				s0.055,0.288,0.104,0.351v0.07h-1.499c-0.036-0.063-0.06-0.181-0.069-0.354c-0.011-0.173-0.016-0.342-0.016-0.508v-0.403
				c0-0.266-0.077-0.468-0.231-0.607c-0.154-0.14-0.381-0.209-0.68-0.209H54.924z M54.924,45.922h0.847
				c0.282,0,0.5-0.066,0.652-0.199c0.153-0.133,0.229-0.314,0.229-0.543c0-0.216-0.078-0.395-0.234-0.538
				c-0.156-0.143-0.372-0.214-0.647-0.214h-0.847V45.922z"/>
			<path fill="#202000" d="M60.831,47.038v2.082h-1.454v-5.802h2.301c0.714,0,1.282,0.158,1.706,0.473
				c0.423,0.315,0.635,0.744,0.635,1.285c0,0.315-0.085,0.589-0.257,0.822c-0.171,0.232-0.42,0.42-0.749,0.562
				c0.378,0.1,0.651,0.269,0.819,0.508c0.167,0.239,0.251,0.533,0.251,0.881v0.414c0,0.119,0.011,0.265,0.03,0.436
				s0.055,0.288,0.104,0.351v0.07h-1.499c-0.036-0.063-0.06-0.181-0.069-0.354c-0.011-0.173-0.016-0.342-0.016-0.508v-0.403
				c0-0.266-0.077-0.468-0.231-0.607c-0.154-0.14-0.381-0.209-0.68-0.209H60.831z M60.831,45.922h0.847
				c0.282,0,0.5-0.066,0.652-0.199c0.153-0.133,0.229-0.314,0.229-0.543c0-0.216-0.078-0.395-0.234-0.538
				c-0.156-0.143-0.372-0.214-0.647-0.214h-0.847V45.922z"/>
			<path fill="#202000" d="M69.098,46.669h-2.36v1.345h2.789v1.105h-4.243v-5.802h4.243v1.111h-2.789v1.125h2.36V46.669z"/>
			<path fill="#202000" d="M75.932,49.12h-1.454l-2.261-3.571l-0.03,0.01v3.561h-1.454v-5.802h1.454l2.261,3.566l0.03-0.01v-3.556
				h1.454V49.12z"/>
			<path fill="#202000" d="M81.773,44.428H80.05v4.691h-1.459v-4.691h-1.698v-1.111h4.881V44.428z"/>
			<path fill="#202000" d="M85.195,49.12v-5.802h2.315c0.718,0,1.276,0.135,1.677,0.406c0.399,0.271,0.6,0.67,0.6,1.198
				c0,0.276-0.087,0.521-0.262,0.737c-0.174,0.216-0.421,0.38-0.739,0.493c0.418,0.083,0.735,0.243,0.951,0.48
				s0.324,0.519,0.324,0.844c0,0.541-0.19,0.951-0.57,1.228c-0.381,0.277-0.926,0.416-1.637,0.416H85.195z M86.649,45.728h0.861
				c0.272,0,0.479-0.052,0.618-0.157c0.14-0.104,0.209-0.256,0.209-0.456c0-0.229-0.067-0.394-0.202-0.496
				c-0.134-0.101-0.343-0.152-0.625-0.152h-0.861V45.728z M86.649,46.654v1.36h1.205c0.27,0,0.463-0.053,0.58-0.157
				c0.118-0.104,0.177-0.265,0.177-0.48c0-0.239-0.059-0.419-0.177-0.541c-0.117-0.121-0.311-0.182-0.58-0.182H86.649z"/>
			<path fill="#202000" d="M96.218,43.317v3.745c0,0.678-0.237,1.206-0.71,1.584c-0.474,0.378-1.102,0.568-1.886,0.568
				c-0.786,0-1.416-0.19-1.89-0.57c-0.473-0.38-0.71-0.907-0.71-1.582v-3.745h1.455v3.745c0,0.342,0.098,0.601,0.293,0.777
				c0.196,0.176,0.48,0.264,0.852,0.264c0.372,0,0.654-0.087,0.848-0.261c0.192-0.174,0.288-0.434,0.288-0.78v-3.745H96.218z"/>
			<path fill="#202000" d="M97.457,49.12v-5.802h2.286c0.747,0,1.364,0.223,1.853,0.667s0.732,1.016,0.732,1.713v1.046
				c0,0.7-0.244,1.271-0.732,1.713c-0.488,0.442-1.105,0.663-1.853,0.663H97.457z M98.911,44.428v3.586h0.832
				c0.335,0,0.607-0.119,0.816-0.356c0.209-0.237,0.313-0.542,0.313-0.914v-1.051c0-0.368-0.104-0.671-0.313-0.909
				s-0.481-0.356-0.816-0.356H98.911z"/>
			<path fill="#202000" d="M108.489,48.318c-0.223,0.249-0.537,0.459-0.943,0.63c-0.407,0.171-0.935,0.256-1.582,0.256
				c-0.793,0-1.438-0.22-1.935-0.66s-0.745-1.014-0.745-1.721v-1.21c0-0.7,0.244-1.271,0.732-1.713
				c0.488-0.441,1.114-0.662,1.878-0.662c0.776,0,1.385,0.164,1.823,0.49c0.438,0.327,0.648,0.787,0.632,1.377l-0.01,0.03h-1.404
				c0-0.275-0.082-0.476-0.244-0.6c-0.163-0.125-0.429-0.187-0.797-0.187c-0.355,0-0.637,0.117-0.845,0.352
				c-0.207,0.234-0.311,0.537-0.311,0.909v1.215c0,0.378,0.108,0.686,0.326,0.921c0.217,0.236,0.517,0.354,0.898,0.354
				c0.289,0,0.515-0.02,0.678-0.06c0.162-0.04,0.295-0.095,0.398-0.165v-0.901h-1.091v-0.961h2.54V48.318z"/>
			<path fill="#202000" d="M113.499,46.669h-2.36v1.345h2.789v1.105h-4.243v-5.802h4.243v1.111h-2.789v1.125h2.36V46.669z"/>
			<path fill="#202000" d="M119.61,44.428h-1.724v4.691h-1.459v-4.691h-1.698v-1.111h4.881V44.428z"/>
			<path fill="#202000" d="M44.689,59.452c0-0.272-0.078-0.49-0.234-0.655c-0.156-0.164-0.434-0.323-0.832-0.476
				c-0.75-0.252-1.307-0.546-1.668-0.881c-0.362-0.335-0.543-0.807-0.543-1.415c0-0.561,0.181-1.02,0.543-1.377
				c0.361-0.357,0.853-0.567,1.474-0.63v-1.066h0.792v1.081c0.598,0.083,1.066,0.316,1.404,0.7c0.339,0.383,0.504,0.882,0.493,1.497
				l-0.01,0.025h-1.419c0-0.362-0.083-0.64-0.247-0.834c-0.164-0.194-0.395-0.291-0.689-0.291c-0.312,0-0.538,0.082-0.678,0.244
				s-0.209,0.382-0.209,0.657c0,0.256,0.074,0.46,0.222,0.613c0.147,0.152,0.431,0.317,0.85,0.493
				c0.736,0.239,1.288,0.532,1.653,0.879c0.365,0.347,0.548,0.822,0.548,1.427c0,0.578-0.181,1.04-0.541,1.387
				c-0.36,0.347-0.853,0.552-1.477,0.615v0.981h-0.792v-0.981c-0.638-0.056-1.161-0.268-1.571-0.635s-0.608-0.906-0.595-1.616
				l0.015-0.03h1.414c0,0.425,0.104,0.728,0.312,0.909c0.208,0.181,0.478,0.271,0.81,0.271c0.325,0,0.569-0.08,0.732-0.239
				C44.607,59.945,44.689,59.728,44.689,59.452z"/>
			<path fill="#202000" d="M54.67,61.36h-4.865v-0.951l2.246-2.54c0.335-0.395,0.573-0.729,0.715-1.004
				c0.141-0.273,0.211-0.525,0.211-0.754c0-0.299-0.074-0.538-0.224-0.717c-0.149-0.179-0.374-0.269-0.673-0.269
				c-0.315,0-0.56,0.114-0.731,0.343c-0.173,0.229-0.26,0.52-0.26,0.872h-1.414l-0.01-0.03c-0.017-0.644,0.195-1.189,0.638-1.636
				c0.441-0.446,1.034-0.669,1.777-0.669c0.744,0,1.322,0.19,1.733,0.57c0.412,0.38,0.618,0.891,0.618,1.532
				c0,0.435-0.116,0.832-0.347,1.19c-0.23,0.358-0.628,0.855-1.192,1.489l-1.195,1.434l0.01,0.025h2.963V61.36z"/>
			<path fill="#202000" d="M60.452,58.735c0,0.85-0.224,1.517-0.67,2.002s-1.038,0.727-1.775,0.727c-0.744,0-1.34-0.242-1.788-0.727
				s-0.673-1.152-0.673-2.002v-1.998c0-0.847,0.224-1.514,0.67-2.002c0.447-0.488,1.04-0.732,1.781-0.732
				c0.736,0,1.33,0.244,1.78,0.732s0.675,1.155,0.675,2.002V58.735z M59.003,56.588c0-0.465-0.089-0.825-0.267-1.081
				s-0.424-0.383-0.739-0.383c-0.319,0-0.565,0.127-0.74,0.383c-0.174,0.256-0.261,0.616-0.261,1.081v2.286
				c0,0.475,0.088,0.839,0.264,1.093s0.425,0.381,0.747,0.381c0.315,0,0.561-0.127,0.734-0.381c0.175-0.254,0.262-0.618,0.262-1.093
				V56.588z"/>
			<path fill="#202000" d="M66.305,58.735c0,0.85-0.224,1.517-0.67,2.002s-1.038,0.727-1.775,0.727c-0.744,0-1.34-0.242-1.788-0.727
				s-0.673-1.152-0.673-2.002v-1.998c0-0.847,0.224-1.514,0.67-2.002c0.447-0.488,1.04-0.732,1.781-0.732
				c0.736,0,1.33,0.244,1.78,0.732s0.675,1.155,0.675,2.002V58.735z M64.855,56.588c0-0.465-0.089-0.825-0.267-1.081
				s-0.424-0.383-0.739-0.383c-0.319,0-0.565,0.127-0.74,0.383c-0.174,0.256-0.261,0.616-0.261,1.081v2.286
				c0,0.475,0.088,0.839,0.264,1.093s0.425,0.381,0.747,0.381c0.315,0,0.561-0.127,0.734-0.381c0.175-0.254,0.262-0.618,0.262-1.093
				V56.588z"/>
			<path fill="#202000" d="M74.696,58.735c0,0.85-0.224,1.517-0.67,2.002s-1.038,0.727-1.775,0.727c-0.744,0-1.34-0.242-1.788-0.727
				s-0.673-1.152-0.673-2.002v-1.998c0-0.847,0.224-1.514,0.67-2.002c0.447-0.488,1.04-0.732,1.781-0.732
				c0.736,0,1.33,0.244,1.78,0.732s0.675,1.155,0.675,2.002V58.735z M73.247,56.588c0-0.465-0.089-0.825-0.267-1.081
				s-0.424-0.383-0.739-0.383c-0.319,0-0.565,0.127-0.74,0.383c-0.174,0.256-0.261,0.616-0.261,1.081v2.286
				c0,0.475,0.088,0.839,0.264,1.093s0.425,0.381,0.747,0.381c0.315,0,0.561-0.127,0.734-0.381c0.175-0.254,0.262-0.618,0.262-1.093
				V56.588z"/>
			<path fill="#202000" d="M80.549,58.735c0,0.85-0.224,1.517-0.67,2.002s-1.038,0.727-1.775,0.727c-0.744,0-1.34-0.242-1.788-0.727
				s-0.673-1.152-0.673-2.002v-1.998c0-0.847,0.224-1.514,0.67-2.002c0.447-0.488,1.04-0.732,1.781-0.732
				c0.736,0,1.33,0.244,1.78,0.732s0.675,1.155,0.675,2.002V58.735z M79.1,56.588c0-0.465-0.089-0.825-0.267-1.081
				s-0.424-0.383-0.739-0.383c-0.319,0-0.565,0.127-0.74,0.383c-0.174,0.256-0.261,0.616-0.261,1.081v2.286
				c0,0.475,0.088,0.839,0.264,1.093s0.425,0.381,0.747,0.381c0.315,0,0.561-0.127,0.734-0.381c0.175-0.254,0.262-0.618,0.262-1.093
				V56.588z"/>
			<path fill="#202000" d="M86.4,58.735c0,0.85-0.224,1.517-0.67,2.002s-1.038,0.727-1.775,0.727c-0.744,0-1.34-0.242-1.788-0.727
				s-0.673-1.152-0.673-2.002v-1.998c0-0.847,0.224-1.514,0.67-2.002c0.447-0.488,1.04-0.732,1.781-0.732
				c0.736,0,1.33,0.244,1.78,0.732s0.675,1.155,0.675,2.002V58.735z M84.951,56.588c0-0.465-0.089-0.825-0.267-1.081
				s-0.424-0.383-0.739-0.383c-0.319,0-0.565,0.127-0.74,0.383c-0.174,0.256-0.261,0.616-0.261,1.081v2.286
				c0,0.475,0.088,0.839,0.264,1.093s0.425,0.381,0.747,0.381c0.315,0,0.561-0.127,0.734-0.381c0.175-0.254,0.262-0.618,0.262-1.093
				V56.588z"/>
		</g>
	</g>
</g>
</svg>
