<?xml version="1.0" encoding="utf-8"?>
<!-- Generator: Adobe Illustrator 16.0.0, SVG Export Plug-In . SVG Version: 6.00 Build 0)  -->
<!DOCTYPE svg PUBLIC "-//W3C//DTD SVG 1.1//EN" "http://www.w3.org/Graphics/SVG/1.1/DTD/svg11.dtd">
<svg version="1.1" id="Calque_1" xmlns="http://www.w3.org/2000/svg" xmlns:xlink="http://www.w3.org/1999/xlink" x="0px" y="0px"
	 width="150px" height="100px" viewBox="0 0 150 100" enable-background="new 0 0 150 100" xml:space="preserve">
<circle fill="#FFFFFF" cx="76" cy="50" r="50"/>
<path fill="#5CB85C" stroke="#FFFFFF" stroke-width="4" stroke-miterlimit="10" d="M95.998,84.637
	c5.891-3.394,11-8.326,14.644-14.637s5.36-13.201,5.354-20H76L95.998,84.637z"/>
<path fill="#A6B255" stroke="#FFFFFF" stroke-width="4" stroke-miterlimit="10" d="M115.996,50c0.006-6.799-1.711-13.689-5.354-20
	c-3.645-6.311-8.754-11.243-14.645-14.637L76.001,50.001L115.996,50z"/>
<path fill="#F0AD4E" stroke="#FFFFFF" stroke-width="4" stroke-miterlimit="10" d="M95.998,15.363
	C90.113,11.958,83.287,10,76.001,9.999c-7.288,0.001-14.114,1.96-19.998,5.364L76.002,50L95.998,15.363z"/>
<path fill="#E4804E" stroke="#FFFFFF" stroke-width="4" stroke-miterlimit="10" d="M56.002,15.363
	c-5.891,3.394-11,8.326-14.643,14.636c-3.644,6.312-5.36,13.203-5.354,20.001l39.996-0.002L56.002,15.363z"/>
<path fill="#D9534F" stroke="#FFFFFF" stroke-width="4" stroke-miterlimit="10" d="M36.005,50.001
	C35.998,56.799,37.716,63.689,41.359,70c3.645,6.311,8.754,11.243,14.645,14.637L76,49.998L36.005,50.001z"/>
<circle fill="#FFFFFF" cx="76" cy="50" r="30"/>
<g>
	<polygon fill="#999999" points="71.364,44.028 97.213,28.786 81.971,54.635 	"/>
	<circle fill="#999999" cx="76" cy="50" r="7.5"/>
</g>
</svg>
