<svg version="1.1" id="Calque_1" xmlns="http://www.w3.org/2000/svg" xmlns:xlink="http://www.w3.org/1999/xlink" x="0px" y="0px"
	 width="56px" height="32px" viewBox="0 0 56 32" enable-background="new 0 0 56 32" xml:space="preserve">
<path fill="#1D1D1B" d="M34.517,24.422c-0.934-1.457-4.074-2.363-7.18-3.658s-3.844-1.744-3.844-1.744l-0.027-2.98
	c0,0,1.164-0.895,1.523-3.699c0.727,0.211,1.492-1.086,1.535-1.77c0.039-0.658-0.102-2.484-0.988-2.301
	c0.18-1.375,0.312-2.611,0.246-3.266c-0.23-2.395-2.586-4.92-6.211-4.92s-5.984,2.525-6.215,4.92
	c-0.066,0.654,0.066,1.891,0.246,3.266c-0.887-0.184-1.027,1.643-0.988,2.301c0.043,0.684,0.805,1.98,1.535,1.77
	c0.359,2.805,1.527,3.699,1.527,3.699l-0.031,2.98c0,0-0.738,0.449-3.844,1.744s-6.246,2.201-7.18,3.658
	C3.782,25.727,4.036,32,4.036,32h11.723h6.762h12.582C35.103,32,35.356,25.727,34.517,24.422z"/>
<path fill="#1D1D1B" d="M53.999,26V2H22v24h11.999v4h-8v2h24v-2h-8v-4H53.999z M24,24V4h27.999v20H24z"/>
</svg>
