<?xml version="1.0" encoding="utf-8"?>
<!-- Generator: Adobe Illustrator 16.0.0, SVG Export Plug-In . SVG Version: 6.00 Build 0)  -->
<!DOCTYPE svg PUBLIC "-//W3C//DTD SVG 1.1//EN" "http://www.w3.org/Graphics/SVG/1.1/DTD/svg11.dtd">
<svg version="1.1" id="Calque_1" xmlns="http://www.w3.org/2000/svg" xmlns:xlink="http://www.w3.org/1999/xlink" x="0px" y="0px"
	 width="14.17px" height="14.17px" viewBox="0 0 14.17 14.17" enable-background="new 0 0 14.17 14.17" xml:space="preserve">
<g>
	<path fill="#1D1D1B" d="M10.837,1.086h-7.5c-0.829,0-1.5,0.673-1.5,1.5v6v0.375c0,0.207,0.167,0.375,0.375,0.375h0.375v1.875
		c0,0.207,0.167,0.375,0.375,0.375h0.375v0.75c0,0.414,0.335,0.75,0.75,0.75h0.75c0.414,0,0.75-0.336,0.75-0.75v-0.75h3v0.75
		c0,0.414,0.335,0.75,0.75,0.75h0.75c0.414,0,0.75-0.336,0.75-0.75v-0.75h0.375c0.207,0,0.375-0.168,0.375-0.375V9.337h0.375
		c0.207,0,0.375-0.168,0.375-0.375V8.587v-6C12.337,1.759,11.665,1.086,10.837,1.086z M9.337,4.086c0.414,0,0.75,0.336,0.75,0.75
		v1.5h-6v-1.5c0-0.414,0.335-0.75,0.75-0.75H9.337z M4.836,10.087h-0.75c-0.413,0-0.75-0.338-0.75-0.75s0.337-0.75,0.75-0.75h0.75
		c0.412,0,0.75,0.338,0.75,0.75S5.249,10.087,4.836,10.087z M10.087,10.087h-0.75c-0.413,0-0.75-0.338-0.75-0.75
		s0.337-0.75,0.75-0.75h0.75c0.412,0,0.75,0.338,0.75,0.75S10.499,10.087,10.087,10.087z"/>
</g>
</svg>
