<?xml version="1.0" encoding="utf-8"?>
<!-- Generator: Adobe Illustrator 16.0.0, SVG Export Plug-In . SVG Version: 6.00 Build 0)  -->
<!DOCTYPE svg PUBLIC "-//W3C//DTD SVG 1.1//EN" "http://www.w3.org/Graphics/SVG/1.1/DTD/svg11.dtd">
<svg version="1.1" id="Calque_1" xmlns="http://www.w3.org/2000/svg" xmlns:xlink="http://www.w3.org/1999/xlink" x="0px" y="0px"
	 width="14.17px" height="14.17px" viewBox="0 0 14.17 14.17" enable-background="new 0 0 14.17 14.17" xml:space="preserve">
<g>
	<path fill="#1D1D1B" d="M10.248,11.884c-0.604,0.602-1.117,0.602-1.721,0c-0.884-0.883-1.87-0.885-2.777-0.002
		c-0.605,0.586-1.122,0.586-1.727,0c-0.92-0.896-1.853-0.896-2.773,0c-0.056,0.053-0.11,0.096-0.164,0.141v0.885
		c0.232-0.107,0.462-0.27,0.687-0.488c0.629-0.613,1.098-0.613,1.727,0c0.895,0.869,1.879,0.869,2.773,0
		c0.622-0.605,1.122-0.605,1.724-0.004c0.448,0.447,0.919,0.672,1.391,0.672c0.471,0,0.942-0.225,1.39-0.672
		c0.602-0.602,1.102-0.602,1.724,0.004c0.194,0.189,0.391,0.322,0.586,0.422v-0.906c-0.021-0.018-0.041-0.033-0.063-0.053
		C12.104,10.985,11.145,10.987,10.248,11.884z"/>
	<path fill="#1D1D1B" d="M13.023,9.632c-0.92-0.896-1.879-0.895-2.775,0.002c-0.055,0.055-0.108,0.098-0.161,0.145V7.837l1.07-1.071
		c0.093-0.093,0.13-0.225,0.101-0.352c-0.03-0.126-0.123-0.229-0.247-0.27l-0.924-0.308V5.586v-1.5v-0.75h-0.75v-0.75h-0.75h-0.75
		V1.461c0-0.206-0.168-0.375-0.375-0.375h-0.75c-0.208,0-0.375,0.169-0.375,0.375v1.125h-0.75h-0.75v0.75h-0.75v0.75v1.5v0.251
		L3.162,6.145c-0.123,0.041-0.216,0.144-0.246,0.27c-0.03,0.127,0.008,0.259,0.1,0.352l1.071,1.071v1.848
		C4.065,9.667,4.045,9.651,4.023,9.632c-0.92-0.896-1.853-0.896-2.773,0C1.195,9.685,1.14,9.728,1.086,9.772v0.885
		c0.232-0.107,0.462-0.27,0.687-0.488c0.629-0.613,1.098-0.613,1.727,0c0.895,0.869,1.879,0.869,2.773,0
		c0.032-0.031,0.062-0.055,0.093-0.082c0.549-0.488,1.01-0.488,1.543,0c0.029,0.025,0.058,0.049,0.087,0.078
		c0.448,0.447,0.919,0.672,1.391,0.672c0.471,0,0.942-0.225,1.39-0.672c0.602-0.602,1.102-0.602,1.724,0.004
		c0.194,0.189,0.391,0.322,0.586,0.422V9.685C13.065,9.667,13.046,9.651,13.023,9.632z M9.337,5.586l-2.25-0.75l-2.25,0.75v-1.5
		h0.75v-0.75h3v0.75h0.75V5.586z"/>
</g>
</svg>
