<?xml version="1.0" encoding="utf-8"?>
<!-- Generator: Adobe Illustrator 16.0.0, SVG Export Plug-In . SVG Version: 6.00 Build 0)  -->
<!DOCTYPE svg PUBLIC "-//W3C//DTD SVG 1.1//EN" "http://www.w3.org/Graphics/SVG/1.1/DTD/svg11.dtd">
<svg version="1.1" id="Calque_1" xmlns="http://www.w3.org/2000/svg" xmlns:xlink="http://www.w3.org/1999/xlink" x="0px" y="0px"
	 width="14.17px" height="14.17px" viewBox="0 0 14.17 14.17" enable-background="new 0 0 14.17 14.17" xml:space="preserve">
<path fill="#1D1D1B" d="M12.555,8.581L8.212,5.389V3.337c0-0.562-0.562-2.25-1.125-2.25c-0.563,0-1.125,1.688-1.125,2.25v2.052
	L1.618,8.581C1.52,8.651,1.461,8.764,1.461,8.886v0.076c0,0.116,0.053,0.226,0.145,0.296C1.697,9.33,1.815,9.354,1.927,9.326
	l4.034-1.085v0.721v2.419l-1.333,0.967c-0.104,0.07-0.167,0.188-0.167,0.312v0.053c0,0.117,0.056,0.229,0.149,0.299
	c0.094,0.071,0.215,0.094,0.328,0.062l2.148-0.735l2.146,0.726c0.113,0.031,0.234,0.01,0.328-0.062
	c0.094-0.07,0.15-0.182,0.15-0.299v-0.053c0-0.124-0.063-0.241-0.168-0.312l-1.332-0.96V8.962V8.241l4.033,1.085
	c0.113,0.028,0.231,0.004,0.322-0.068c0.092-0.07,0.145-0.18,0.145-0.296V8.886C12.712,8.764,12.653,8.651,12.555,8.581z"/>
</svg>
